<mxfile host="Electron" agent="Mozilla/5.0 (X11; Linux x86_64) AppleWebKit/537.36 (KHTML, like Gecko) draw.io/24.7.17 Chrome/128.0.6613.36 Electron/32.0.1 Safari/537.36" version="24.7.17" pages="5">
  <diagram name="Entidad RelaciÃ³n" id="UbATDhRajEz6UsuSppPL">
    <mxGraphModel dx="1561" dy="-554" grid="1" gridSize="10" guides="1" tooltips="1" connect="1" arrows="1" fold="1" page="1" pageScale="1" pageWidth="827" pageHeight="1169" math="0" shadow="0">
      <root>
        <mxCell id="0" />
        <mxCell id="1" parent="0" />
        <mxCell id="bK-Y4q6sQd6WDbwc4rv8-24" style="edgeStyle=none;rounded=0;orthogonalLoop=1;jettySize=auto;html=1;endArrow=none;endFill=0;" parent="1" source="7PjP3hf9p90VOrmUwpBF-1" target="bK-Y4q6sQd6WDbwc4rv8-21" edge="1">
          <mxGeometry relative="1" as="geometry" />
        </mxCell>
        <mxCell id="bK-Y4q6sQd6WDbwc4rv8-42" style="edgeStyle=orthogonalEdgeStyle;rounded=0;orthogonalLoop=1;jettySize=auto;html=1;endArrow=none;endFill=0;" parent="1" source="7PjP3hf9p90VOrmUwpBF-1" target="bK-Y4q6sQd6WDbwc4rv8-36" edge="1">
          <mxGeometry relative="1" as="geometry">
            <Array as="points">
              <mxPoint x="350" y="1620" />
            </Array>
          </mxGeometry>
        </mxCell>
        <mxCell id="hnpQLKFRRRQmXqO7a9Sj-21" style="edgeStyle=orthogonalEdgeStyle;rounded=0;orthogonalLoop=1;jettySize=auto;html=1;endArrow=none;endFill=0;" parent="1" source="7PjP3hf9p90VOrmUwpBF-1" target="hnpQLKFRRRQmXqO7a9Sj-19" edge="1">
          <mxGeometry relative="1" as="geometry">
            <Array as="points">
              <mxPoint x="340" y="1820" />
            </Array>
          </mxGeometry>
        </mxCell>
        <mxCell id="hnpQLKFRRRQmXqO7a9Sj-27" style="edgeStyle=none;rounded=0;orthogonalLoop=1;jettySize=auto;html=1;endArrow=none;endFill=0;" parent="1" source="7PjP3hf9p90VOrmUwpBF-1" target="hnpQLKFRRRQmXqO7a9Sj-26" edge="1">
          <mxGeometry relative="1" as="geometry" />
        </mxCell>
        <mxCell id="7PjP3hf9p90VOrmUwpBF-1" value="users" style="whiteSpace=wrap;html=1;align=center;" parent="1" vertex="1">
          <mxGeometry x="290" y="1390" width="100" height="40" as="geometry" />
        </mxCell>
        <mxCell id="7PjP3hf9p90VOrmUwpBF-6" style="rounded=0;orthogonalLoop=1;jettySize=auto;html=1;endArrow=none;endFill=0;" parent="1" source="7PjP3hf9p90VOrmUwpBF-2" target="7PjP3hf9p90VOrmUwpBF-1" edge="1">
          <mxGeometry relative="1" as="geometry" />
        </mxCell>
        <mxCell id="7PjP3hf9p90VOrmUwpBF-2" value="username" style="ellipse;whiteSpace=wrap;html=1;align=center;fontStyle=4" parent="1" vertex="1">
          <mxGeometry x="-90" y="1270" width="100" height="40" as="geometry" />
        </mxCell>
        <mxCell id="7PjP3hf9p90VOrmUwpBF-8" style="rounded=0;orthogonalLoop=1;jettySize=auto;html=1;endArrow=none;endFill=0;" parent="1" source="7PjP3hf9p90VOrmUwpBF-4" target="7PjP3hf9p90VOrmUwpBF-1" edge="1">
          <mxGeometry relative="1" as="geometry" />
        </mxCell>
        <mxCell id="7PjP3hf9p90VOrmUwpBF-4" value="password" style="ellipse;whiteSpace=wrap;html=1;align=center;fontStyle=0" parent="1" vertex="1">
          <mxGeometry x="40" y="1270" width="100" height="40" as="geometry" />
        </mxCell>
        <mxCell id="7PjP3hf9p90VOrmUwpBF-9" style="rounded=0;orthogonalLoop=1;jettySize=auto;html=1;endArrow=none;endFill=0;" parent="1" source="7PjP3hf9p90VOrmUwpBF-5" target="7PjP3hf9p90VOrmUwpBF-1" edge="1">
          <mxGeometry relative="1" as="geometry" />
        </mxCell>
        <mxCell id="7PjP3hf9p90VOrmUwpBF-5" value="email" style="ellipse;whiteSpace=wrap;html=1;align=center;fontStyle=0" parent="1" vertex="1">
          <mxGeometry x="164" y="1270" width="100" height="40" as="geometry" />
        </mxCell>
        <mxCell id="7PjP3hf9p90VOrmUwpBF-11" style="rounded=0;orthogonalLoop=1;jettySize=auto;html=1;endArrow=none;endFill=0;" parent="1" source="7PjP3hf9p90VOrmUwpBF-10" target="7PjP3hf9p90VOrmUwpBF-1" edge="1">
          <mxGeometry relative="1" as="geometry" />
        </mxCell>
        <mxCell id="7PjP3hf9p90VOrmUwpBF-10" value="rol" style="ellipse;whiteSpace=wrap;html=1;align=center;fontStyle=0" parent="1" vertex="1">
          <mxGeometry x="290" y="1270" width="100" height="40" as="geometry" />
        </mxCell>
        <mxCell id="7PjP3hf9p90VOrmUwpBF-18" style="rounded=0;orthogonalLoop=1;jettySize=auto;html=1;endArrow=none;endFill=0;" parent="1" source="7PjP3hf9p90VOrmUwpBF-12" target="7PjP3hf9p90VOrmUwpBF-1" edge="1">
          <mxGeometry relative="1" as="geometry" />
        </mxCell>
        <mxCell id="7PjP3hf9p90VOrmUwpBF-12" value="nombre" style="ellipse;whiteSpace=wrap;html=1;align=center;fontStyle=0" parent="1" vertex="1">
          <mxGeometry x="413.5" y="1270" width="100" height="40" as="geometry" />
        </mxCell>
        <mxCell id="7PjP3hf9p90VOrmUwpBF-19" style="rounded=0;orthogonalLoop=1;jettySize=auto;html=1;endArrow=none;endFill=0;" parent="1" source="7PjP3hf9p90VOrmUwpBF-13" target="7PjP3hf9p90VOrmUwpBF-1" edge="1">
          <mxGeometry relative="1" as="geometry" />
        </mxCell>
        <mxCell id="7PjP3hf9p90VOrmUwpBF-13" value="apellido" style="ellipse;whiteSpace=wrap;html=1;align=center;fontStyle=0" parent="1" vertex="1">
          <mxGeometry x="537.5" y="1270" width="100" height="40" as="geometry" />
        </mxCell>
        <mxCell id="7PjP3hf9p90VOrmUwpBF-20" style="rounded=0;orthogonalLoop=1;jettySize=auto;html=1;endArrow=none;endFill=0;" parent="1" source="7PjP3hf9p90VOrmUwpBF-14" target="7PjP3hf9p90VOrmUwpBF-1" edge="1">
          <mxGeometry relative="1" as="geometry" />
        </mxCell>
        <mxCell id="7PjP3hf9p90VOrmUwpBF-14" value="telefono" style="ellipse;whiteSpace=wrap;html=1;align=center;fontStyle=0" parent="1" vertex="1">
          <mxGeometry x="663.5" y="1270" width="100" height="40" as="geometry" />
        </mxCell>
        <mxCell id="bK-Y4q6sQd6WDbwc4rv8-38" style="edgeStyle=orthogonalEdgeStyle;rounded=0;orthogonalLoop=1;jettySize=auto;html=1;endArrow=none;endFill=0;" parent="1" source="bK-Y4q6sQd6WDbwc4rv8-1" target="bK-Y4q6sQd6WDbwc4rv8-37" edge="1">
          <mxGeometry relative="1" as="geometry">
            <Array as="points">
              <mxPoint x="1500" y="1470" />
              <mxPoint x="1500" y="1470" />
            </Array>
          </mxGeometry>
        </mxCell>
        <mxCell id="hnpQLKFRRRQmXqO7a9Sj-35" style="edgeStyle=orthogonalEdgeStyle;rounded=0;orthogonalLoop=1;jettySize=auto;html=1;endArrow=none;endFill=0;" parent="1" source="bK-Y4q6sQd6WDbwc4rv8-1" target="hnpQLKFRRRQmXqO7a9Sj-33" edge="1">
          <mxGeometry relative="1" as="geometry">
            <Array as="points">
              <mxPoint x="1540" y="1510" />
            </Array>
          </mxGeometry>
        </mxCell>
        <mxCell id="bK-Y4q6sQd6WDbwc4rv8-1" value="publicacion" style="whiteSpace=wrap;html=1;align=center;" parent="1" vertex="1">
          <mxGeometry x="1490" y="1390" width="100" height="40" as="geometry" />
        </mxCell>
        <mxCell id="bK-Y4q6sQd6WDbwc4rv8-13" style="edgeStyle=none;rounded=0;orthogonalLoop=1;jettySize=auto;html=1;endArrow=none;endFill=0;" parent="1" source="bK-Y4q6sQd6WDbwc4rv8-2" target="bK-Y4q6sQd6WDbwc4rv8-1" edge="1">
          <mxGeometry relative="1" as="geometry" />
        </mxCell>
        <mxCell id="bK-Y4q6sQd6WDbwc4rv8-2" value="id" style="ellipse;whiteSpace=wrap;html=1;align=center;fontStyle=4" parent="1" vertex="1">
          <mxGeometry x="1060" y="1260" width="100" height="40" as="geometry" />
        </mxCell>
        <mxCell id="bK-Y4q6sQd6WDbwc4rv8-14" style="edgeStyle=none;rounded=0;orthogonalLoop=1;jettySize=auto;html=1;endArrow=none;endFill=0;" parent="1" source="bK-Y4q6sQd6WDbwc4rv8-3" target="bK-Y4q6sQd6WDbwc4rv8-1" edge="1">
          <mxGeometry relative="1" as="geometry" />
        </mxCell>
        <mxCell id="bK-Y4q6sQd6WDbwc4rv8-3" value="titulo" style="ellipse;whiteSpace=wrap;html=1;align=center;fontStyle=0" parent="1" vertex="1">
          <mxGeometry x="1190" y="1260" width="100" height="40" as="geometry" />
        </mxCell>
        <mxCell id="bK-Y4q6sQd6WDbwc4rv8-15" style="edgeStyle=none;rounded=0;orthogonalLoop=1;jettySize=auto;html=1;endArrow=none;endFill=0;" parent="1" source="bK-Y4q6sQd6WDbwc4rv8-4" target="bK-Y4q6sQd6WDbwc4rv8-1" edge="1">
          <mxGeometry relative="1" as="geometry" />
        </mxCell>
        <mxCell id="bK-Y4q6sQd6WDbwc4rv8-4" value="lugar" style="ellipse;whiteSpace=wrap;html=1;align=center;fontStyle=0" parent="1" vertex="1">
          <mxGeometry x="1314" y="1260" width="100" height="40" as="geometry" />
        </mxCell>
        <mxCell id="bK-Y4q6sQd6WDbwc4rv8-16" style="edgeStyle=none;rounded=0;orthogonalLoop=1;jettySize=auto;html=1;endArrow=none;endFill=0;" parent="1" source="bK-Y4q6sQd6WDbwc4rv8-5" target="bK-Y4q6sQd6WDbwc4rv8-1" edge="1">
          <mxGeometry relative="1" as="geometry" />
        </mxCell>
        <mxCell id="bK-Y4q6sQd6WDbwc4rv8-5" value="fecha" style="ellipse;whiteSpace=wrap;html=1;align=center;fontStyle=0" parent="1" vertex="1">
          <mxGeometry x="1440" y="1260" width="100" height="40" as="geometry" />
        </mxCell>
        <mxCell id="bK-Y4q6sQd6WDbwc4rv8-17" style="edgeStyle=none;rounded=0;orthogonalLoop=1;jettySize=auto;html=1;endArrow=none;endFill=0;" parent="1" source="bK-Y4q6sQd6WDbwc4rv8-8" target="bK-Y4q6sQd6WDbwc4rv8-1" edge="1">
          <mxGeometry relative="1" as="geometry" />
        </mxCell>
        <mxCell id="bK-Y4q6sQd6WDbwc4rv8-8" value="hora" style="ellipse;whiteSpace=wrap;html=1;align=center;fontStyle=0" parent="1" vertex="1">
          <mxGeometry x="1560" y="1260" width="100" height="40" as="geometry" />
        </mxCell>
        <mxCell id="bK-Y4q6sQd6WDbwc4rv8-47" style="rounded=0;orthogonalLoop=1;jettySize=auto;html=1;endArrow=none;endFill=0;" parent="1" source="bK-Y4q6sQd6WDbwc4rv8-9" target="bK-Y4q6sQd6WDbwc4rv8-1" edge="1">
          <mxGeometry relative="1" as="geometry" />
        </mxCell>
        <mxCell id="bK-Y4q6sQd6WDbwc4rv8-9" value="cupos" style="ellipse;whiteSpace=wrap;html=1;align=center;fontStyle=0" parent="1" vertex="1">
          <mxGeometry x="1677.5" y="1260" width="100" height="40" as="geometry" />
        </mxCell>
        <mxCell id="bK-Y4q6sQd6WDbwc4rv8-19" style="edgeStyle=none;rounded=0;orthogonalLoop=1;jettySize=auto;html=1;endArrow=none;endFill=0;" parent="1" source="bK-Y4q6sQd6WDbwc4rv8-10" target="bK-Y4q6sQd6WDbwc4rv8-1" edge="1">
          <mxGeometry relative="1" as="geometry" />
        </mxCell>
        <mxCell id="bK-Y4q6sQd6WDbwc4rv8-10" value="url" style="ellipse;whiteSpace=wrap;html=1;align=center;fontStyle=0" parent="1" vertex="1">
          <mxGeometry x="1800" y="1260" width="100" height="40" as="geometry" />
        </mxCell>
        <mxCell id="bK-Y4q6sQd6WDbwc4rv8-26" style="edgeStyle=none;rounded=0;orthogonalLoop=1;jettySize=auto;html=1;endArrow=none;endFill=0;" parent="1" source="bK-Y4q6sQd6WDbwc4rv8-21" target="bK-Y4q6sQd6WDbwc4rv8-1" edge="1">
          <mxGeometry relative="1" as="geometry" />
        </mxCell>
        <mxCell id="bK-Y4q6sQd6WDbwc4rv8-21" value="realiza" style="shape=rhombus;perimeter=rhombusPerimeter;whiteSpace=wrap;html=1;align=center;" parent="1" vertex="1">
          <mxGeometry x="800" y="1380" width="120" height="60" as="geometry" />
        </mxCell>
        <mxCell id="bK-Y4q6sQd6WDbwc4rv8-23" style="edgeStyle=none;rounded=0;orthogonalLoop=1;jettySize=auto;html=1;endArrow=none;endFill=0;" parent="1" source="bK-Y4q6sQd6WDbwc4rv8-22" target="bK-Y4q6sQd6WDbwc4rv8-1" edge="1">
          <mxGeometry relative="1" as="geometry" />
        </mxCell>
        <mxCell id="bK-Y4q6sQd6WDbwc4rv8-22" value="username_usuario" style="ellipse;whiteSpace=wrap;html=1;align=center;fontStyle=0" parent="1" vertex="1">
          <mxGeometry x="1920" y="1260" width="100" height="40" as="geometry" />
        </mxCell>
        <mxCell id="bK-Y4q6sQd6WDbwc4rv8-27" value="asistencias" style="whiteSpace=wrap;html=1;align=center;" parent="1" vertex="1">
          <mxGeometry x="1130" y="1600" width="100" height="40" as="geometry" />
        </mxCell>
        <mxCell id="bK-Y4q6sQd6WDbwc4rv8-32" style="edgeStyle=none;rounded=0;orthogonalLoop=1;jettySize=auto;html=1;endArrow=none;endFill=0;" parent="1" source="bK-Y4q6sQd6WDbwc4rv8-29" target="bK-Y4q6sQd6WDbwc4rv8-27" edge="1">
          <mxGeometry relative="1" as="geometry" />
        </mxCell>
        <mxCell id="bK-Y4q6sQd6WDbwc4rv8-29" value="id" style="ellipse;whiteSpace=wrap;html=1;align=center;fontStyle=4" parent="1" vertex="1">
          <mxGeometry x="1010" y="1520" width="100" height="40" as="geometry" />
        </mxCell>
        <mxCell id="bK-Y4q6sQd6WDbwc4rv8-33" style="edgeStyle=none;rounded=0;orthogonalLoop=1;jettySize=auto;html=1;endArrow=none;endFill=0;" parent="1" source="bK-Y4q6sQd6WDbwc4rv8-30" target="bK-Y4q6sQd6WDbwc4rv8-27" edge="1">
          <mxGeometry relative="1" as="geometry" />
        </mxCell>
        <mxCell id="bK-Y4q6sQd6WDbwc4rv8-30" value="id_publicacion" style="ellipse;whiteSpace=wrap;html=1;align=center;fontStyle=0" parent="1" vertex="1">
          <mxGeometry x="1130" y="1520" width="100" height="40" as="geometry" />
        </mxCell>
        <mxCell id="bK-Y4q6sQd6WDbwc4rv8-34" style="edgeStyle=none;rounded=0;orthogonalLoop=1;jettySize=auto;html=1;endArrow=none;endFill=0;" parent="1" source="bK-Y4q6sQd6WDbwc4rv8-31" target="bK-Y4q6sQd6WDbwc4rv8-27" edge="1">
          <mxGeometry relative="1" as="geometry" />
        </mxCell>
        <mxCell id="bK-Y4q6sQd6WDbwc4rv8-31" value="username" style="ellipse;whiteSpace=wrap;html=1;align=center;fontStyle=0" parent="1" vertex="1">
          <mxGeometry x="1260" y="1520" width="100" height="40" as="geometry" />
        </mxCell>
        <mxCell id="bK-Y4q6sQd6WDbwc4rv8-40" style="edgeStyle=none;rounded=0;orthogonalLoop=1;jettySize=auto;html=1;endArrow=none;endFill=0;" parent="1" source="bK-Y4q6sQd6WDbwc4rv8-36" target="bK-Y4q6sQd6WDbwc4rv8-27" edge="1">
          <mxGeometry relative="1" as="geometry" />
        </mxCell>
        <mxCell id="bK-Y4q6sQd6WDbwc4rv8-36" value="realiza" style="shape=rhombus;perimeter=rhombusPerimeter;whiteSpace=wrap;html=1;align=center;" parent="1" vertex="1">
          <mxGeometry x="763.5" y="1590" width="120" height="60" as="geometry" />
        </mxCell>
        <mxCell id="bK-Y4q6sQd6WDbwc4rv8-39" style="edgeStyle=none;rounded=0;orthogonalLoop=1;jettySize=auto;html=1;endArrow=none;endFill=0;" parent="1" source="bK-Y4q6sQd6WDbwc4rv8-37" target="bK-Y4q6sQd6WDbwc4rv8-27" edge="1">
          <mxGeometry relative="1" as="geometry" />
        </mxCell>
        <mxCell id="bK-Y4q6sQd6WDbwc4rv8-37" value="tiene" style="shape=rhombus;perimeter=rhombusPerimeter;whiteSpace=wrap;html=1;align=center;" parent="1" vertex="1">
          <mxGeometry x="1440" y="1590" width="120" height="60" as="geometry" />
        </mxCell>
        <mxCell id="bK-Y4q6sQd6WDbwc4rv8-46" style="rounded=0;orthogonalLoop=1;jettySize=auto;html=1;endArrow=none;endFill=0;" parent="1" source="bK-Y4q6sQd6WDbwc4rv8-45" target="bK-Y4q6sQd6WDbwc4rv8-1" edge="1">
          <mxGeometry relative="1" as="geometry" />
        </mxCell>
        <mxCell id="bK-Y4q6sQd6WDbwc4rv8-45" value="estado" style="ellipse;whiteSpace=wrap;html=1;align=center;fontStyle=0" parent="1" vertex="1">
          <mxGeometry x="2042" y="1260" width="100" height="40" as="geometry" />
        </mxCell>
        <mxCell id="hnpQLKFRRRQmXqO7a9Sj-12" style="edgeStyle=orthogonalEdgeStyle;rounded=0;orthogonalLoop=1;jettySize=auto;html=1;endArrow=none;endFill=0;" parent="1" source="hnpQLKFRRRQmXqO7a9Sj-1" target="hnpQLKFRRRQmXqO7a9Sj-11" edge="1">
          <mxGeometry relative="1" as="geometry" />
        </mxCell>
        <mxCell id="8QHK-Pq-cATRr_uRpfyS-22" value="N" style="edgeLabel;html=1;align=center;verticalAlign=middle;resizable=0;points=[];" vertex="1" connectable="0" parent="hnpQLKFRRRQmXqO7a9Sj-12">
          <mxGeometry x="0.8543" y="-1" relative="1" as="geometry">
            <mxPoint as="offset" />
          </mxGeometry>
        </mxCell>
        <mxCell id="hnpQLKFRRRQmXqO7a9Sj-1" value="reporte" style="whiteSpace=wrap;html=1;align=center;" parent="1" vertex="1">
          <mxGeometry x="1086" y="1800" width="100" height="40" as="geometry" />
        </mxCell>
        <mxCell id="hnpQLKFRRRQmXqO7a9Sj-2" style="edgeStyle=none;rounded=0;orthogonalLoop=1;jettySize=auto;html=1;endArrow=none;endFill=0;" parent="1" source="hnpQLKFRRRQmXqO7a9Sj-3" target="hnpQLKFRRRQmXqO7a9Sj-1" edge="1">
          <mxGeometry relative="1" as="geometry" />
        </mxCell>
        <mxCell id="hnpQLKFRRRQmXqO7a9Sj-3" value="id" style="ellipse;whiteSpace=wrap;html=1;align=center;fontStyle=4" parent="1" vertex="1">
          <mxGeometry x="850" y="1714" width="100" height="40" as="geometry" />
        </mxCell>
        <mxCell id="hnpQLKFRRRQmXqO7a9Sj-4" style="edgeStyle=none;rounded=0;orthogonalLoop=1;jettySize=auto;html=1;endArrow=none;endFill=0;" parent="1" source="hnpQLKFRRRQmXqO7a9Sj-5" target="hnpQLKFRRRQmXqO7a9Sj-1" edge="1">
          <mxGeometry relative="1" as="geometry" />
        </mxCell>
        <mxCell id="hnpQLKFRRRQmXqO7a9Sj-5" value="id_publicacion" style="ellipse;whiteSpace=wrap;html=1;align=center;fontStyle=0" parent="1" vertex="1">
          <mxGeometry x="966.5" y="1714" width="100" height="40" as="geometry" />
        </mxCell>
        <mxCell id="hnpQLKFRRRQmXqO7a9Sj-6" style="edgeStyle=none;rounded=0;orthogonalLoop=1;jettySize=auto;html=1;endArrow=none;endFill=0;" parent="1" source="hnpQLKFRRRQmXqO7a9Sj-7" target="hnpQLKFRRRQmXqO7a9Sj-1" edge="1">
          <mxGeometry relative="1" as="geometry" />
        </mxCell>
        <mxCell id="hnpQLKFRRRQmXqO7a9Sj-7" value="nombre_motivo" style="ellipse;whiteSpace=wrap;html=1;align=center;fontStyle=0" parent="1" vertex="1">
          <mxGeometry x="1086" y="1714" width="100" height="40" as="geometry" />
        </mxCell>
        <mxCell id="hnpQLKFRRRQmXqO7a9Sj-14" style="edgeStyle=orthogonalEdgeStyle;rounded=0;orthogonalLoop=1;jettySize=auto;html=1;endArrow=none;endFill=0;" parent="1" source="hnpQLKFRRRQmXqO7a9Sj-11" target="bK-Y4q6sQd6WDbwc4rv8-1" edge="1">
          <mxGeometry relative="1" as="geometry">
            <Array as="points">
              <mxPoint x="1570" y="1520" />
              <mxPoint x="1570" y="1520" />
            </Array>
          </mxGeometry>
        </mxCell>
        <mxCell id="8QHK-Pq-cATRr_uRpfyS-21" value="1" style="edgeLabel;html=1;align=center;verticalAlign=middle;resizable=0;points=[];" vertex="1" connectable="0" parent="hnpQLKFRRRQmXqO7a9Sj-14">
          <mxGeometry x="-0.8944" y="1" relative="1" as="geometry">
            <mxPoint as="offset" />
          </mxGeometry>
        </mxCell>
        <mxCell id="hnpQLKFRRRQmXqO7a9Sj-11" value="tiene" style="shape=rhombus;perimeter=rhombusPerimeter;whiteSpace=wrap;html=1;align=center;" parent="1" vertex="1">
          <mxGeometry x="1510" y="1790" width="120" height="60" as="geometry" />
        </mxCell>
        <mxCell id="hnpQLKFRRRQmXqO7a9Sj-18" style="rounded=0;orthogonalLoop=1;jettySize=auto;html=1;endArrow=none;endFill=0;" parent="1" source="hnpQLKFRRRQmXqO7a9Sj-17" target="hnpQLKFRRRQmXqO7a9Sj-1" edge="1">
          <mxGeometry relative="1" as="geometry" />
        </mxCell>
        <mxCell id="hnpQLKFRRRQmXqO7a9Sj-17" value="username_user" style="ellipse;whiteSpace=wrap;html=1;align=center;fontStyle=0" parent="1" vertex="1">
          <mxGeometry x="1314" y="1714" width="100" height="40" as="geometry" />
        </mxCell>
        <mxCell id="hnpQLKFRRRQmXqO7a9Sj-20" style="edgeStyle=orthogonalEdgeStyle;rounded=0;orthogonalLoop=1;jettySize=auto;html=1;endArrow=none;endFill=0;" parent="1" source="hnpQLKFRRRQmXqO7a9Sj-19" target="hnpQLKFRRRQmXqO7a9Sj-1" edge="1">
          <mxGeometry relative="1" as="geometry" />
        </mxCell>
        <mxCell id="hnpQLKFRRRQmXqO7a9Sj-19" value="realiza" style="shape=rhombus;perimeter=rhombusPerimeter;whiteSpace=wrap;html=1;align=center;" parent="1" vertex="1">
          <mxGeometry x="670" y="1790" width="120" height="60" as="geometry" />
        </mxCell>
        <mxCell id="hnpQLKFRRRQmXqO7a9Sj-23" style="rounded=0;orthogonalLoop=1;jettySize=auto;html=1;endArrow=none;endFill=0;" parent="1" source="hnpQLKFRRRQmXqO7a9Sj-22" target="hnpQLKFRRRQmXqO7a9Sj-1" edge="1">
          <mxGeometry relative="1" as="geometry" />
        </mxCell>
        <mxCell id="hnpQLKFRRRQmXqO7a9Sj-22" value="fecha" style="ellipse;whiteSpace=wrap;html=1;align=center;fontStyle=0" parent="1" vertex="1">
          <mxGeometry x="1200" y="1714" width="100" height="40" as="geometry" />
        </mxCell>
        <mxCell id="hnpQLKFRRRQmXqO7a9Sj-26" value="estado" style="ellipse;whiteSpace=wrap;html=1;align=center;fontStyle=0" parent="1" vertex="1">
          <mxGeometry x="110" y="1390" width="100" height="40" as="geometry" />
        </mxCell>
        <mxCell id="hnpQLKFRRRQmXqO7a9Sj-32" style="edgeStyle=none;rounded=0;orthogonalLoop=1;jettySize=auto;html=1;endArrow=none;endFill=0;" parent="1" source="hnpQLKFRRRQmXqO7a9Sj-29" target="hnpQLKFRRRQmXqO7a9Sj-31" edge="1">
          <mxGeometry relative="1" as="geometry" />
        </mxCell>
        <mxCell id="hnpQLKFRRRQmXqO7a9Sj-29" value="tipo_publico" style="whiteSpace=wrap;html=1;align=center;" parent="1" vertex="1">
          <mxGeometry x="1990" y="1490" width="100" height="40" as="geometry" />
        </mxCell>
        <mxCell id="hnpQLKFRRRQmXqO7a9Sj-31" value="tipo_publico" style="ellipse;whiteSpace=wrap;html=1;align=center;fontStyle=4" parent="1" vertex="1">
          <mxGeometry x="1990" y="1410" width="100" height="40" as="geometry" />
        </mxCell>
        <mxCell id="hnpQLKFRRRQmXqO7a9Sj-36" style="edgeStyle=orthogonalEdgeStyle;rounded=0;orthogonalLoop=1;jettySize=auto;html=1;endArrow=none;endFill=0;" parent="1" source="hnpQLKFRRRQmXqO7a9Sj-33" target="hnpQLKFRRRQmXqO7a9Sj-29" edge="1">
          <mxGeometry relative="1" as="geometry" />
        </mxCell>
        <mxCell id="hnpQLKFRRRQmXqO7a9Sj-33" value="publico" style="shape=associativeEntity;whiteSpace=wrap;html=1;align=center;" parent="1" vertex="1">
          <mxGeometry x="1750" y="1480" width="140" height="60" as="geometry" />
        </mxCell>
        <mxCell id="hnpQLKFRRRQmXqO7a9Sj-41" style="edgeStyle=none;rounded=0;orthogonalLoop=1;jettySize=auto;html=1;endArrow=none;endFill=0;" parent="1" source="hnpQLKFRRRQmXqO7a9Sj-39" target="hnpQLKFRRRQmXqO7a9Sj-33" edge="1">
          <mxGeometry relative="1" as="geometry" />
        </mxCell>
        <mxCell id="hnpQLKFRRRQmXqO7a9Sj-39" value="id_publicacion" style="ellipse;whiteSpace=wrap;html=1;align=center;fontStyle=4" parent="1" vertex="1">
          <mxGeometry x="1720" y="1390" width="100" height="40" as="geometry" />
        </mxCell>
        <mxCell id="hnpQLKFRRRQmXqO7a9Sj-42" style="edgeStyle=none;rounded=0;orthogonalLoop=1;jettySize=auto;html=1;endArrow=none;endFill=0;" parent="1" source="hnpQLKFRRRQmXqO7a9Sj-40" target="hnpQLKFRRRQmXqO7a9Sj-33" edge="1">
          <mxGeometry relative="1" as="geometry" />
        </mxCell>
        <mxCell id="hnpQLKFRRRQmXqO7a9Sj-40" value="tipo_publico" style="ellipse;whiteSpace=wrap;html=1;align=center;fontStyle=4" parent="1" vertex="1">
          <mxGeometry x="1840" y="1390" width="100" height="40" as="geometry" />
        </mxCell>
        <mxCell id="hnpQLKFRRRQmXqO7a9Sj-54" style="edgeStyle=none;rounded=0;orthogonalLoop=1;jettySize=auto;html=1;endArrow=none;endFill=0;" parent="1" source="hnpQLKFRRRQmXqO7a9Sj-47" target="hnpQLKFRRRQmXqO7a9Sj-53" edge="1">
          <mxGeometry relative="1" as="geometry" />
        </mxCell>
        <mxCell id="hnpQLKFRRRQmXqO7a9Sj-47" value="motivo" style="whiteSpace=wrap;html=1;align=center;" parent="1" vertex="1">
          <mxGeometry x="1600" y="2040" width="100" height="40" as="geometry" />
        </mxCell>
        <mxCell id="hnpQLKFRRRQmXqO7a9Sj-50" style="edgeStyle=none;rounded=0;orthogonalLoop=1;jettySize=auto;html=1;endArrow=none;endFill=0;" parent="1" source="hnpQLKFRRRQmXqO7a9Sj-51" target="hnpQLKFRRRQmXqO7a9Sj-47" edge="1">
          <mxGeometry relative="1" as="geometry" />
        </mxCell>
        <mxCell id="hnpQLKFRRRQmXqO7a9Sj-51" value="nombre" style="ellipse;whiteSpace=wrap;html=1;align=center;fontStyle=0" parent="1" vertex="1">
          <mxGeometry x="1600" y="1960" width="100" height="40" as="geometry" />
        </mxCell>
        <mxCell id="hnpQLKFRRRQmXqO7a9Sj-56" style="edgeStyle=orthogonalEdgeStyle;rounded=0;orthogonalLoop=1;jettySize=auto;html=1;endArrow=none;endFill=0;" parent="1" source="hnpQLKFRRRQmXqO7a9Sj-53" target="hnpQLKFRRRQmXqO7a9Sj-1" edge="1">
          <mxGeometry relative="1" as="geometry">
            <Array as="points">
              <mxPoint x="1140" y="2060" />
            </Array>
          </mxGeometry>
        </mxCell>
        <mxCell id="hnpQLKFRRRQmXqO7a9Sj-53" value="tiene" style="shape=rhombus;perimeter=rhombusPerimeter;whiteSpace=wrap;html=1;align=center;" parent="1" vertex="1">
          <mxGeometry x="1330" y="2030" width="120" height="60" as="geometry" />
        </mxCell>
        <mxCell id="8QHK-Pq-cATRr_uRpfyS-3" style="edgeStyle=none;rounded=0;orthogonalLoop=1;jettySize=auto;html=1;endArrow=none;endFill=0;" edge="1" parent="1" source="8QHK-Pq-cATRr_uRpfyS-1" target="7PjP3hf9p90VOrmUwpBF-1">
          <mxGeometry relative="1" as="geometry" />
        </mxCell>
        <mxCell id="8QHK-Pq-cATRr_uRpfyS-1" value="puede_publicar" style="ellipse;whiteSpace=wrap;html=1;align=center;fontStyle=0" vertex="1" parent="1">
          <mxGeometry x="110" y="1470" width="100" height="40" as="geometry" />
        </mxCell>
        <mxCell id="8QHK-Pq-cATRr_uRpfyS-7" value="1:N" style="text;html=1;align=center;verticalAlign=middle;resizable=0;points=[];autosize=1;strokeColor=none;fillColor=none;" vertex="1" parent="1">
          <mxGeometry x="710" y="1850" width="40" height="30" as="geometry" />
        </mxCell>
        <mxCell id="8QHK-Pq-cATRr_uRpfyS-8" value="1:N" style="text;html=1;align=center;verticalAlign=middle;resizable=0;points=[];autosize=1;strokeColor=none;fillColor=none;" vertex="1" parent="1">
          <mxGeometry x="803.5" y="1560" width="40" height="30" as="geometry" />
        </mxCell>
        <mxCell id="8QHK-Pq-cATRr_uRpfyS-9" value="0:N" style="text;html=1;align=center;verticalAlign=middle;resizable=0;points=[];autosize=1;strokeColor=none;fillColor=none;" vertex="1" parent="1">
          <mxGeometry x="840" y="1350" width="40" height="30" as="geometry" />
        </mxCell>
        <mxCell id="8QHK-Pq-cATRr_uRpfyS-19" value="1:1" style="text;html=1;align=center;verticalAlign=middle;resizable=0;points=[];autosize=1;strokeColor=none;fillColor=none;" vertex="1" parent="1">
          <mxGeometry x="1370" y="2000" width="40" height="30" as="geometry" />
        </mxCell>
        <mxCell id="8QHK-Pq-cATRr_uRpfyS-23" value="N:N" style="text;html=1;align=center;verticalAlign=middle;resizable=0;points=[];autosize=1;strokeColor=none;fillColor=none;" vertex="1" parent="1">
          <mxGeometry x="1800" y="1550" width="40" height="30" as="geometry" />
        </mxCell>
        <mxCell id="8QHK-Pq-cATRr_uRpfyS-27" value="N:1" style="text;html=1;align=center;verticalAlign=middle;resizable=0;points=[];autosize=1;strokeColor=none;fillColor=none;" vertex="1" parent="1">
          <mxGeometry x="1480" y="1650" width="40" height="30" as="geometry" />
        </mxCell>
      </root>
    </mxGraphModel>
  </diagram>
  <diagram id="LTu6e1hzTrClBUOBZ37h" name="Casos de uso">
    <mxGraphModel dx="1502" dy="615" grid="1" gridSize="10" guides="1" tooltips="1" connect="1" arrows="1" fold="1" page="1" pageScale="1" pageWidth="827" pageHeight="1169" math="0" shadow="0">
      <root>
        <mxCell id="0" />
        <mxCell id="1" parent="0" />
        <mxCell id="YB5v4xmEmm8rpIlrfE_Q-1" value="SISTEMA DE PUBLICACIONES&#xa;" style="swimlane;startSize=0;" parent="1" vertex="1">
          <mxGeometry x="340" y="180" width="440" height="590" as="geometry" />
        </mxCell>
        <mxCell id="YB5v4xmEmm8rpIlrfE_Q-2" value="Iniciar sesiÃ³n" style="ellipse;whiteSpace=wrap;html=1;" parent="YB5v4xmEmm8rpIlrfE_Q-1" vertex="1">
          <mxGeometry x="60" y="30" width="100" height="40" as="geometry" />
        </mxCell>
        <mxCell id="YB5v4xmEmm8rpIlrfE_Q-3" value="Crear cuenta" style="ellipse;whiteSpace=wrap;html=1;" parent="YB5v4xmEmm8rpIlrfE_Q-1" vertex="1">
          <mxGeometry x="60" y="90" width="100" height="40" as="geometry" />
        </mxCell>
        <mxCell id="YB5v4xmEmm8rpIlrfE_Q-7" value="Editar publicacion" style="ellipse;whiteSpace=wrap;html=1;" parent="YB5v4xmEmm8rpIlrfE_Q-1" vertex="1">
          <mxGeometry x="60" y="240" width="100" height="40" as="geometry" />
        </mxCell>
        <mxCell id="YB5v4xmEmm8rpIlrfE_Q-8" value="Validar publicacion" style="ellipse;whiteSpace=wrap;html=1;" parent="YB5v4xmEmm8rpIlrfE_Q-1" vertex="1">
          <mxGeometry x="260" y="190" width="100" height="40" as="geometry" />
        </mxCell>
        <mxCell id="YB5v4xmEmm8rpIlrfE_Q-14" value="Banear usuario" style="ellipse;whiteSpace=wrap;html=1;" parent="YB5v4xmEmm8rpIlrfE_Q-1" vertex="1">
          <mxGeometry x="260" y="310" width="100" height="40" as="geometry" />
        </mxCell>
        <mxCell id="YB5v4xmEmm8rpIlrfE_Q-16" value="Crear publicacion" style="ellipse;whiteSpace=wrap;html=1;" parent="YB5v4xmEmm8rpIlrfE_Q-1" vertex="1">
          <mxGeometry x="60" y="160" width="100" height="40" as="geometry" />
        </mxCell>
        <mxCell id="YB5v4xmEmm8rpIlrfE_Q-22" value="&amp;lt;&amp;lt;include&amp;gt;&amp;gt;" style="html=1;verticalAlign=bottom;labelBackgroundColor=none;endArrow=open;endFill=0;dashed=1;rounded=0;exitX=0.928;exitY=0.88;exitDx=0;exitDy=0;exitPerimeter=0;" parent="YB5v4xmEmm8rpIlrfE_Q-1" source="YB5v4xmEmm8rpIlrfE_Q-16" target="YB5v4xmEmm8rpIlrfE_Q-8" edge="1">
          <mxGeometry width="160" relative="1" as="geometry">
            <mxPoint x="-90" y="328" as="sourcePoint" />
            <mxPoint x="-249" y="310" as="targetPoint" />
          </mxGeometry>
        </mxCell>
        <mxCell id="YB5v4xmEmm8rpIlrfE_Q-23" value="&amp;lt;&amp;lt;include&amp;gt;&amp;gt;" style="html=1;verticalAlign=bottom;labelBackgroundColor=none;endArrow=open;endFill=0;dashed=1;rounded=0;exitX=0.956;exitY=0.29;exitDx=0;exitDy=0;exitPerimeter=0;" parent="YB5v4xmEmm8rpIlrfE_Q-1" source="YB5v4xmEmm8rpIlrfE_Q-7" target="YB5v4xmEmm8rpIlrfE_Q-8" edge="1">
          <mxGeometry width="160" relative="1" as="geometry">
            <mxPoint x="163" y="195" as="sourcePoint" />
            <mxPoint x="231" y="218" as="targetPoint" />
          </mxGeometry>
        </mxCell>
        <mxCell id="YB5v4xmEmm8rpIlrfE_Q-25" value="Reportar publicacion" style="ellipse;whiteSpace=wrap;html=1;" parent="YB5v4xmEmm8rpIlrfE_Q-1" vertex="1">
          <mxGeometry x="60" y="310" width="100" height="40" as="geometry" />
        </mxCell>
        <mxCell id="YB5v4xmEmm8rpIlrfE_Q-28" value="&amp;lt;&amp;lt;include&amp;gt;&amp;gt;" style="html=1;verticalAlign=bottom;labelBackgroundColor=none;endArrow=open;endFill=0;dashed=1;rounded=0;" parent="YB5v4xmEmm8rpIlrfE_Q-1" source="YB5v4xmEmm8rpIlrfE_Q-25" target="YB5v4xmEmm8rpIlrfE_Q-14" edge="1">
          <mxGeometry width="160" relative="1" as="geometry">
            <mxPoint x="166" y="262" as="sourcePoint" />
            <mxPoint x="278" y="231" as="targetPoint" />
          </mxGeometry>
        </mxCell>
        <mxCell id="YB5v4xmEmm8rpIlrfE_Q-29" value="&amp;lt;&amp;lt;include&amp;gt;&amp;gt;" style="html=1;verticalAlign=bottom;labelBackgroundColor=none;endArrow=open;endFill=0;dashed=1;rounded=0;" parent="YB5v4xmEmm8rpIlrfE_Q-1" source="YB5v4xmEmm8rpIlrfE_Q-25" target="YB5v4xmEmm8rpIlrfE_Q-8" edge="1">
          <mxGeometry width="160" relative="1" as="geometry">
            <mxPoint x="170" y="340" as="sourcePoint" />
            <mxPoint x="270" y="340" as="targetPoint" />
          </mxGeometry>
        </mxCell>
        <mxCell id="YB5v4xmEmm8rpIlrfE_Q-30" value="Registrar asistencia" style="ellipse;whiteSpace=wrap;html=1;" parent="YB5v4xmEmm8rpIlrfE_Q-1" vertex="1">
          <mxGeometry x="60" y="384.5" width="100" height="40" as="geometry" />
        </mxCell>
        <mxCell id="ypFGRvN-jaHY_2cM91qV-1" value="Ver publicaciones" style="ellipse;whiteSpace=wrap;html=1;" parent="YB5v4xmEmm8rpIlrfE_Q-1" vertex="1">
          <mxGeometry x="60" y="450" width="100" height="40" as="geometry" />
        </mxCell>
        <mxCell id="Lz4ofKxE1A1Ku1uKn3M0-1" value="Ver notificaciones" style="ellipse;whiteSpace=wrap;html=1;" vertex="1" parent="YB5v4xmEmm8rpIlrfE_Q-1">
          <mxGeometry x="60" y="520" width="100" height="40" as="geometry" />
        </mxCell>
        <mxCell id="YB5v4xmEmm8rpIlrfE_Q-5" style="rounded=0;orthogonalLoop=1;jettySize=auto;html=1;" parent="1" source="YB5v4xmEmm8rpIlrfE_Q-4" target="YB5v4xmEmm8rpIlrfE_Q-2" edge="1">
          <mxGeometry relative="1" as="geometry" />
        </mxCell>
        <mxCell id="YB5v4xmEmm8rpIlrfE_Q-6" style="rounded=0;orthogonalLoop=1;jettySize=auto;html=1;" parent="1" source="YB5v4xmEmm8rpIlrfE_Q-4" target="YB5v4xmEmm8rpIlrfE_Q-3" edge="1">
          <mxGeometry relative="1" as="geometry" />
        </mxCell>
        <mxCell id="YB5v4xmEmm8rpIlrfE_Q-13" style="edgeStyle=none;rounded=0;orthogonalLoop=1;jettySize=auto;html=1;" parent="1" source="YB5v4xmEmm8rpIlrfE_Q-4" target="YB5v4xmEmm8rpIlrfE_Q-7" edge="1">
          <mxGeometry relative="1" as="geometry" />
        </mxCell>
        <mxCell id="YB5v4xmEmm8rpIlrfE_Q-21" style="edgeStyle=none;rounded=0;orthogonalLoop=1;jettySize=auto;html=1;" parent="1" source="YB5v4xmEmm8rpIlrfE_Q-4" target="YB5v4xmEmm8rpIlrfE_Q-16" edge="1">
          <mxGeometry relative="1" as="geometry" />
        </mxCell>
        <mxCell id="YB5v4xmEmm8rpIlrfE_Q-26" style="edgeStyle=none;rounded=0;orthogonalLoop=1;jettySize=auto;html=1;" parent="1" source="YB5v4xmEmm8rpIlrfE_Q-4" target="YB5v4xmEmm8rpIlrfE_Q-25" edge="1">
          <mxGeometry relative="1" as="geometry" />
        </mxCell>
        <mxCell id="YB5v4xmEmm8rpIlrfE_Q-31" style="edgeStyle=none;rounded=0;orthogonalLoop=1;jettySize=auto;html=1;" parent="1" source="YB5v4xmEmm8rpIlrfE_Q-4" target="YB5v4xmEmm8rpIlrfE_Q-30" edge="1">
          <mxGeometry relative="1" as="geometry" />
        </mxCell>
        <mxCell id="ypFGRvN-jaHY_2cM91qV-2" style="rounded=0;orthogonalLoop=1;jettySize=auto;html=1;" parent="1" source="YB5v4xmEmm8rpIlrfE_Q-4" target="ypFGRvN-jaHY_2cM91qV-1" edge="1">
          <mxGeometry relative="1" as="geometry" />
        </mxCell>
        <mxCell id="Lz4ofKxE1A1Ku1uKn3M0-3" style="edgeStyle=none;rounded=0;orthogonalLoop=1;jettySize=auto;html=1;" edge="1" parent="1" source="YB5v4xmEmm8rpIlrfE_Q-4" target="Lz4ofKxE1A1Ku1uKn3M0-1">
          <mxGeometry relative="1" as="geometry" />
        </mxCell>
        <mxCell id="YB5v4xmEmm8rpIlrfE_Q-4" value="Usuario" style="shape=umlActor;verticalLabelPosition=bottom;verticalAlign=top;html=1;" parent="1" vertex="1">
          <mxGeometry x="170" y="440" width="30" height="60" as="geometry" />
        </mxCell>
        <mxCell id="YB5v4xmEmm8rpIlrfE_Q-11" style="edgeStyle=none;rounded=0;orthogonalLoop=1;jettySize=auto;html=1;" parent="1" source="YB5v4xmEmm8rpIlrfE_Q-9" target="YB5v4xmEmm8rpIlrfE_Q-8" edge="1">
          <mxGeometry relative="1" as="geometry" />
        </mxCell>
        <mxCell id="YB5v4xmEmm8rpIlrfE_Q-9" value="Administrador" style="shape=umlActor;verticalLabelPosition=bottom;verticalAlign=top;html=1;" parent="1" vertex="1">
          <mxGeometry x="870" y="360" width="30" height="60" as="geometry" />
        </mxCell>
      </root>
    </mxGraphModel>
  </diagram>
  <diagram id="O3OhJrrK-xl1LcS6J__9" name="Diagrama de secuencia">
    <mxGraphModel dx="1502" dy="615" grid="1" gridSize="10" guides="1" tooltips="1" connect="1" arrows="1" fold="1" page="1" pageScale="1" pageWidth="827" pageHeight="1169" math="0" shadow="0">
      <root>
        <mxCell id="0" />
        <mxCell id="1" parent="0" />
        <mxCell id="HNd4POFvuv3jIKJEFE1z-29" value="" style="group" parent="1" vertex="1" connectable="0">
          <mxGeometry x="55" y="405" width="1055" height="385" as="geometry" />
        </mxCell>
        <mxCell id="YZHrNilRfVziVNNJq4Ag-82" value=":Base de Datos" style="shape=umlLifeline;perimeter=lifelinePerimeter;whiteSpace=wrap;html=1;container=0;dropTarget=0;collapsible=0;recursiveResize=0;outlineConnect=0;portConstraint=eastwest;newEdgeStyle={&quot;curved&quot;:0,&quot;rounded&quot;:0};" parent="HNd4POFvuv3jIKJEFE1z-29" vertex="1">
          <mxGeometry x="955" y="57" width="100" height="310" as="geometry" />
        </mxCell>
        <mxCell id="YZHrNilRfVziVNNJq4Ag-68" value=":WebApp" style="shape=umlLifeline;perimeter=lifelinePerimeter;whiteSpace=wrap;html=1;container=0;dropTarget=0;collapsible=0;recursiveResize=0;outlineConnect=0;portConstraint=eastwest;newEdgeStyle={&quot;curved&quot;:0,&quot;rounded&quot;:0};" parent="HNd4POFvuv3jIKJEFE1z-29" vertex="1">
          <mxGeometry x="335" y="62" width="100" height="310" as="geometry" />
        </mxCell>
        <mxCell id="YZHrNilRfVziVNNJq4Ag-69" value=":ControllPublicacion" style="shape=umlLifeline;perimeter=lifelinePerimeter;whiteSpace=wrap;html=1;container=0;dropTarget=0;collapsible=0;recursiveResize=0;outlineConnect=0;portConstraint=eastwest;newEdgeStyle={&quot;curved&quot;:0,&quot;rounded&quot;:0};" parent="HNd4POFvuv3jIKJEFE1z-29" vertex="1">
          <mxGeometry x="615" y="62" width="120" height="310" as="geometry" />
        </mxCell>
        <mxCell id="YZHrNilRfVziVNNJq4Ag-76" value="Inicar sesion&lt;div&gt;depende del rol de usuario sera&amp;nbsp;&lt;/div&gt;&lt;div&gt;redirigido&amp;nbsp;&lt;span style=&quot;background-color: initial;&quot;&gt;a su ventana correspondiente&lt;/span&gt;&lt;/div&gt;" style="text;html=1;align=center;verticalAlign=middle;resizable=0;points=[];autosize=1;strokeColor=none;fillColor=none;container=0;" parent="HNd4POFvuv3jIKJEFE1z-29" vertex="1">
          <mxGeometry width="230" height="60" as="geometry" />
        </mxCell>
        <mxCell id="YZHrNilRfVziVNNJq4Ag-78" value="" style="shape=umlDestroy;whiteSpace=wrap;html=1;strokeWidth=3;targetShapes=umlLifeline;container=0;" parent="HNd4POFvuv3jIKJEFE1z-29" vertex="1">
          <mxGeometry x="370" y="342" width="30" height="30" as="geometry" />
        </mxCell>
        <mxCell id="YZHrNilRfVziVNNJq4Ag-79" value="" style="html=1;points=[[0,0,0,0,5],[0,1,0,0,-5],[1,0,0,0,5],[1,1,0,0,-5]];perimeter=orthogonalPerimeter;outlineConnect=0;targetShapes=umlLifeline;portConstraint=eastwest;newEdgeStyle={&quot;curved&quot;:0,&quot;rounded&quot;:0};container=0;" parent="HNd4POFvuv3jIKJEFE1z-29" vertex="1">
          <mxGeometry x="380" y="122" width="10" height="180" as="geometry" />
        </mxCell>
        <mxCell id="YZHrNilRfVziVNNJq4Ag-80" value="" style="shape=umlDestroy;whiteSpace=wrap;html=1;strokeWidth=3;targetShapes=umlLifeline;container=0;" parent="HNd4POFvuv3jIKJEFE1z-29" vertex="1">
          <mxGeometry x="660" y="342" width="30" height="30" as="geometry" />
        </mxCell>
        <mxCell id="YZHrNilRfVziVNNJq4Ag-81" value="" style="html=1;points=[[0,0,0,0,5],[0,1,0,0,-5],[1,0,0,0,5],[1,1,0,0,-5]];perimeter=orthogonalPerimeter;outlineConnect=0;targetShapes=umlLifeline;portConstraint=eastwest;newEdgeStyle={&quot;curved&quot;:0,&quot;rounded&quot;:0};container=0;" parent="HNd4POFvuv3jIKJEFE1z-29" vertex="1">
          <mxGeometry x="670" y="112" width="10" height="200" as="geometry" />
        </mxCell>
        <mxCell id="YZHrNilRfVziVNNJq4Ag-83" value="" style="shape=umlDestroy;whiteSpace=wrap;html=1;strokeWidth=3;targetShapes=umlLifeline;container=0;" parent="HNd4POFvuv3jIKJEFE1z-29" vertex="1">
          <mxGeometry x="990" y="337" width="30" height="30" as="geometry" />
        </mxCell>
        <mxCell id="YZHrNilRfVziVNNJq4Ag-84" value="" style="html=1;points=[[0,0,0,0,5],[0,1,0,0,-5],[1,0,0,0,5],[1,1,0,0,-5]];perimeter=orthogonalPerimeter;outlineConnect=0;targetShapes=umlLifeline;portConstraint=eastwest;newEdgeStyle={&quot;curved&quot;:0,&quot;rounded&quot;:0};container=0;" parent="HNd4POFvuv3jIKJEFE1z-29" vertex="1">
          <mxGeometry x="1000" y="117" width="10" height="180" as="geometry" />
        </mxCell>
        <mxCell id="HNd4POFvuv3jIKJEFE1z-19" style="edgeStyle=none;rounded=0;orthogonalLoop=1;jettySize=auto;html=1;curved=0;dashed=1;" parent="HNd4POFvuv3jIKJEFE1z-29" source="YZHrNilRfVziVNNJq4Ag-79" target="MGvyvknxnzZaCFpuz8zz-7" edge="1">
          <mxGeometry relative="1" as="geometry">
            <mxPoint x="84.44736842105249" y="185" as="targetPoint" />
            <Array as="points">
              <mxPoint x="245" y="185" />
            </Array>
          </mxGeometry>
        </mxCell>
        <mxCell id="HNd4POFvuv3jIKJEFE1z-20" value="Sistema fuera de srevicio" style="edgeLabel;html=1;align=center;verticalAlign=middle;resizable=0;points=[];" parent="HNd4POFvuv3jIKJEFE1z-19" vertex="1" connectable="0">
          <mxGeometry x="0.0085" y="-3" relative="1" as="geometry">
            <mxPoint y="-7" as="offset" />
          </mxGeometry>
        </mxCell>
        <mxCell id="HNd4POFvuv3jIKJEFE1z-21" style="edgeStyle=none;rounded=0;orthogonalLoop=1;jettySize=auto;html=1;curved=0;dashed=1;" parent="HNd4POFvuv3jIKJEFE1z-29" source="YZHrNilRfVziVNNJq4Ag-79" target="MGvyvknxnzZaCFpuz8zz-7" edge="1">
          <mxGeometry relative="1" as="geometry">
            <mxPoint x="84.44736842105249" y="225" as="targetPoint" />
            <Array as="points">
              <mxPoint x="315" y="225" />
            </Array>
          </mxGeometry>
        </mxCell>
        <mxCell id="HNd4POFvuv3jIKJEFE1z-22" value="Credenciales&amp;nbsp;incorrectos" style="edgeLabel;html=1;align=center;verticalAlign=middle;resizable=0;points=[];" parent="HNd4POFvuv3jIKJEFE1z-21" vertex="1" connectable="0">
          <mxGeometry x="0.0017" y="2" relative="1" as="geometry">
            <mxPoint x="3" y="-10" as="offset" />
          </mxGeometry>
        </mxCell>
        <mxCell id="HNd4POFvuv3jIKJEFE1z-27" style="edgeStyle=none;rounded=0;orthogonalLoop=1;jettySize=auto;html=1;curved=0;dashed=1;" parent="HNd4POFvuv3jIKJEFE1z-29" source="YZHrNilRfVziVNNJq4Ag-79" target="MGvyvknxnzZaCFpuz8zz-7" edge="1">
          <mxGeometry relative="1" as="geometry">
            <mxPoint x="84.44736842105249" y="255" as="targetPoint" />
            <Array as="points">
              <mxPoint x="235" y="255" />
            </Array>
          </mxGeometry>
        </mxCell>
        <mxCell id="HNd4POFvuv3jIKJEFE1z-28" value="&amp;lt;&amp;lt;http redirect&amp;gt;&amp;gt;" style="edgeLabel;html=1;align=center;verticalAlign=middle;resizable=0;points=[];" parent="HNd4POFvuv3jIKJEFE1z-27" vertex="1" connectable="0">
          <mxGeometry x="0.0694" relative="1" as="geometry">
            <mxPoint as="offset" />
          </mxGeometry>
        </mxCell>
        <mxCell id="HNd4POFvuv3jIKJEFE1z-5" style="edgeStyle=none;rounded=0;orthogonalLoop=1;jettySize=auto;html=1;curved=0;" parent="HNd4POFvuv3jIKJEFE1z-29" edge="1">
          <mxGeometry relative="1" as="geometry">
            <mxPoint x="680" y="145" as="sourcePoint" />
            <mxPoint x="1004.5" y="145" as="targetPoint" />
          </mxGeometry>
        </mxCell>
        <mxCell id="HNd4POFvuv3jIKJEFE1z-7" value="searchUser(username, password)" style="edgeLabel;html=1;align=center;verticalAlign=middle;resizable=0;points=[];" parent="HNd4POFvuv3jIKJEFE1z-5" vertex="1" connectable="0">
          <mxGeometry x="-0.004" y="-2" relative="1" as="geometry">
            <mxPoint y="-12" as="offset" />
          </mxGeometry>
        </mxCell>
        <mxCell id="HNd4POFvuv3jIKJEFE1z-14" value="&lt;span style=&quot;color: rgb(0, 0, 0); font-family: Helvetica; font-size: 11px; font-style: normal; font-variant-ligatures: normal; font-variant-caps: normal; font-weight: 400; letter-spacing: normal; orphans: 2; text-align: center; text-indent: 0px; text-transform: none; widows: 2; word-spacing: 0px; -webkit-text-stroke-width: 0px; white-space: nowrap; background-color: rgb(255, 255, 255); text-decoration-thickness: initial; text-decoration-style: initial; text-decoration-color: initial; display: inline !important; float: none;&quot;&gt;No hay conexion al sistema&lt;/span&gt;" style="edgeStyle=none;rounded=0;orthogonalLoop=1;jettySize=auto;html=1;curved=0;dashed=1;" parent="HNd4POFvuv3jIKJEFE1z-29" source="YZHrNilRfVziVNNJq4Ag-81" target="YZHrNilRfVziVNNJq4Ag-79" edge="1">
          <mxGeometry x="-0.0357" y="-10" relative="1" as="geometry">
            <Array as="points">
              <mxPoint x="525" y="185" />
            </Array>
            <mxPoint as="offset" />
          </mxGeometry>
        </mxCell>
        <mxCell id="HNd4POFvuv3jIKJEFE1z-15" style="edgeStyle=none;rounded=0;orthogonalLoop=1;jettySize=auto;html=1;curved=0;dashed=1;" parent="HNd4POFvuv3jIKJEFE1z-29" edge="1">
          <mxGeometry relative="1" as="geometry">
            <mxPoint x="675.5" y="225" as="sourcePoint" />
            <mxPoint x="390" y="225" as="targetPoint" />
          </mxGeometry>
        </mxCell>
        <mxCell id="HNd4POFvuv3jIKJEFE1z-17" value="Credenciales&amp;nbsp;incorrectos" style="edgeLabel;html=1;align=center;verticalAlign=middle;resizable=0;points=[];" parent="HNd4POFvuv3jIKJEFE1z-15" vertex="1" connectable="0">
          <mxGeometry x="0.0403" y="1" relative="1" as="geometry">
            <mxPoint x="1" y="-14" as="offset" />
          </mxGeometry>
        </mxCell>
        <mxCell id="HNd4POFvuv3jIKJEFE1z-25" style="edgeStyle=none;rounded=0;orthogonalLoop=1;jettySize=auto;html=1;curved=0;" parent="HNd4POFvuv3jIKJEFE1z-29" source="YZHrNilRfVziVNNJq4Ag-81" target="YZHrNilRfVziVNNJq4Ag-79" edge="1">
          <mxGeometry relative="1" as="geometry">
            <mxPoint x="395" y="255" as="targetPoint" />
            <Array as="points">
              <mxPoint x="505" y="255" />
            </Array>
          </mxGeometry>
        </mxCell>
        <mxCell id="HNd4POFvuv3jIKJEFE1z-26" value="acceso permitido" style="edgeLabel;html=1;align=center;verticalAlign=middle;resizable=0;points=[];" parent="HNd4POFvuv3jIKJEFE1z-25" vertex="1" connectable="0">
          <mxGeometry x="-0.0403" y="-1" relative="1" as="geometry">
            <mxPoint y="-9" as="offset" />
          </mxGeometry>
        </mxCell>
        <mxCell id="HNd4POFvuv3jIKJEFE1z-8" style="edgeStyle=none;rounded=0;orthogonalLoop=1;jettySize=auto;html=1;curved=0;endArrow=open;endFill=0;dashed=1;" parent="HNd4POFvuv3jIKJEFE1z-29" source="YZHrNilRfVziVNNJq4Ag-84" target="YZHrNilRfVziVNNJq4Ag-69" edge="1">
          <mxGeometry relative="1" as="geometry">
            <Array as="points">
              <mxPoint x="845" y="185" />
            </Array>
          </mxGeometry>
        </mxCell>
        <mxCell id="HNd4POFvuv3jIKJEFE1z-11" value="No hay conexion al sistema" style="edgeLabel;html=1;align=center;verticalAlign=middle;resizable=0;points=[];" parent="HNd4POFvuv3jIKJEFE1z-8" vertex="1" connectable="0">
          <mxGeometry x="-0.1803" y="-2" relative="1" as="geometry">
            <mxPoint x="-42" y="-10" as="offset" />
          </mxGeometry>
        </mxCell>
        <mxCell id="HNd4POFvuv3jIKJEFE1z-12" style="edgeStyle=none;rounded=0;orthogonalLoop=1;jettySize=auto;html=1;curved=0;dashed=1;endArrow=open;endFill=0;" parent="HNd4POFvuv3jIKJEFE1z-29" edge="1">
          <mxGeometry relative="1" as="geometry">
            <mxPoint x="1000" y="225" as="sourcePoint" />
            <mxPoint x="674.5" y="225" as="targetPoint" />
          </mxGeometry>
        </mxCell>
        <mxCell id="HNd4POFvuv3jIKJEFE1z-13" value="Credenciales incorrectos" style="edgeLabel;html=1;align=center;verticalAlign=middle;resizable=0;points=[];" parent="HNd4POFvuv3jIKJEFE1z-12" vertex="1" connectable="0">
          <mxGeometry x="-0.0206" y="-1" relative="1" as="geometry">
            <mxPoint y="-12" as="offset" />
          </mxGeometry>
        </mxCell>
        <mxCell id="HNd4POFvuv3jIKJEFE1z-23" style="edgeStyle=none;rounded=0;orthogonalLoop=1;jettySize=auto;html=1;curved=0;endArrow=open;endFill=0;" parent="HNd4POFvuv3jIKJEFE1z-29" source="YZHrNilRfVziVNNJq4Ag-84" target="YZHrNilRfVziVNNJq4Ag-69" edge="1">
          <mxGeometry relative="1" as="geometry">
            <Array as="points">
              <mxPoint x="905" y="255" />
            </Array>
          </mxGeometry>
        </mxCell>
        <mxCell id="HNd4POFvuv3jIKJEFE1z-24" value="acceso permitido" style="edgeLabel;html=1;align=center;verticalAlign=middle;resizable=0;points=[];" parent="HNd4POFvuv3jIKJEFE1z-23" vertex="1" connectable="0">
          <mxGeometry x="-0.0476" y="-1" relative="1" as="geometry">
            <mxPoint y="-9" as="offset" />
          </mxGeometry>
        </mxCell>
        <mxCell id="YZHrNilRfVziVNNJq4Ag-113" style="edgeStyle=none;rounded=0;orthogonalLoop=1;jettySize=auto;html=1;curved=0;" parent="HNd4POFvuv3jIKJEFE1z-29" source="MGvyvknxnzZaCFpuz8zz-7" target="YZHrNilRfVziVNNJq4Ag-79" edge="1">
          <mxGeometry relative="1" as="geometry">
            <mxPoint x="84.44736842105249" y="145" as="sourcePoint" />
            <Array as="points">
              <mxPoint x="235" y="145" />
            </Array>
          </mxGeometry>
        </mxCell>
        <mxCell id="YZHrNilRfVziVNNJq4Ag-114" value="inicarSesion(username, password)" style="edgeLabel;html=1;align=center;verticalAlign=middle;resizable=0;points=[];container=0;" parent="YZHrNilRfVziVNNJq4Ag-113" vertex="1" connectable="0">
          <mxGeometry x="-0.0667" y="2" relative="1" as="geometry">
            <mxPoint y="-8" as="offset" />
          </mxGeometry>
        </mxCell>
        <mxCell id="HNd4POFvuv3jIKJEFE1z-3" style="edgeStyle=none;rounded=0;orthogonalLoop=1;jettySize=auto;html=1;curved=0;" parent="HNd4POFvuv3jIKJEFE1z-29" target="YZHrNilRfVziVNNJq4Ag-69" edge="1">
          <mxGeometry relative="1" as="geometry">
            <mxPoint x="390" y="145" as="sourcePoint" />
            <mxPoint x="615" y="155" as="targetPoint" />
          </mxGeometry>
        </mxCell>
        <mxCell id="HNd4POFvuv3jIKJEFE1z-4" value="searchUser(username, password)" style="edgeLabel;html=1;align=center;verticalAlign=middle;resizable=0;points=[];" parent="HNd4POFvuv3jIKJEFE1z-3" vertex="1" connectable="0">
          <mxGeometry x="-0.0993" y="1" relative="1" as="geometry">
            <mxPoint x="-1" y="-9" as="offset" />
          </mxGeometry>
        </mxCell>
        <mxCell id="MGvyvknxnzZaCFpuz8zz-7" value="" style="shape=umlLifeline;perimeter=lifelinePerimeter;whiteSpace=wrap;html=1;container=1;dropTarget=0;collapsible=0;recursiveResize=0;outlineConnect=0;portConstraint=eastwest;newEdgeStyle={&quot;curved&quot;:0,&quot;rounded&quot;:0};participant=umlActor;" parent="HNd4POFvuv3jIKJEFE1z-29" vertex="1">
          <mxGeometry x="75" y="75" width="25" height="310" as="geometry" />
        </mxCell>
        <mxCell id="MGvyvknxnzZaCFpuz8zz-8" value="" style="shape=umlDestroy;whiteSpace=wrap;html=1;strokeWidth=3;targetShapes=umlLifeline;container=0;" parent="MGvyvknxnzZaCFpuz8zz-7" vertex="1">
          <mxGeometry x="-5" y="280" width="30" height="30" as="geometry" />
        </mxCell>
        <mxCell id="DaFaZrh-YAW7vITb1Vmp-87" value="" style="group" parent="1" vertex="1" connectable="0">
          <mxGeometry x="100" y="1380" width="1020" height="410" as="geometry" />
        </mxCell>
        <mxCell id="DaFaZrh-YAW7vITb1Vmp-1" value=":Base de Datos" style="shape=umlLifeline;perimeter=lifelinePerimeter;whiteSpace=wrap;html=1;container=0;dropTarget=0;collapsible=0;recursiveResize=0;outlineConnect=0;portConstraint=eastwest;newEdgeStyle={&quot;curved&quot;:0,&quot;rounded&quot;:0};" parent="DaFaZrh-YAW7vITb1Vmp-87" vertex="1">
          <mxGeometry x="920" y="42" width="100" height="348" as="geometry" />
        </mxCell>
        <mxCell id="DaFaZrh-YAW7vITb1Vmp-21" value="" style="html=1;points=[[0,0,0,0,5],[0,1,0,0,-5],[1,0,0,0,5],[1,1,0,0,-5]];perimeter=orthogonalPerimeter;outlineConnect=0;targetShapes=umlLifeline;portConstraint=eastwest;newEdgeStyle={&quot;curved&quot;:0,&quot;rounded&quot;:0};container=0;" parent="DaFaZrh-YAW7vITb1Vmp-1" vertex="1">
          <mxGeometry x="45" y="148" width="10" height="160" as="geometry" />
        </mxCell>
        <mxCell id="DaFaZrh-YAW7vITb1Vmp-2" value="" style="shape=umlDestroy;whiteSpace=wrap;html=1;strokeWidth=3;targetShapes=umlLifeline;container=0;" parent="DaFaZrh-YAW7vITb1Vmp-1" vertex="1">
          <mxGeometry x="35" y="318" width="30" height="30" as="geometry" />
        </mxCell>
        <mxCell id="DaFaZrh-YAW7vITb1Vmp-6" value=":WebApp" style="shape=umlLifeline;perimeter=lifelinePerimeter;whiteSpace=wrap;html=1;container=0;dropTarget=0;collapsible=0;recursiveResize=0;outlineConnect=0;portConstraint=eastwest;newEdgeStyle={&quot;curved&quot;:0,&quot;rounded&quot;:0};" parent="DaFaZrh-YAW7vITb1Vmp-87" vertex="1">
          <mxGeometry x="300" y="47" width="100" height="363" as="geometry" />
        </mxCell>
        <mxCell id="DaFaZrh-YAW7vITb1Vmp-8" value="" style="shape=umlDestroy;whiteSpace=wrap;html=1;strokeWidth=3;targetShapes=umlLifeline;container=0;" parent="DaFaZrh-YAW7vITb1Vmp-6" vertex="1">
          <mxGeometry x="35" y="333" width="30" height="30" as="geometry" />
        </mxCell>
        <mxCell id="DaFaZrh-YAW7vITb1Vmp-11" value=":ControllPublicacion" style="shape=umlLifeline;perimeter=lifelinePerimeter;whiteSpace=wrap;html=1;container=0;dropTarget=0;collapsible=0;recursiveResize=0;outlineConnect=0;portConstraint=eastwest;newEdgeStyle={&quot;curved&quot;:0,&quot;rounded&quot;:0};" parent="DaFaZrh-YAW7vITb1Vmp-87" vertex="1">
          <mxGeometry x="580" y="47" width="120" height="357" as="geometry" />
        </mxCell>
        <mxCell id="DaFaZrh-YAW7vITb1Vmp-13" value="" style="shape=umlDestroy;whiteSpace=wrap;html=1;strokeWidth=3;targetShapes=umlLifeline;container=0;" parent="DaFaZrh-YAW7vITb1Vmp-11" vertex="1">
          <mxGeometry x="45" y="327" width="30" height="30" as="geometry" />
        </mxCell>
        <mxCell id="DaFaZrh-YAW7vITb1Vmp-16" value="Crear publicacion" style="text;html=1;align=center;verticalAlign=middle;resizable=0;points=[];autosize=1;strokeColor=none;fillColor=none;container=0;" parent="DaFaZrh-YAW7vITb1Vmp-87" vertex="1">
          <mxGeometry x="20" width="120" height="30" as="geometry" />
        </mxCell>
        <mxCell id="DaFaZrh-YAW7vITb1Vmp-17" value="" style="html=1;points=[[0,0,0,0,5],[0,1,0,0,-5],[1,0,0,0,5],[1,1,0,0,-5]];perimeter=orthogonalPerimeter;outlineConnect=0;targetShapes=umlLifeline;portConstraint=eastwest;newEdgeStyle={&quot;curved&quot;:0,&quot;rounded&quot;:0};container=0;" parent="DaFaZrh-YAW7vITb1Vmp-87" vertex="1">
          <mxGeometry x="345" y="107" width="10" height="73" as="geometry" />
        </mxCell>
        <mxCell id="DaFaZrh-YAW7vITb1Vmp-18" value="" style="html=1;points=[[0,0,0,0,5],[0,1,0,0,-5],[1,0,0,0,5],[1,1,0,0,-5]];perimeter=orthogonalPerimeter;outlineConnect=0;targetShapes=umlLifeline;portConstraint=eastwest;newEdgeStyle={&quot;curved&quot;:0,&quot;rounded&quot;:0};container=0;" parent="DaFaZrh-YAW7vITb1Vmp-87" vertex="1">
          <mxGeometry x="635" y="200" width="10" height="60" as="geometry" />
        </mxCell>
        <mxCell id="DaFaZrh-YAW7vITb1Vmp-26" style="edgeStyle=none;rounded=0;orthogonalLoop=1;jettySize=auto;html=1;curved=0;" parent="DaFaZrh-YAW7vITb1Vmp-87" source="MGvyvknxnzZaCFpuz8zz-12" target="DaFaZrh-YAW7vITb1Vmp-6" edge="1">
          <mxGeometry relative="1" as="geometry">
            <Array as="points">
              <mxPoint x="210" y="130" />
            </Array>
            <mxPoint x="49.25000000000023" y="130" as="sourcePoint" />
          </mxGeometry>
        </mxCell>
        <mxCell id="DaFaZrh-YAW7vITb1Vmp-27" value="1. CrearPublicacion" style="edgeLabel;html=1;align=center;verticalAlign=middle;resizable=0;points=[];container=0;" parent="DaFaZrh-YAW7vITb1Vmp-26" vertex="1" connectable="0">
          <mxGeometry x="-0.11" relative="1" as="geometry">
            <mxPoint as="offset" />
          </mxGeometry>
        </mxCell>
        <mxCell id="DaFaZrh-YAW7vITb1Vmp-28" style="edgeStyle=none;rounded=0;orthogonalLoop=1;jettySize=auto;html=1;curved=0;" parent="DaFaZrh-YAW7vITb1Vmp-87" source="MGvyvknxnzZaCFpuz8zz-12" target="DaFaZrh-YAW7vITb1Vmp-6" edge="1">
          <mxGeometry relative="1" as="geometry">
            <Array as="points">
              <mxPoint x="190" y="220" />
            </Array>
            <mxPoint x="49.25000000000023" y="220" as="sourcePoint" />
          </mxGeometry>
        </mxCell>
        <mxCell id="DaFaZrh-YAW7vITb1Vmp-29" value="3. IngresarDatos(...)" style="edgeLabel;html=1;align=center;verticalAlign=middle;resizable=0;points=[];container=0;" parent="DaFaZrh-YAW7vITb1Vmp-28" vertex="1" connectable="0">
          <mxGeometry x="-0.05" y="1" relative="1" as="geometry">
            <mxPoint as="offset" />
          </mxGeometry>
        </mxCell>
        <mxCell id="DaFaZrh-YAW7vITb1Vmp-30" style="edgeStyle=none;rounded=0;orthogonalLoop=1;jettySize=auto;html=1;curved=0;" parent="DaFaZrh-YAW7vITb1Vmp-87" source="DaFaZrh-YAW7vITb1Vmp-18" edge="1">
          <mxGeometry relative="1" as="geometry">
            <mxPoint x="650" y="220" as="sourcePoint" />
            <mxPoint x="965" y="220" as="targetPoint" />
          </mxGeometry>
        </mxCell>
        <mxCell id="DaFaZrh-YAW7vITb1Vmp-31" value="6. EnviarDatos(...)" style="edgeLabel;html=1;align=center;verticalAlign=middle;resizable=0;points=[];container=0;" parent="DaFaZrh-YAW7vITb1Vmp-30" vertex="1" connectable="0">
          <mxGeometry x="-0.0656" y="-1" relative="1" as="geometry">
            <mxPoint as="offset" />
          </mxGeometry>
        </mxCell>
        <mxCell id="DaFaZrh-YAW7vITb1Vmp-32" style="edgeStyle=none;rounded=0;orthogonalLoop=1;jettySize=auto;html=1;curved=0;" parent="DaFaZrh-YAW7vITb1Vmp-87" edge="1">
          <mxGeometry relative="1" as="geometry">
            <mxPoint x="355" y="220" as="sourcePoint" />
            <mxPoint x="639.5" y="220" as="targetPoint" />
          </mxGeometry>
        </mxCell>
        <mxCell id="DaFaZrh-YAW7vITb1Vmp-33" value="4. EnviarDatos(...)" style="edgeLabel;html=1;align=center;verticalAlign=middle;resizable=0;points=[];container=0;" parent="DaFaZrh-YAW7vITb1Vmp-32" vertex="1" connectable="0">
          <mxGeometry x="-0.0397" y="-2" relative="1" as="geometry">
            <mxPoint as="offset" />
          </mxGeometry>
        </mxCell>
        <mxCell id="DaFaZrh-YAW7vITb1Vmp-36" value="2. MostrarCampos" style="html=1;align=left;spacingLeft=2;endArrow=block;rounded=0;edgeStyle=orthogonalEdgeStyle;curved=0;rounded=0;" parent="DaFaZrh-YAW7vITb1Vmp-87" source="DaFaZrh-YAW7vITb1Vmp-17" target="DaFaZrh-YAW7vITb1Vmp-23" edge="1">
          <mxGeometry relative="1" as="geometry">
            <mxPoint x="360" y="113.5" as="sourcePoint" />
            <Array as="points">
              <mxPoint x="390" y="144" />
              <mxPoint x="390" y="154" />
            </Array>
          </mxGeometry>
        </mxCell>
        <mxCell id="DaFaZrh-YAW7vITb1Vmp-37" style="edgeStyle=none;rounded=0;orthogonalLoop=1;jettySize=auto;html=1;curved=0;" parent="DaFaZrh-YAW7vITb1Vmp-87" source="DaFaZrh-YAW7vITb1Vmp-21" target="DaFaZrh-YAW7vITb1Vmp-14" edge="1">
          <mxGeometry relative="1" as="geometry">
            <mxPoint x="950" y="300" as="sourcePoint" />
            <Array as="points">
              <mxPoint x="800" y="300" />
            </Array>
          </mxGeometry>
        </mxCell>
        <mxCell id="DaFaZrh-YAW7vITb1Vmp-38" value="7. PublicacionGuardada" style="edgeLabel;html=1;align=center;verticalAlign=middle;resizable=0;points=[];container=0;" parent="DaFaZrh-YAW7vITb1Vmp-37" vertex="1" connectable="0">
          <mxGeometry x="0.0673" relative="1" as="geometry">
            <mxPoint as="offset" />
          </mxGeometry>
        </mxCell>
        <mxCell id="DaFaZrh-YAW7vITb1Vmp-39" style="edgeStyle=none;rounded=0;orthogonalLoop=1;jettySize=auto;html=1;curved=0;" parent="DaFaZrh-YAW7vITb1Vmp-87" source="DaFaZrh-YAW7vITb1Vmp-14" target="DaFaZrh-YAW7vITb1Vmp-9" edge="1">
          <mxGeometry relative="1" as="geometry">
            <Array as="points">
              <mxPoint x="500" y="300" />
            </Array>
          </mxGeometry>
        </mxCell>
        <mxCell id="DaFaZrh-YAW7vITb1Vmp-40" value="8. PublicacionGuardada" style="edgeLabel;html=1;align=center;verticalAlign=middle;resizable=0;points=[];container=0;" parent="DaFaZrh-YAW7vITb1Vmp-39" vertex="1" connectable="0">
          <mxGeometry x="0.0658" relative="1" as="geometry">
            <mxPoint as="offset" />
          </mxGeometry>
        </mxCell>
        <mxCell id="DaFaZrh-YAW7vITb1Vmp-41" style="edgeStyle=none;rounded=0;orthogonalLoop=1;jettySize=auto;html=1;curved=0;" parent="DaFaZrh-YAW7vITb1Vmp-87" source="DaFaZrh-YAW7vITb1Vmp-9" target="DaFaZrh-YAW7vITb1Vmp-25" edge="1">
          <mxGeometry relative="1" as="geometry" />
        </mxCell>
        <mxCell id="DaFaZrh-YAW7vITb1Vmp-42" value="9. PublicacionGuardada" style="edgeLabel;html=1;align=center;verticalAlign=middle;resizable=0;points=[];container=0;" parent="DaFaZrh-YAW7vITb1Vmp-41" vertex="1" connectable="0">
          <mxGeometry x="0.0409" y="1" relative="1" as="geometry">
            <mxPoint as="offset" />
          </mxGeometry>
        </mxCell>
        <mxCell id="DaFaZrh-YAW7vITb1Vmp-7" value="" style="html=1;points=[[0,0,0,0,5],[0,1,0,0,-5],[1,0,0,0,5],[1,1,0,0,-5]];perimeter=orthogonalPerimeter;outlineConnect=0;targetShapes=umlLifeline;portConstraint=eastwest;newEdgeStyle={&quot;curved&quot;:0,&quot;rounded&quot;:0};container=0;" parent="DaFaZrh-YAW7vITb1Vmp-87" vertex="1">
          <mxGeometry x="345" y="190" width="10" height="57" as="geometry" />
        </mxCell>
        <mxCell id="DaFaZrh-YAW7vITb1Vmp-9" value="" style="html=1;points=[[0,0,0,0,5],[0,1,0,0,-5],[1,0,0,0,5],[1,1,0,0,-5]];perimeter=orthogonalPerimeter;outlineConnect=0;targetShapes=umlLifeline;portConstraint=eastwest;newEdgeStyle={&quot;curved&quot;:0,&quot;rounded&quot;:0};container=0;" parent="DaFaZrh-YAW7vITb1Vmp-87" vertex="1">
          <mxGeometry x="345" y="287" width="10" height="29.5" as="geometry" />
        </mxCell>
        <mxCell id="DaFaZrh-YAW7vITb1Vmp-14" value="" style="html=1;points=[[0,0,0,0,5],[0,1,0,0,-5],[1,0,0,0,5],[1,1,0,0,-5]];perimeter=orthogonalPerimeter;outlineConnect=0;targetShapes=umlLifeline;portConstraint=eastwest;newEdgeStyle={&quot;curved&quot;:0,&quot;rounded&quot;:0};container=0;" parent="DaFaZrh-YAW7vITb1Vmp-87" vertex="1">
          <mxGeometry x="635" y="290" width="10" height="37" as="geometry" />
        </mxCell>
        <mxCell id="DaFaZrh-YAW7vITb1Vmp-23" value="" style="html=1;points=[[0,0,0,0,5],[0,1,0,0,-5],[1,0,0,0,5],[1,1,0,0,-5]];perimeter=orthogonalPerimeter;outlineConnect=0;targetShapes=umlLifeline;portConstraint=eastwest;newEdgeStyle={&quot;curved&quot;:0,&quot;rounded&quot;:0};container=0;" parent="DaFaZrh-YAW7vITb1Vmp-87" vertex="1">
          <mxGeometry x="355" y="133.5" width="10" height="40" as="geometry" />
        </mxCell>
        <mxCell id="MGvyvknxnzZaCFpuz8zz-12" value="" style="shape=umlLifeline;perimeter=lifelinePerimeter;whiteSpace=wrap;html=1;container=1;dropTarget=0;collapsible=0;recursiveResize=0;outlineConnect=0;portConstraint=eastwest;newEdgeStyle={&quot;curved&quot;:0,&quot;rounded&quot;:0};participant=umlActor;" parent="DaFaZrh-YAW7vITb1Vmp-87" vertex="1">
          <mxGeometry x="40" y="61" width="25" height="349" as="geometry" />
        </mxCell>
        <mxCell id="MGvyvknxnzZaCFpuz8zz-13" value="" style="shape=umlDestroy;whiteSpace=wrap;html=1;strokeWidth=3;targetShapes=umlLifeline;container=0;" parent="MGvyvknxnzZaCFpuz8zz-12" vertex="1">
          <mxGeometry x="-2.5" y="319" width="30" height="30" as="geometry" />
        </mxCell>
        <mxCell id="DaFaZrh-YAW7vITb1Vmp-25" value="" style="html=1;points=[[0,0,0,0,5],[0,1,0,0,-5],[1,0,0,0,5],[1,1,0,0,-5]];perimeter=orthogonalPerimeter;outlineConnect=0;targetShapes=umlLifeline;portConstraint=eastwest;newEdgeStyle={&quot;curved&quot;:0,&quot;rounded&quot;:0};container=0;" parent="MGvyvknxnzZaCFpuz8zz-12" vertex="1">
          <mxGeometry x="7.5" y="226" width="10" height="35" as="geometry" />
        </mxCell>
        <mxCell id="YZHrNilRfVziVNNJq4Ag-47" value=":Base de Datos" style="shape=umlLifeline;perimeter=lifelinePerimeter;whiteSpace=wrap;html=1;container=0;dropTarget=0;collapsible=0;recursiveResize=0;outlineConnect=0;portConstraint=eastwest;newEdgeStyle={&quot;curved&quot;:0,&quot;rounded&quot;:0};" parent="1" vertex="1">
          <mxGeometry x="1000" y="60" width="100" height="310" as="geometry" />
        </mxCell>
        <mxCell id="YZHrNilRfVziVNNJq4Ag-52" style="edgeStyle=none;rounded=0;orthogonalLoop=1;jettySize=auto;html=1;curved=0;" parent="1" source="YZHrNilRfVziVNNJq4Ag-46" target="YZHrNilRfVziVNNJq4Ag-49" edge="1">
          <mxGeometry relative="1" as="geometry">
            <Array as="points">
              <mxPoint x="840" y="170" />
            </Array>
          </mxGeometry>
        </mxCell>
        <mxCell id="YZHrNilRfVziVNNJq4Ag-53" value="pedir lista publicaciones()" style="edgeLabel;html=1;align=center;verticalAlign=middle;resizable=0;points=[];container=0;" parent="YZHrNilRfVziVNNJq4Ag-52" vertex="1" connectable="0">
          <mxGeometry x="-0.1" y="1" relative="1" as="geometry">
            <mxPoint y="-9" as="offset" />
          </mxGeometry>
        </mxCell>
        <mxCell id="YZHrNilRfVziVNNJq4Ag-54" style="edgeStyle=none;rounded=0;orthogonalLoop=1;jettySize=auto;html=1;curved=0;" parent="1" source="YZHrNilRfVziVNNJq4Ag-49" target="YZHrNilRfVziVNNJq4Ag-44" edge="1">
          <mxGeometry relative="1" as="geometry" />
        </mxCell>
        <mxCell id="YZHrNilRfVziVNNJq4Ag-56" value="lista publicacioens" style="edgeLabel;html=1;align=center;verticalAlign=middle;resizable=0;points=[];container=0;" parent="YZHrNilRfVziVNNJq4Ag-54" vertex="1" connectable="0">
          <mxGeometry x="-0.1042" relative="1" as="geometry">
            <mxPoint x="-4" y="-10" as="offset" />
          </mxGeometry>
        </mxCell>
        <mxCell id="Jdp6D8dy_kaWsdTqo7Du-3" value=":WebApp" style="shape=umlLifeline;perimeter=lifelinePerimeter;whiteSpace=wrap;html=1;container=0;dropTarget=0;collapsible=0;recursiveResize=0;outlineConnect=0;portConstraint=eastwest;newEdgeStyle={&quot;curved&quot;:0,&quot;rounded&quot;:0};" parent="1" vertex="1">
          <mxGeometry x="380" y="65" width="100" height="310" as="geometry" />
        </mxCell>
        <mxCell id="YZHrNilRfVziVNNJq4Ag-44" value=":ControllPublicacion" style="shape=umlLifeline;perimeter=lifelinePerimeter;whiteSpace=wrap;html=1;container=0;dropTarget=0;collapsible=0;recursiveResize=0;outlineConnect=0;portConstraint=eastwest;newEdgeStyle={&quot;curved&quot;:0,&quot;rounded&quot;:0};" parent="1" vertex="1">
          <mxGeometry x="660" y="65" width="120" height="310" as="geometry" />
        </mxCell>
        <mxCell id="YZHrNilRfVziVNNJq4Ag-61" value="Ingresar a la pÃ¡gina de publicacioes" style="text;html=1;align=center;verticalAlign=middle;resizable=0;points=[];autosize=1;strokeColor=none;fillColor=none;container=0;" parent="1" vertex="1">
          <mxGeometry x="50" y="18" width="220" height="30" as="geometry" />
        </mxCell>
        <mxCell id="YZHrNilRfVziVNNJq4Ag-33" value="" style="shape=umlDestroy;whiteSpace=wrap;html=1;strokeWidth=3;targetShapes=umlLifeline;container=0;" parent="1" vertex="1">
          <mxGeometry x="415" y="345" width="30" height="30" as="geometry" />
        </mxCell>
        <mxCell id="YZHrNilRfVziVNNJq4Ag-35" value="" style="html=1;points=[[0,0,0,0,5],[0,1,0,0,-5],[1,0,0,0,5],[1,1,0,0,-5]];perimeter=orthogonalPerimeter;outlineConnect=0;targetShapes=umlLifeline;portConstraint=eastwest;newEdgeStyle={&quot;curved&quot;:0,&quot;rounded&quot;:0};container=0;" parent="1" vertex="1">
          <mxGeometry x="425" y="125" width="10" height="180" as="geometry" />
        </mxCell>
        <mxCell id="YZHrNilRfVziVNNJq4Ag-45" value="" style="shape=umlDestroy;whiteSpace=wrap;html=1;strokeWidth=3;targetShapes=umlLifeline;container=0;" parent="1" vertex="1">
          <mxGeometry x="705" y="345" width="30" height="30" as="geometry" />
        </mxCell>
        <mxCell id="YZHrNilRfVziVNNJq4Ag-46" value="" style="html=1;points=[[0,0,0,0,5],[0,1,0,0,-5],[1,0,0,0,5],[1,1,0,0,-5]];perimeter=orthogonalPerimeter;outlineConnect=0;targetShapes=umlLifeline;portConstraint=eastwest;newEdgeStyle={&quot;curved&quot;:0,&quot;rounded&quot;:0};container=0;" parent="1" vertex="1">
          <mxGeometry x="715" y="115" width="10" height="200" as="geometry" />
        </mxCell>
        <mxCell id="YZHrNilRfVziVNNJq4Ag-50" style="edgeStyle=none;rounded=0;orthogonalLoop=1;jettySize=auto;html=1;curved=0;" parent="1" source="YZHrNilRfVziVNNJq4Ag-35" target="YZHrNilRfVziVNNJq4Ag-44" edge="1">
          <mxGeometry relative="1" as="geometry">
            <mxPoint x="620" y="225" as="targetPoint" />
            <Array as="points">
              <mxPoint x="640" y="170" />
            </Array>
          </mxGeometry>
        </mxCell>
        <mxCell id="YZHrNilRfVziVNNJq4Ag-51" value="pedir lista publicaciones()" style="edgeLabel;html=1;align=center;verticalAlign=middle;resizable=0;points=[];container=0;" parent="YZHrNilRfVziVNNJq4Ag-50" vertex="1" connectable="0">
          <mxGeometry x="-0.0721" y="2" relative="1" as="geometry">
            <mxPoint x="3" y="-8" as="offset" />
          </mxGeometry>
        </mxCell>
        <mxCell id="YZHrNilRfVziVNNJq4Ag-55" style="edgeStyle=none;rounded=0;orthogonalLoop=1;jettySize=auto;html=1;curved=0;" parent="1" source="YZHrNilRfVziVNNJq4Ag-46" target="Jdp6D8dy_kaWsdTqo7Du-3" edge="1">
          <mxGeometry relative="1" as="geometry">
            <Array as="points">
              <mxPoint x="640" y="210" />
            </Array>
          </mxGeometry>
        </mxCell>
        <mxCell id="YZHrNilRfVziVNNJq4Ag-57" value="lista publicaciones" style="edgeLabel;html=1;align=center;verticalAlign=middle;resizable=0;points=[];container=0;" parent="YZHrNilRfVziVNNJq4Ag-55" vertex="1" connectable="0">
          <mxGeometry x="-0.0193" relative="1" as="geometry">
            <mxPoint x="5" y="-10" as="offset" />
          </mxGeometry>
        </mxCell>
        <mxCell id="YZHrNilRfVziVNNJq4Ag-58" style="edgeStyle=none;rounded=0;orthogonalLoop=1;jettySize=auto;html=1;curved=0;" parent="1" source="YZHrNilRfVziVNNJq4Ag-35" target="MGvyvknxnzZaCFpuz8zz-5" edge="1">
          <mxGeometry relative="1" as="geometry">
            <mxPoint x="129.4473684210525" y="215" as="targetPoint" />
          </mxGeometry>
        </mxCell>
        <mxCell id="YZHrNilRfVziVNNJq4Ag-59" value="lista publicaciones" style="edgeLabel;html=1;align=center;verticalAlign=middle;resizable=0;points=[];container=0;" parent="YZHrNilRfVziVNNJq4Ag-58" vertex="1" connectable="0">
          <mxGeometry x="-0.0186" y="2" relative="1" as="geometry">
            <mxPoint y="-17" as="offset" />
          </mxGeometry>
        </mxCell>
        <mxCell id="YZHrNilRfVziVNNJq4Ag-48" value="" style="shape=umlDestroy;whiteSpace=wrap;html=1;strokeWidth=3;targetShapes=umlLifeline;container=0;" parent="1" vertex="1">
          <mxGeometry x="1035" y="340" width="30" height="30" as="geometry" />
        </mxCell>
        <mxCell id="YZHrNilRfVziVNNJq4Ag-49" value="" style="html=1;points=[[0,0,0,0,5],[0,1,0,0,-5],[1,0,0,0,5],[1,1,0,0,-5]];perimeter=orthogonalPerimeter;outlineConnect=0;targetShapes=umlLifeline;portConstraint=eastwest;newEdgeStyle={&quot;curved&quot;:0,&quot;rounded&quot;:0};container=0;" parent="1" vertex="1">
          <mxGeometry x="1045" y="120" width="10" height="180" as="geometry" />
        </mxCell>
        <mxCell id="MGvyvknxnzZaCFpuz8zz-5" value="" style="shape=umlLifeline;perimeter=lifelinePerimeter;whiteSpace=wrap;html=1;container=1;dropTarget=0;collapsible=0;recursiveResize=0;outlineConnect=0;portConstraint=eastwest;newEdgeStyle={&quot;curved&quot;:0,&quot;rounded&quot;:0};participant=umlActor;" parent="1" vertex="1">
          <mxGeometry x="125" y="60" width="25" height="310" as="geometry" />
        </mxCell>
        <mxCell id="YZHrNilRfVziVNNJq4Ag-34" value="" style="shape=umlDestroy;whiteSpace=wrap;html=1;strokeWidth=3;targetShapes=umlLifeline;container=0;" parent="MGvyvknxnzZaCFpuz8zz-5" vertex="1">
          <mxGeometry x="-5" y="280" width="30" height="30" as="geometry" />
        </mxCell>
        <mxCell id="MGvyvknxnzZaCFpuz8zz-6" value="Usuario" style="text;html=1;align=center;verticalAlign=middle;resizable=0;points=[];autosize=1;strokeColor=none;fillColor=none;" parent="1" vertex="1">
          <mxGeometry x="155" y="60" width="60" height="30" as="geometry" />
        </mxCell>
        <mxCell id="MGvyvknxnzZaCFpuz8zz-11" value="Usuario" style="text;html=1;align=center;verticalAlign=middle;resizable=0;points=[];autosize=1;strokeColor=none;fillColor=none;container=0;" parent="1" vertex="1">
          <mxGeometry x="150" y="868" width="60" height="30" as="geometry" />
        </mxCell>
        <mxCell id="MGvyvknxnzZaCFpuz8zz-14" value="Usuario" style="text;html=1;align=center;verticalAlign=middle;resizable=0;points=[];autosize=1;strokeColor=none;fillColor=none;" parent="1" vertex="1">
          <mxGeometry x="180" y="1428" width="60" height="30" as="geometry" />
        </mxCell>
        <mxCell id="MGvyvknxnzZaCFpuz8zz-22" value="" style="group" parent="1" vertex="1" connectable="0">
          <mxGeometry x="130" y="1830" width="1000" height="410" as="geometry" />
        </mxCell>
        <mxCell id="DaFaZrh-YAW7vITb1Vmp-52" value=":Base de Datos" style="shape=umlLifeline;perimeter=lifelinePerimeter;whiteSpace=wrap;html=1;container=0;dropTarget=0;collapsible=0;recursiveResize=0;outlineConnect=0;portConstraint=eastwest;newEdgeStyle={&quot;curved&quot;:0,&quot;rounded&quot;:0};" parent="MGvyvknxnzZaCFpuz8zz-22" vertex="1">
          <mxGeometry x="900" y="42" width="100" height="368" as="geometry" />
        </mxCell>
        <mxCell id="DaFaZrh-YAW7vITb1Vmp-57" value=":WebApp" style="shape=umlLifeline;perimeter=lifelinePerimeter;whiteSpace=wrap;html=1;container=0;dropTarget=0;collapsible=0;recursiveResize=0;outlineConnect=0;portConstraint=eastwest;newEdgeStyle={&quot;curved&quot;:0,&quot;rounded&quot;:0};" parent="MGvyvknxnzZaCFpuz8zz-22" vertex="1">
          <mxGeometry x="280" y="47" width="100" height="363" as="geometry" />
        </mxCell>
        <mxCell id="DaFaZrh-YAW7vITb1Vmp-59" value=":ControllPublicacion" style="shape=umlLifeline;perimeter=lifelinePerimeter;whiteSpace=wrap;html=1;container=0;dropTarget=0;collapsible=0;recursiveResize=0;outlineConnect=0;portConstraint=eastwest;newEdgeStyle={&quot;curved&quot;:0,&quot;rounded&quot;:0};" parent="MGvyvknxnzZaCFpuz8zz-22" vertex="1">
          <mxGeometry x="560" y="47" width="120" height="363" as="geometry" />
        </mxCell>
        <mxCell id="DaFaZrh-YAW7vITb1Vmp-61" value="Editar publicacion" style="text;html=1;align=center;verticalAlign=middle;resizable=0;points=[];autosize=1;strokeColor=none;fillColor=none;container=0;" parent="MGvyvknxnzZaCFpuz8zz-22" vertex="1">
          <mxGeometry width="120" height="30" as="geometry" />
        </mxCell>
        <mxCell id="DaFaZrh-YAW7vITb1Vmp-62" value="" style="html=1;points=[[0,0,0,0,5],[0,1,0,0,-5],[1,0,0,0,5],[1,1,0,0,-5]];perimeter=orthogonalPerimeter;outlineConnect=0;targetShapes=umlLifeline;portConstraint=eastwest;newEdgeStyle={&quot;curved&quot;:0,&quot;rounded&quot;:0};container=0;" parent="MGvyvknxnzZaCFpuz8zz-22" vertex="1">
          <mxGeometry x="325" y="107" width="10" height="73" as="geometry" />
        </mxCell>
        <mxCell id="DaFaZrh-YAW7vITb1Vmp-63" value="" style="html=1;points=[[0,0,0,0,5],[0,1,0,0,-5],[1,0,0,0,5],[1,1,0,0,-5]];perimeter=orthogonalPerimeter;outlineConnect=0;targetShapes=umlLifeline;portConstraint=eastwest;newEdgeStyle={&quot;curved&quot;:0,&quot;rounded&quot;:0};container=0;" parent="MGvyvknxnzZaCFpuz8zz-22" vertex="1">
          <mxGeometry x="615" y="200" width="10" height="60" as="geometry" />
        </mxCell>
        <mxCell id="DaFaZrh-YAW7vITb1Vmp-64" style="edgeStyle=none;rounded=0;orthogonalLoop=1;jettySize=auto;html=1;curved=0;" parent="MGvyvknxnzZaCFpuz8zz-22" target="DaFaZrh-YAW7vITb1Vmp-57" edge="1">
          <mxGeometry relative="1" as="geometry">
            <Array as="points">
              <mxPoint x="190" y="130" />
            </Array>
            <mxPoint x="28.961538461538566" y="130" as="sourcePoint" />
          </mxGeometry>
        </mxCell>
        <mxCell id="DaFaZrh-YAW7vITb1Vmp-65" value="1. CrearPublicacion" style="edgeLabel;html=1;align=center;verticalAlign=middle;resizable=0;points=[];container=0;" parent="DaFaZrh-YAW7vITb1Vmp-64" vertex="1" connectable="0">
          <mxGeometry x="-0.11" relative="1" as="geometry">
            <mxPoint as="offset" />
          </mxGeometry>
        </mxCell>
        <mxCell id="DaFaZrh-YAW7vITb1Vmp-66" style="edgeStyle=none;rounded=0;orthogonalLoop=1;jettySize=auto;html=1;curved=0;" parent="MGvyvknxnzZaCFpuz8zz-22" target="DaFaZrh-YAW7vITb1Vmp-57" edge="1">
          <mxGeometry relative="1" as="geometry">
            <Array as="points">
              <mxPoint x="170" y="220" />
            </Array>
            <mxPoint x="28.961538461538566" y="220" as="sourcePoint" />
          </mxGeometry>
        </mxCell>
        <mxCell id="DaFaZrh-YAW7vITb1Vmp-67" value="3. IngresarDatos(...)" style="edgeLabel;html=1;align=center;verticalAlign=middle;resizable=0;points=[];container=0;" parent="DaFaZrh-YAW7vITb1Vmp-66" vertex="1" connectable="0">
          <mxGeometry x="-0.05" y="1" relative="1" as="geometry">
            <mxPoint as="offset" />
          </mxGeometry>
        </mxCell>
        <mxCell id="DaFaZrh-YAW7vITb1Vmp-68" style="edgeStyle=none;rounded=0;orthogonalLoop=1;jettySize=auto;html=1;curved=0;" parent="MGvyvknxnzZaCFpuz8zz-22" source="DaFaZrh-YAW7vITb1Vmp-63" edge="1">
          <mxGeometry relative="1" as="geometry">
            <mxPoint x="630" y="220" as="sourcePoint" />
            <mxPoint x="945" y="220" as="targetPoint" />
          </mxGeometry>
        </mxCell>
        <mxCell id="DaFaZrh-YAW7vITb1Vmp-69" value="6. EnviarDatos(...)" style="edgeLabel;html=1;align=center;verticalAlign=middle;resizable=0;points=[];container=0;" parent="DaFaZrh-YAW7vITb1Vmp-68" vertex="1" connectable="0">
          <mxGeometry x="-0.0656" y="-1" relative="1" as="geometry">
            <mxPoint as="offset" />
          </mxGeometry>
        </mxCell>
        <mxCell id="DaFaZrh-YAW7vITb1Vmp-70" style="edgeStyle=none;rounded=0;orthogonalLoop=1;jettySize=auto;html=1;curved=0;" parent="MGvyvknxnzZaCFpuz8zz-22" edge="1">
          <mxGeometry relative="1" as="geometry">
            <mxPoint x="335" y="220" as="sourcePoint" />
            <mxPoint x="619.5" y="220" as="targetPoint" />
          </mxGeometry>
        </mxCell>
        <mxCell id="DaFaZrh-YAW7vITb1Vmp-71" value="4. EnviarDatos(...)" style="edgeLabel;html=1;align=center;verticalAlign=middle;resizable=0;points=[];container=0;" parent="DaFaZrh-YAW7vITb1Vmp-70" vertex="1" connectable="0">
          <mxGeometry x="-0.0397" y="-2" relative="1" as="geometry">
            <mxPoint as="offset" />
          </mxGeometry>
        </mxCell>
        <mxCell id="DaFaZrh-YAW7vITb1Vmp-72" value="2. MostrarCampos" style="html=1;align=left;spacingLeft=2;endArrow=block;rounded=0;edgeStyle=orthogonalEdgeStyle;curved=0;rounded=0;" parent="MGvyvknxnzZaCFpuz8zz-22" source="DaFaZrh-YAW7vITb1Vmp-62" target="DaFaZrh-YAW7vITb1Vmp-82" edge="1">
          <mxGeometry relative="1" as="geometry">
            <mxPoint x="340" y="113.5" as="sourcePoint" />
            <Array as="points">
              <mxPoint x="370" y="144" />
              <mxPoint x="370" y="154" />
            </Array>
          </mxGeometry>
        </mxCell>
        <mxCell id="DaFaZrh-YAW7vITb1Vmp-73" style="edgeStyle=none;rounded=0;orthogonalLoop=1;jettySize=auto;html=1;curved=0;" parent="MGvyvknxnzZaCFpuz8zz-22" source="DaFaZrh-YAW7vITb1Vmp-53" target="DaFaZrh-YAW7vITb1Vmp-81" edge="1">
          <mxGeometry relative="1" as="geometry">
            <mxPoint x="930" y="300" as="sourcePoint" />
            <Array as="points">
              <mxPoint x="780" y="300" />
            </Array>
          </mxGeometry>
        </mxCell>
        <mxCell id="DaFaZrh-YAW7vITb1Vmp-74" value="7. PublicacionEditada" style="edgeLabel;html=1;align=center;verticalAlign=middle;resizable=0;points=[];container=0;" parent="DaFaZrh-YAW7vITb1Vmp-73" vertex="1" connectable="0">
          <mxGeometry x="0.0673" relative="1" as="geometry">
            <mxPoint as="offset" />
          </mxGeometry>
        </mxCell>
        <mxCell id="DaFaZrh-YAW7vITb1Vmp-75" style="edgeStyle=none;rounded=0;orthogonalLoop=1;jettySize=auto;html=1;curved=0;" parent="MGvyvknxnzZaCFpuz8zz-22" source="DaFaZrh-YAW7vITb1Vmp-81" target="DaFaZrh-YAW7vITb1Vmp-80" edge="1">
          <mxGeometry relative="1" as="geometry">
            <Array as="points">
              <mxPoint x="480" y="300" />
            </Array>
          </mxGeometry>
        </mxCell>
        <mxCell id="DaFaZrh-YAW7vITb1Vmp-76" value="8. PublicacionEditada" style="edgeLabel;html=1;align=center;verticalAlign=middle;resizable=0;points=[];container=0;" parent="DaFaZrh-YAW7vITb1Vmp-75" vertex="1" connectable="0">
          <mxGeometry x="0.0658" relative="1" as="geometry">
            <mxPoint as="offset" />
          </mxGeometry>
        </mxCell>
        <mxCell id="DaFaZrh-YAW7vITb1Vmp-77" style="edgeStyle=none;rounded=0;orthogonalLoop=1;jettySize=auto;html=1;curved=0;" parent="MGvyvknxnzZaCFpuz8zz-22" source="DaFaZrh-YAW7vITb1Vmp-80" target="MGvyvknxnzZaCFpuz8zz-20" edge="1">
          <mxGeometry relative="1" as="geometry">
            <mxPoint x="60" y="320" as="targetPoint" />
            <Array as="points">
              <mxPoint x="190" y="302" />
            </Array>
          </mxGeometry>
        </mxCell>
        <mxCell id="DaFaZrh-YAW7vITb1Vmp-78" value="9. PublicacionEditada" style="edgeLabel;html=1;align=center;verticalAlign=middle;resizable=0;points=[];container=0;" parent="DaFaZrh-YAW7vITb1Vmp-77" vertex="1" connectable="0">
          <mxGeometry x="0.0409" y="1" relative="1" as="geometry">
            <mxPoint as="offset" />
          </mxGeometry>
        </mxCell>
        <mxCell id="DaFaZrh-YAW7vITb1Vmp-79" value="" style="html=1;points=[[0,0,0,0,5],[0,1,0,0,-5],[1,0,0,0,5],[1,1,0,0,-5]];perimeter=orthogonalPerimeter;outlineConnect=0;targetShapes=umlLifeline;portConstraint=eastwest;newEdgeStyle={&quot;curved&quot;:0,&quot;rounded&quot;:0};container=0;" parent="MGvyvknxnzZaCFpuz8zz-22" vertex="1">
          <mxGeometry x="325" y="190" width="10" height="57" as="geometry" />
        </mxCell>
        <mxCell id="DaFaZrh-YAW7vITb1Vmp-80" value="" style="html=1;points=[[0,0,0,0,5],[0,1,0,0,-5],[1,0,0,0,5],[1,1,0,0,-5]];perimeter=orthogonalPerimeter;outlineConnect=0;targetShapes=umlLifeline;portConstraint=eastwest;newEdgeStyle={&quot;curved&quot;:0,&quot;rounded&quot;:0};container=0;" parent="MGvyvknxnzZaCFpuz8zz-22" vertex="1">
          <mxGeometry x="325" y="287" width="10" height="29.5" as="geometry" />
        </mxCell>
        <mxCell id="DaFaZrh-YAW7vITb1Vmp-81" value="" style="html=1;points=[[0,0,0,0,5],[0,1,0,0,-5],[1,0,0,0,5],[1,1,0,0,-5]];perimeter=orthogonalPerimeter;outlineConnect=0;targetShapes=umlLifeline;portConstraint=eastwest;newEdgeStyle={&quot;curved&quot;:0,&quot;rounded&quot;:0};container=0;" parent="MGvyvknxnzZaCFpuz8zz-22" vertex="1">
          <mxGeometry x="615" y="290" width="10" height="37" as="geometry" />
        </mxCell>
        <mxCell id="DaFaZrh-YAW7vITb1Vmp-82" value="" style="html=1;points=[[0,0,0,0,5],[0,1,0,0,-5],[1,0,0,0,5],[1,1,0,0,-5]];perimeter=orthogonalPerimeter;outlineConnect=0;targetShapes=umlLifeline;portConstraint=eastwest;newEdgeStyle={&quot;curved&quot;:0,&quot;rounded&quot;:0};container=0;" parent="MGvyvknxnzZaCFpuz8zz-22" vertex="1">
          <mxGeometry x="335" y="133.5" width="10" height="40" as="geometry" />
        </mxCell>
        <mxCell id="DaFaZrh-YAW7vITb1Vmp-53" value="" style="html=1;points=[[0,0,0,0,5],[0,1,0,0,-5],[1,0,0,0,5],[1,1,0,0,-5]];perimeter=orthogonalPerimeter;outlineConnect=0;targetShapes=umlLifeline;portConstraint=eastwest;newEdgeStyle={&quot;curved&quot;:0,&quot;rounded&quot;:0};container=0;" parent="MGvyvknxnzZaCFpuz8zz-22" vertex="1">
          <mxGeometry x="945" y="190" width="10" height="160" as="geometry" />
        </mxCell>
        <mxCell id="DaFaZrh-YAW7vITb1Vmp-54" value="" style="shape=umlDestroy;whiteSpace=wrap;html=1;strokeWidth=3;targetShapes=umlLifeline;container=0;" parent="MGvyvknxnzZaCFpuz8zz-22" vertex="1">
          <mxGeometry x="935" y="380" width="30" height="30" as="geometry" />
        </mxCell>
        <mxCell id="DaFaZrh-YAW7vITb1Vmp-58" value="" style="shape=umlDestroy;whiteSpace=wrap;html=1;strokeWidth=3;targetShapes=umlLifeline;container=0;" parent="MGvyvknxnzZaCFpuz8zz-22" vertex="1">
          <mxGeometry x="315" y="380" width="30" height="30" as="geometry" />
        </mxCell>
        <mxCell id="DaFaZrh-YAW7vITb1Vmp-60" value="" style="shape=umlDestroy;whiteSpace=wrap;html=1;strokeWidth=3;targetShapes=umlLifeline;container=0;" parent="MGvyvknxnzZaCFpuz8zz-22" vertex="1">
          <mxGeometry x="605" y="380" width="30" height="30" as="geometry" />
        </mxCell>
        <mxCell id="MGvyvknxnzZaCFpuz8zz-18" value="" style="shape=umlLifeline;perimeter=lifelinePerimeter;whiteSpace=wrap;html=1;container=1;dropTarget=0;collapsible=0;recursiveResize=0;outlineConnect=0;portConstraint=eastwest;newEdgeStyle={&quot;curved&quot;:0,&quot;rounded&quot;:0};participant=umlActor;" parent="MGvyvknxnzZaCFpuz8zz-22" vertex="1">
          <mxGeometry x="15" y="47" width="25" height="363" as="geometry" />
        </mxCell>
        <mxCell id="MGvyvknxnzZaCFpuz8zz-19" value="" style="shape=umlDestroy;whiteSpace=wrap;html=1;strokeWidth=3;targetShapes=umlLifeline;container=0;" parent="MGvyvknxnzZaCFpuz8zz-18" vertex="1">
          <mxGeometry x="-2.5" y="333" width="30" height="30" as="geometry" />
        </mxCell>
        <mxCell id="MGvyvknxnzZaCFpuz8zz-20" value="" style="html=1;points=[[0,0,0,0,5],[0,1,0,0,-5],[1,0,0,0,5],[1,1,0,0,-5]];perimeter=orthogonalPerimeter;outlineConnect=0;targetShapes=umlLifeline;portConstraint=eastwest;newEdgeStyle={&quot;curved&quot;:0,&quot;rounded&quot;:0};container=0;" parent="MGvyvknxnzZaCFpuz8zz-18" vertex="1">
          <mxGeometry x="7.5" y="240" width="10" height="35" as="geometry" />
        </mxCell>
        <mxCell id="MGvyvknxnzZaCFpuz8zz-21" value="Usuario" style="text;html=1;align=center;verticalAlign=middle;resizable=0;points=[];autosize=1;strokeColor=none;fillColor=none;" parent="MGvyvknxnzZaCFpuz8zz-22" vertex="1">
          <mxGeometry x="70" y="42" width="60" height="30" as="geometry" />
        </mxCell>
        <mxCell id="MGvyvknxnzZaCFpuz8zz-29" value="" style="group" parent="1" vertex="1" connectable="0">
          <mxGeometry x="125" y="2310" width="1005" height="280" as="geometry" />
        </mxCell>
        <mxCell id="z6lfS5UgaxTANGCasaAS-1" value=":Base de Datos" style="shape=umlLifeline;perimeter=lifelinePerimeter;whiteSpace=wrap;html=1;container=0;dropTarget=0;collapsible=0;recursiveResize=0;outlineConnect=0;portConstraint=eastwest;newEdgeStyle={&quot;curved&quot;:0,&quot;rounded&quot;:0};" parent="MGvyvknxnzZaCFpuz8zz-29" vertex="1">
          <mxGeometry x="905" y="42" width="100" height="238" as="geometry" />
        </mxCell>
        <mxCell id="z6lfS5UgaxTANGCasaAS-6" value=":WebApp" style="shape=umlLifeline;perimeter=lifelinePerimeter;whiteSpace=wrap;html=1;container=0;dropTarget=0;collapsible=0;recursiveResize=0;outlineConnect=0;portConstraint=eastwest;newEdgeStyle={&quot;curved&quot;:0,&quot;rounded&quot;:0};" parent="MGvyvknxnzZaCFpuz8zz-29" vertex="1">
          <mxGeometry x="285" y="47" width="100" height="223" as="geometry" />
        </mxCell>
        <mxCell id="z6lfS5UgaxTANGCasaAS-8" value=":ControllPublicacion" style="shape=umlLifeline;perimeter=lifelinePerimeter;whiteSpace=wrap;html=1;container=0;dropTarget=0;collapsible=0;recursiveResize=0;outlineConnect=0;portConstraint=eastwest;newEdgeStyle={&quot;curved&quot;:0,&quot;rounded&quot;:0};" parent="MGvyvknxnzZaCFpuz8zz-29" vertex="1">
          <mxGeometry x="565" y="47" width="120" height="223" as="geometry" />
        </mxCell>
        <mxCell id="z6lfS5UgaxTANGCasaAS-10" value="Reportar publicacion" style="text;html=1;align=center;verticalAlign=middle;resizable=0;points=[];autosize=1;strokeColor=none;fillColor=none;container=0;" parent="MGvyvknxnzZaCFpuz8zz-29" vertex="1">
          <mxGeometry width="130" height="30" as="geometry" />
        </mxCell>
        <mxCell id="z6lfS5UgaxTANGCasaAS-33" style="edgeStyle=none;rounded=0;orthogonalLoop=1;jettySize=auto;html=1;curved=0;" parent="MGvyvknxnzZaCFpuz8zz-29" source="z6lfS5UgaxTANGCasaAS-11" target="z6lfS5UgaxTANGCasaAS-12" edge="1">
          <mxGeometry relative="1" as="geometry">
            <mxPoint x="585" y="130" as="targetPoint" />
            <Array as="points">
              <mxPoint x="485" y="130" />
            </Array>
          </mxGeometry>
        </mxCell>
        <mxCell id="z6lfS5UgaxTANGCasaAS-34" value="2. EnviarIdPublicacion(id, motivo)" style="edgeLabel;html=1;align=center;verticalAlign=middle;resizable=0;points=[];container=0;" parent="z6lfS5UgaxTANGCasaAS-33" vertex="1" connectable="0">
          <mxGeometry x="-0.0968" y="4" relative="1" as="geometry">
            <mxPoint y="4" as="offset" />
          </mxGeometry>
        </mxCell>
        <mxCell id="z6lfS5UgaxTANGCasaAS-13" style="edgeStyle=none;rounded=0;orthogonalLoop=1;jettySize=auto;html=1;curved=0;" parent="MGvyvknxnzZaCFpuz8zz-29" source="MGvyvknxnzZaCFpuz8zz-23" target="z6lfS5UgaxTANGCasaAS-6" edge="1">
          <mxGeometry relative="1" as="geometry">
            <Array as="points">
              <mxPoint x="195" y="130" />
            </Array>
            <mxPoint x="55" y="130" as="sourcePoint" />
          </mxGeometry>
        </mxCell>
        <mxCell id="z6lfS5UgaxTANGCasaAS-14" value="1. ReportarPublicacion(id, motivo)" style="edgeLabel;html=1;align=center;verticalAlign=middle;resizable=0;points=[];container=0;" parent="z6lfS5UgaxTANGCasaAS-13" vertex="1" connectable="0">
          <mxGeometry x="-0.11" relative="1" as="geometry">
            <mxPoint as="offset" />
          </mxGeometry>
        </mxCell>
        <mxCell id="z6lfS5UgaxTANGCasaAS-35" style="edgeStyle=none;rounded=0;orthogonalLoop=1;jettySize=auto;html=1;curved=0;" parent="MGvyvknxnzZaCFpuz8zz-29" source="z6lfS5UgaxTANGCasaAS-12" target="z6lfS5UgaxTANGCasaAS-2" edge="1">
          <mxGeometry relative="1" as="geometry">
            <Array as="points">
              <mxPoint x="795" y="130" />
            </Array>
          </mxGeometry>
        </mxCell>
        <mxCell id="z6lfS5UgaxTANGCasaAS-36" value="3. EnviarIdPublicacion(id, motivo)" style="edgeLabel;html=1;align=center;verticalAlign=middle;resizable=0;points=[];container=0;" parent="z6lfS5UgaxTANGCasaAS-35" vertex="1" connectable="0">
          <mxGeometry x="-0.0312" relative="1" as="geometry">
            <mxPoint as="offset" />
          </mxGeometry>
        </mxCell>
        <mxCell id="z6lfS5UgaxTANGCasaAS-9" value="" style="shape=umlDestroy;whiteSpace=wrap;html=1;strokeWidth=3;targetShapes=umlLifeline;container=0;" parent="MGvyvknxnzZaCFpuz8zz-29" vertex="1">
          <mxGeometry x="610" y="250" width="30" height="30" as="geometry" />
        </mxCell>
        <mxCell id="z6lfS5UgaxTANGCasaAS-2" value="" style="html=1;points=[[0,0,0,0,5],[0,1,0,0,-5],[1,0,0,0,5],[1,1,0,0,-5]];perimeter=orthogonalPerimeter;outlineConnect=0;targetShapes=umlLifeline;portConstraint=eastwest;newEdgeStyle={&quot;curved&quot;:0,&quot;rounded&quot;:0};container=0;" parent="MGvyvknxnzZaCFpuz8zz-29" vertex="1">
          <mxGeometry x="950" y="102" width="10" height="130" as="geometry" />
        </mxCell>
        <mxCell id="z6lfS5UgaxTANGCasaAS-3" value="" style="shape=umlDestroy;whiteSpace=wrap;html=1;strokeWidth=3;targetShapes=umlLifeline;container=0;" parent="MGvyvknxnzZaCFpuz8zz-29" vertex="1">
          <mxGeometry x="940" y="250" width="30" height="30" as="geometry" />
        </mxCell>
        <mxCell id="z6lfS5UgaxTANGCasaAS-7" value="" style="shape=umlDestroy;whiteSpace=wrap;html=1;strokeWidth=3;targetShapes=umlLifeline;container=0;" parent="MGvyvknxnzZaCFpuz8zz-29" vertex="1">
          <mxGeometry x="320" y="250" width="30" height="30" as="geometry" />
        </mxCell>
        <mxCell id="z6lfS5UgaxTANGCasaAS-11" value="" style="html=1;points=[[0,0,0,0,5],[0,1,0,0,-5],[1,0,0,0,5],[1,1,0,0,-5]];perimeter=orthogonalPerimeter;outlineConnect=0;targetShapes=umlLifeline;portConstraint=eastwest;newEdgeStyle={&quot;curved&quot;:0,&quot;rounded&quot;:0};container=0;" parent="MGvyvknxnzZaCFpuz8zz-29" vertex="1">
          <mxGeometry x="330" y="107" width="10" height="60" as="geometry" />
        </mxCell>
        <mxCell id="z6lfS5UgaxTANGCasaAS-12" value="" style="html=1;points=[[0,0,0,0,5],[0,1,0,0,-5],[1,0,0,0,5],[1,1,0,0,-5]];perimeter=orthogonalPerimeter;outlineConnect=0;targetShapes=umlLifeline;portConstraint=eastwest;newEdgeStyle={&quot;curved&quot;:0,&quot;rounded&quot;:0};container=0;" parent="MGvyvknxnzZaCFpuz8zz-29" vertex="1">
          <mxGeometry x="620" y="107" width="10" height="60" as="geometry" />
        </mxCell>
        <mxCell id="z6lfS5UgaxTANGCasaAS-26" style="edgeStyle=none;rounded=0;orthogonalLoop=1;jettySize=auto;html=1;curved=0;" parent="MGvyvknxnzZaCFpuz8zz-29" source="z6lfS5UgaxTANGCasaAS-29" target="MGvyvknxnzZaCFpuz8zz-28" edge="1">
          <mxGeometry relative="1" as="geometry">
            <mxPoint x="65" y="210" as="targetPoint" />
          </mxGeometry>
        </mxCell>
        <mxCell id="z6lfS5UgaxTANGCasaAS-27" value="6. PublicacionReportado" style="edgeLabel;html=1;align=center;verticalAlign=middle;resizable=0;points=[];container=0;" parent="z6lfS5UgaxTANGCasaAS-26" vertex="1" connectable="0">
          <mxGeometry x="0.0409" y="1" relative="1" as="geometry">
            <mxPoint as="offset" />
          </mxGeometry>
        </mxCell>
        <mxCell id="z6lfS5UgaxTANGCasaAS-29" value="" style="html=1;points=[[0,0,0,0,5],[0,1,0,0,-5],[1,0,0,0,5],[1,1,0,0,-5]];perimeter=orthogonalPerimeter;outlineConnect=0;targetShapes=umlLifeline;portConstraint=eastwest;newEdgeStyle={&quot;curved&quot;:0,&quot;rounded&quot;:0};container=0;" parent="MGvyvknxnzZaCFpuz8zz-29" vertex="1">
          <mxGeometry x="330" y="190" width="10" height="29.5" as="geometry" />
        </mxCell>
        <mxCell id="z6lfS5UgaxTANGCasaAS-24" style="edgeStyle=none;rounded=0;orthogonalLoop=1;jettySize=auto;html=1;curved=0;" parent="MGvyvknxnzZaCFpuz8zz-29" source="z6lfS5UgaxTANGCasaAS-30" target="z6lfS5UgaxTANGCasaAS-29" edge="1">
          <mxGeometry relative="1" as="geometry">
            <Array as="points">
              <mxPoint x="485" y="203" />
            </Array>
          </mxGeometry>
        </mxCell>
        <mxCell id="z6lfS5UgaxTANGCasaAS-25" value="5. PublicacionEditada" style="edgeLabel;html=1;align=center;verticalAlign=middle;resizable=0;points=[];container=0;" parent="z6lfS5UgaxTANGCasaAS-24" vertex="1" connectable="0">
          <mxGeometry x="0.0658" relative="1" as="geometry">
            <mxPoint as="offset" />
          </mxGeometry>
        </mxCell>
        <mxCell id="z6lfS5UgaxTANGCasaAS-30" value="" style="html=1;points=[[0,0,0,0,5],[0,1,0,0,-5],[1,0,0,0,5],[1,1,0,0,-5]];perimeter=orthogonalPerimeter;outlineConnect=0;targetShapes=umlLifeline;portConstraint=eastwest;newEdgeStyle={&quot;curved&quot;:0,&quot;rounded&quot;:0};container=0;" parent="MGvyvknxnzZaCFpuz8zz-29" vertex="1">
          <mxGeometry x="620" y="193" width="10" height="37" as="geometry" />
        </mxCell>
        <mxCell id="z6lfS5UgaxTANGCasaAS-22" style="edgeStyle=none;rounded=0;orthogonalLoop=1;jettySize=auto;html=1;curved=0;" parent="MGvyvknxnzZaCFpuz8zz-29" target="z6lfS5UgaxTANGCasaAS-30" edge="1">
          <mxGeometry relative="1" as="geometry">
            <mxPoint x="950" y="203" as="sourcePoint" />
            <Array as="points">
              <mxPoint x="785" y="203" />
            </Array>
          </mxGeometry>
        </mxCell>
        <mxCell id="z6lfS5UgaxTANGCasaAS-23" value="4. PublicacionEditada" style="edgeLabel;html=1;align=center;verticalAlign=middle;resizable=0;points=[];container=0;" parent="z6lfS5UgaxTANGCasaAS-22" vertex="1" connectable="0">
          <mxGeometry x="0.0673" relative="1" as="geometry">
            <mxPoint as="offset" />
          </mxGeometry>
        </mxCell>
        <mxCell id="MGvyvknxnzZaCFpuz8zz-23" value="" style="shape=umlLifeline;perimeter=lifelinePerimeter;whiteSpace=wrap;html=1;container=1;dropTarget=0;collapsible=0;recursiveResize=0;outlineConnect=0;portConstraint=eastwest;newEdgeStyle={&quot;curved&quot;:0,&quot;rounded&quot;:0};participant=umlActor;" parent="MGvyvknxnzZaCFpuz8zz-29" vertex="1">
          <mxGeometry x="25" y="47" width="25" height="223" as="geometry" />
        </mxCell>
        <mxCell id="MGvyvknxnzZaCFpuz8zz-24" value="" style="shape=umlDestroy;whiteSpace=wrap;html=1;strokeWidth=3;targetShapes=umlLifeline;container=0;" parent="MGvyvknxnzZaCFpuz8zz-23" vertex="1">
          <mxGeometry x="-2.5" y="193" width="30" height="30" as="geometry" />
        </mxCell>
        <mxCell id="MGvyvknxnzZaCFpuz8zz-28" value="" style="html=1;points=[[0,0,0,0,5],[0,1,0,0,-5],[1,0,0,0,5],[1,1,0,0,-5]];perimeter=orthogonalPerimeter;outlineConnect=0;targetShapes=umlLifeline;portConstraint=eastwest;newEdgeStyle={&quot;curved&quot;:0,&quot;rounded&quot;:0};container=0;" parent="MGvyvknxnzZaCFpuz8zz-23" vertex="1">
          <mxGeometry x="7.5" y="134.5" width="10" height="45.5" as="geometry" />
        </mxCell>
        <mxCell id="MGvyvknxnzZaCFpuz8zz-27" value="Usuario" style="text;html=1;align=center;verticalAlign=middle;resizable=0;points=[];autosize=1;strokeColor=none;fillColor=none;" parent="MGvyvknxnzZaCFpuz8zz-29" vertex="1">
          <mxGeometry x="65" y="42" width="60" height="30" as="geometry" />
        </mxCell>
        <mxCell id="Mz73h7uJXoTpNyxUSRu6-2" value=":Base de Datos" style="shape=umlLifeline;perimeter=lifelinePerimeter;whiteSpace=wrap;html=1;container=0;dropTarget=0;collapsible=0;recursiveResize=0;outlineConnect=0;portConstraint=eastwest;newEdgeStyle={&quot;curved&quot;:0,&quot;rounded&quot;:0};" parent="1" vertex="1">
          <mxGeometry x="1035" y="2685" width="100" height="238" as="geometry" />
        </mxCell>
        <mxCell id="Mz73h7uJXoTpNyxUSRu6-3" value=":WebApp" style="shape=umlLifeline;perimeter=lifelinePerimeter;whiteSpace=wrap;html=1;container=0;dropTarget=0;collapsible=0;recursiveResize=0;outlineConnect=0;portConstraint=eastwest;newEdgeStyle={&quot;curved&quot;:0,&quot;rounded&quot;:0};" parent="1" vertex="1">
          <mxGeometry x="415" y="2690" width="100" height="223" as="geometry" />
        </mxCell>
        <mxCell id="Mz73h7uJXoTpNyxUSRu6-4" value=":ControllPublicacion" style="shape=umlLifeline;perimeter=lifelinePerimeter;whiteSpace=wrap;html=1;container=0;dropTarget=0;collapsible=0;recursiveResize=0;outlineConnect=0;portConstraint=eastwest;newEdgeStyle={&quot;curved&quot;:0,&quot;rounded&quot;:0};" parent="1" vertex="1">
          <mxGeometry x="695" y="2690" width="120" height="223" as="geometry" />
        </mxCell>
        <mxCell id="Mz73h7uJXoTpNyxUSRu6-5" value="Registrar asistencia" style="text;html=1;align=center;verticalAlign=middle;resizable=0;points=[];autosize=1;strokeColor=none;fillColor=none;container=0;" parent="1" vertex="1">
          <mxGeometry x="140" y="2640" width="130" height="30" as="geometry" />
        </mxCell>
        <mxCell id="Mz73h7uJXoTpNyxUSRu6-6" style="edgeStyle=none;rounded=0;orthogonalLoop=1;jettySize=auto;html=1;curved=0;" parent="1" source="Mz73h7uJXoTpNyxUSRu6-16" target="Mz73h7uJXoTpNyxUSRu6-17" edge="1">
          <mxGeometry relative="1" as="geometry">
            <mxPoint x="715" y="2773" as="targetPoint" />
            <Array as="points">
              <mxPoint x="615" y="2773" />
            </Array>
          </mxGeometry>
        </mxCell>
        <mxCell id="Mz73h7uJXoTpNyxUSRu6-7" value="2. EnviarIdPublicacion(id_publicacion)" style="edgeLabel;html=1;align=center;verticalAlign=middle;resizable=0;points=[];container=0;" parent="Mz73h7uJXoTpNyxUSRu6-6" vertex="1" connectable="0">
          <mxGeometry x="-0.0968" y="4" relative="1" as="geometry">
            <mxPoint y="4" as="offset" />
          </mxGeometry>
        </mxCell>
        <mxCell id="Mz73h7uJXoTpNyxUSRu6-8" style="edgeStyle=none;rounded=0;orthogonalLoop=1;jettySize=auto;html=1;curved=0;" parent="1" source="Mz73h7uJXoTpNyxUSRu6-26" target="Mz73h7uJXoTpNyxUSRu6-3" edge="1">
          <mxGeometry relative="1" as="geometry">
            <Array as="points">
              <mxPoint x="325" y="2773" />
            </Array>
            <mxPoint x="185" y="2773" as="sourcePoint" />
          </mxGeometry>
        </mxCell>
        <mxCell id="Mz73h7uJXoTpNyxUSRu6-9" value="1. RegistarAsistencia()" style="edgeLabel;html=1;align=center;verticalAlign=middle;resizable=0;points=[];container=0;" parent="Mz73h7uJXoTpNyxUSRu6-8" vertex="1" connectable="0">
          <mxGeometry x="-0.11" relative="1" as="geometry">
            <mxPoint as="offset" />
          </mxGeometry>
        </mxCell>
        <mxCell id="Mz73h7uJXoTpNyxUSRu6-10" style="edgeStyle=none;rounded=0;orthogonalLoop=1;jettySize=auto;html=1;curved=0;" parent="1" source="Mz73h7uJXoTpNyxUSRu6-17" target="Mz73h7uJXoTpNyxUSRu6-13" edge="1">
          <mxGeometry relative="1" as="geometry">
            <Array as="points">
              <mxPoint x="925" y="2773" />
            </Array>
          </mxGeometry>
        </mxCell>
        <mxCell id="Mz73h7uJXoTpNyxUSRu6-11" value="3. EnviarIdPublicacion(id_publicacion)" style="edgeLabel;html=1;align=center;verticalAlign=middle;resizable=0;points=[];container=0;" parent="Mz73h7uJXoTpNyxUSRu6-10" vertex="1" connectable="0">
          <mxGeometry x="-0.0312" relative="1" as="geometry">
            <mxPoint as="offset" />
          </mxGeometry>
        </mxCell>
        <mxCell id="Mz73h7uJXoTpNyxUSRu6-12" value="" style="shape=umlDestroy;whiteSpace=wrap;html=1;strokeWidth=3;targetShapes=umlLifeline;container=0;" parent="1" vertex="1">
          <mxGeometry x="740" y="2893" width="30" height="30" as="geometry" />
        </mxCell>
        <mxCell id="Mz73h7uJXoTpNyxUSRu6-13" value="" style="html=1;points=[[0,0,0,0,5],[0,1,0,0,-5],[1,0,0,0,5],[1,1,0,0,-5]];perimeter=orthogonalPerimeter;outlineConnect=0;targetShapes=umlLifeline;portConstraint=eastwest;newEdgeStyle={&quot;curved&quot;:0,&quot;rounded&quot;:0};container=0;" parent="1" vertex="1">
          <mxGeometry x="1080" y="2745" width="10" height="130" as="geometry" />
        </mxCell>
        <mxCell id="Mz73h7uJXoTpNyxUSRu6-14" value="" style="shape=umlDestroy;whiteSpace=wrap;html=1;strokeWidth=3;targetShapes=umlLifeline;container=0;" parent="1" vertex="1">
          <mxGeometry x="1070" y="2893" width="30" height="30" as="geometry" />
        </mxCell>
        <mxCell id="Mz73h7uJXoTpNyxUSRu6-15" value="" style="shape=umlDestroy;whiteSpace=wrap;html=1;strokeWidth=3;targetShapes=umlLifeline;container=0;" parent="1" vertex="1">
          <mxGeometry x="450" y="2893" width="30" height="30" as="geometry" />
        </mxCell>
        <mxCell id="Mz73h7uJXoTpNyxUSRu6-16" value="" style="html=1;points=[[0,0,0,0,5],[0,1,0,0,-5],[1,0,0,0,5],[1,1,0,0,-5]];perimeter=orthogonalPerimeter;outlineConnect=0;targetShapes=umlLifeline;portConstraint=eastwest;newEdgeStyle={&quot;curved&quot;:0,&quot;rounded&quot;:0};container=0;" parent="1" vertex="1">
          <mxGeometry x="460" y="2750" width="10" height="60" as="geometry" />
        </mxCell>
        <mxCell id="Mz73h7uJXoTpNyxUSRu6-17" value="" style="html=1;points=[[0,0,0,0,5],[0,1,0,0,-5],[1,0,0,0,5],[1,1,0,0,-5]];perimeter=orthogonalPerimeter;outlineConnect=0;targetShapes=umlLifeline;portConstraint=eastwest;newEdgeStyle={&quot;curved&quot;:0,&quot;rounded&quot;:0};container=0;" parent="1" vertex="1">
          <mxGeometry x="750" y="2750" width="10" height="60" as="geometry" />
        </mxCell>
        <mxCell id="Mz73h7uJXoTpNyxUSRu6-18" style="edgeStyle=none;rounded=0;orthogonalLoop=1;jettySize=auto;html=1;curved=0;" parent="1" source="Mz73h7uJXoTpNyxUSRu6-20" target="Mz73h7uJXoTpNyxUSRu6-28" edge="1">
          <mxGeometry relative="1" as="geometry">
            <mxPoint x="195" y="2853" as="targetPoint" />
          </mxGeometry>
        </mxCell>
        <mxCell id="Mz73h7uJXoTpNyxUSRu6-19" value="6. RegistroExitoso" style="edgeLabel;html=1;align=center;verticalAlign=middle;resizable=0;points=[];container=0;" parent="Mz73h7uJXoTpNyxUSRu6-18" vertex="1" connectable="0">
          <mxGeometry x="0.0409" y="1" relative="1" as="geometry">
            <mxPoint as="offset" />
          </mxGeometry>
        </mxCell>
        <mxCell id="Mz73h7uJXoTpNyxUSRu6-20" value="" style="html=1;points=[[0,0,0,0,5],[0,1,0,0,-5],[1,0,0,0,5],[1,1,0,0,-5]];perimeter=orthogonalPerimeter;outlineConnect=0;targetShapes=umlLifeline;portConstraint=eastwest;newEdgeStyle={&quot;curved&quot;:0,&quot;rounded&quot;:0};container=0;" parent="1" vertex="1">
          <mxGeometry x="460" y="2833" width="10" height="29.5" as="geometry" />
        </mxCell>
        <mxCell id="Mz73h7uJXoTpNyxUSRu6-21" style="edgeStyle=none;rounded=0;orthogonalLoop=1;jettySize=auto;html=1;curved=0;" parent="1" source="Mz73h7uJXoTpNyxUSRu6-23" target="Mz73h7uJXoTpNyxUSRu6-20" edge="1">
          <mxGeometry relative="1" as="geometry">
            <Array as="points">
              <mxPoint x="615" y="2846" />
            </Array>
          </mxGeometry>
        </mxCell>
        <mxCell id="Mz73h7uJXoTpNyxUSRu6-22" value="5. AsistenciaRegistarada" style="edgeLabel;html=1;align=center;verticalAlign=middle;resizable=0;points=[];container=0;" parent="Mz73h7uJXoTpNyxUSRu6-21" vertex="1" connectable="0">
          <mxGeometry x="0.0658" relative="1" as="geometry">
            <mxPoint as="offset" />
          </mxGeometry>
        </mxCell>
        <mxCell id="Mz73h7uJXoTpNyxUSRu6-23" value="" style="html=1;points=[[0,0,0,0,5],[0,1,0,0,-5],[1,0,0,0,5],[1,1,0,0,-5]];perimeter=orthogonalPerimeter;outlineConnect=0;targetShapes=umlLifeline;portConstraint=eastwest;newEdgeStyle={&quot;curved&quot;:0,&quot;rounded&quot;:0};container=0;" parent="1" vertex="1">
          <mxGeometry x="750" y="2836" width="10" height="37" as="geometry" />
        </mxCell>
        <mxCell id="Mz73h7uJXoTpNyxUSRu6-24" style="edgeStyle=none;rounded=0;orthogonalLoop=1;jettySize=auto;html=1;curved=0;" parent="1" target="Mz73h7uJXoTpNyxUSRu6-23" edge="1">
          <mxGeometry relative="1" as="geometry">
            <mxPoint x="1080" y="2846" as="sourcePoint" />
            <Array as="points">
              <mxPoint x="915" y="2846" />
            </Array>
          </mxGeometry>
        </mxCell>
        <mxCell id="Mz73h7uJXoTpNyxUSRu6-25" value="4. AsistenciaRegistarada" style="edgeLabel;html=1;align=center;verticalAlign=middle;resizable=0;points=[];container=0;" parent="Mz73h7uJXoTpNyxUSRu6-24" vertex="1" connectable="0">
          <mxGeometry x="0.0673" relative="1" as="geometry">
            <mxPoint as="offset" />
          </mxGeometry>
        </mxCell>
        <mxCell id="Mz73h7uJXoTpNyxUSRu6-26" value="" style="shape=umlLifeline;perimeter=lifelinePerimeter;whiteSpace=wrap;html=1;container=0;dropTarget=0;collapsible=0;recursiveResize=0;outlineConnect=0;portConstraint=eastwest;newEdgeStyle={&quot;curved&quot;:0,&quot;rounded&quot;:0};participant=umlActor;" parent="1" vertex="1">
          <mxGeometry x="155" y="2690" width="25" height="223" as="geometry" />
        </mxCell>
        <mxCell id="Mz73h7uJXoTpNyxUSRu6-29" value="Usuario" style="text;html=1;align=center;verticalAlign=middle;resizable=0;points=[];autosize=1;strokeColor=none;fillColor=none;container=0;" parent="1" vertex="1">
          <mxGeometry x="195" y="2685" width="60" height="30" as="geometry" />
        </mxCell>
        <mxCell id="Mz73h7uJXoTpNyxUSRu6-27" value="" style="shape=umlDestroy;whiteSpace=wrap;html=1;strokeWidth=3;targetShapes=umlLifeline;container=0;" parent="1" vertex="1">
          <mxGeometry x="152.5" y="2883" width="30" height="30" as="geometry" />
        </mxCell>
        <mxCell id="Mz73h7uJXoTpNyxUSRu6-28" value="" style="html=1;points=[[0,0,0,0,5],[0,1,0,0,-5],[1,0,0,0,5],[1,1,0,0,-5]];perimeter=orthogonalPerimeter;outlineConnect=0;targetShapes=umlLifeline;portConstraint=eastwest;newEdgeStyle={&quot;curved&quot;:0,&quot;rounded&quot;:0};container=0;" parent="1" vertex="1">
          <mxGeometry x="162.5" y="2824.5" width="10" height="45.5" as="geometry" />
        </mxCell>
        <mxCell id="YZHrNilRfVziVNNJq4Ag-106" value=":Base de Datos" style="shape=umlLifeline;perimeter=lifelinePerimeter;whiteSpace=wrap;html=1;container=0;dropTarget=0;collapsible=0;recursiveResize=0;outlineConnect=0;portConstraint=eastwest;newEdgeStyle={&quot;curved&quot;:0,&quot;rounded&quot;:0};" parent="1" vertex="1">
          <mxGeometry x="1020" y="872" width="100" height="438" as="geometry" />
        </mxCell>
        <mxCell id="YZHrNilRfVziVNNJq4Ag-92" value=":WebApp" style="shape=umlLifeline;perimeter=lifelinePerimeter;whiteSpace=wrap;html=1;container=0;dropTarget=0;collapsible=0;recursiveResize=0;outlineConnect=0;portConstraint=eastwest;newEdgeStyle={&quot;curved&quot;:0,&quot;rounded&quot;:0};" parent="1" vertex="1">
          <mxGeometry x="400" y="877" width="100" height="423" as="geometry" />
        </mxCell>
        <mxCell id="YZHrNilRfVziVNNJq4Ag-93" value=":ControllUsers" style="shape=umlLifeline;perimeter=lifelinePerimeter;whiteSpace=wrap;html=1;container=0;dropTarget=0;collapsible=0;recursiveResize=0;outlineConnect=0;portConstraint=eastwest;newEdgeStyle={&quot;curved&quot;:0,&quot;rounded&quot;:0};" parent="1" vertex="1">
          <mxGeometry x="680" y="877" width="120" height="423" as="geometry" />
        </mxCell>
        <mxCell id="YZHrNilRfVziVNNJq4Ag-100" value="Crear cuenta" style="text;html=1;align=center;verticalAlign=middle;resizable=0;points=[];autosize=1;strokeColor=none;fillColor=none;container=0;" parent="1" vertex="1">
          <mxGeometry x="135" y="830" width="90" height="30" as="geometry" />
        </mxCell>
        <mxCell id="YZHrNilRfVziVNNJq4Ag-103" value="" style="html=1;points=[[0,0,0,0,5],[0,1,0,0,-5],[1,0,0,0,5],[1,1,0,0,-5]];perimeter=orthogonalPerimeter;outlineConnect=0;targetShapes=umlLifeline;portConstraint=eastwest;newEdgeStyle={&quot;curved&quot;:0,&quot;rounded&quot;:0};container=0;" parent="1" vertex="1">
          <mxGeometry x="445" y="937" width="10" height="73" as="geometry" />
        </mxCell>
        <mxCell id="YZHrNilRfVziVNNJq4Ag-105" value="" style="html=1;points=[[0,0,0,0,5],[0,1,0,0,-5],[1,0,0,0,5],[1,1,0,0,-5]];perimeter=orthogonalPerimeter;outlineConnect=0;targetShapes=umlLifeline;portConstraint=eastwest;newEdgeStyle={&quot;curved&quot;:0,&quot;rounded&quot;:0};container=0;" parent="1" vertex="1">
          <mxGeometry x="735" y="1030" width="10" height="80" as="geometry" />
        </mxCell>
        <mxCell id="TSNpLak7CiFQTytvoiba-94" style="edgeStyle=none;rounded=0;orthogonalLoop=1;jettySize=auto;html=1;curved=0;" parent="1" edge="1">
          <mxGeometry relative="1" as="geometry">
            <mxPoint x="1064.9999999999998" y="1209.9999999999998" as="sourcePoint" />
            <mxPoint x="744.9999999999998" y="1209.9999999999998" as="targetPoint" />
          </mxGeometry>
        </mxCell>
        <mxCell id="TSNpLak7CiFQTytvoiba-96" value="8. UsuarioRegistrado" style="edgeLabel;html=1;align=center;verticalAlign=middle;resizable=0;points=[];container=0;" parent="TSNpLak7CiFQTytvoiba-94" vertex="1" connectable="0">
          <mxGeometry x="0.0373" relative="1" as="geometry">
            <mxPoint as="offset" />
          </mxGeometry>
        </mxCell>
        <mxCell id="YZHrNilRfVziVNNJq4Ag-108" value="" style="html=1;points=[[0,0,0,0,5],[0,1,0,0,-5],[1,0,0,0,5],[1,1,0,0,-5]];perimeter=orthogonalPerimeter;outlineConnect=0;targetShapes=umlLifeline;portConstraint=eastwest;newEdgeStyle={&quot;curved&quot;:0,&quot;rounded&quot;:0};container=0;" parent="1" vertex="1">
          <mxGeometry x="1065" y="1070" width="10" height="160" as="geometry" />
        </mxCell>
        <mxCell id="TSNpLak7CiFQTytvoiba-68" value="Validacion de usuario" style="shape=umlFrame;whiteSpace=wrap;html=1;pointerEvents=0;recursiveResize=0;container=0;collapsible=0;width=170;" parent="1" vertex="1">
          <mxGeometry x="130" y="920" width="1070" height="250" as="geometry" />
        </mxCell>
        <mxCell id="TSNpLak7CiFQTytvoiba-6" style="edgeStyle=none;rounded=0;orthogonalLoop=1;jettySize=auto;html=1;curved=0;" parent="1" target="YZHrNilRfVziVNNJq4Ag-92" edge="1">
          <mxGeometry relative="1" as="geometry">
            <mxPoint x="149.4473684210525" y="960" as="sourcePoint" />
            <Array as="points">
              <mxPoint x="310" y="960" />
            </Array>
          </mxGeometry>
        </mxCell>
        <mxCell id="TSNpLak7CiFQTytvoiba-7" value="1. CrearCuenta" style="edgeLabel;html=1;align=center;verticalAlign=middle;resizable=0;points=[];container=0;" parent="TSNpLak7CiFQTytvoiba-6" vertex="1" connectable="0">
          <mxGeometry x="-0.11" relative="1" as="geometry">
            <mxPoint as="offset" />
          </mxGeometry>
        </mxCell>
        <mxCell id="TSNpLak7CiFQTytvoiba-9" style="edgeStyle=none;rounded=0;orthogonalLoop=1;jettySize=auto;html=1;curved=0;" parent="1" source="MGvyvknxnzZaCFpuz8zz-9" target="YZHrNilRfVziVNNJq4Ag-92" edge="1">
          <mxGeometry relative="1" as="geometry">
            <mxPoint x="160" y="1050" as="sourcePoint" />
            <Array as="points">
              <mxPoint x="290" y="1050" />
            </Array>
          </mxGeometry>
        </mxCell>
        <mxCell id="TSNpLak7CiFQTytvoiba-10" value="3. IngresarDatos(...)" style="edgeLabel;html=1;align=center;verticalAlign=middle;resizable=0;points=[];container=0;" parent="TSNpLak7CiFQTytvoiba-9" vertex="1" connectable="0">
          <mxGeometry x="-0.05" y="1" relative="1" as="geometry">
            <mxPoint as="offset" />
          </mxGeometry>
        </mxCell>
        <mxCell id="TSNpLak7CiFQTytvoiba-18" style="edgeStyle=none;rounded=0;orthogonalLoop=1;jettySize=auto;html=1;curved=0;" parent="1" edge="1">
          <mxGeometry relative="1" as="geometry">
            <mxPoint x="745" y="1100" as="sourcePoint" />
            <mxPoint x="1069.5" y="1100" as="targetPoint" />
          </mxGeometry>
        </mxCell>
        <mxCell id="TSNpLak7CiFQTytvoiba-19" value="6. EnviarDatos(...)" style="edgeLabel;html=1;align=center;verticalAlign=middle;resizable=0;points=[];container=0;" parent="TSNpLak7CiFQTytvoiba-18" vertex="1" connectable="0">
          <mxGeometry x="-0.0656" y="-1" relative="1" as="geometry">
            <mxPoint as="offset" />
          </mxGeometry>
        </mxCell>
        <mxCell id="TSNpLak7CiFQTytvoiba-15" style="edgeStyle=none;rounded=0;orthogonalLoop=1;jettySize=auto;html=1;curved=0;" parent="1" edge="1">
          <mxGeometry relative="1" as="geometry">
            <mxPoint x="455" y="1050" as="sourcePoint" />
            <mxPoint x="739.5" y="1050" as="targetPoint" />
          </mxGeometry>
        </mxCell>
        <mxCell id="TSNpLak7CiFQTytvoiba-17" value="4. EnviarDatos(...)" style="edgeLabel;html=1;align=center;verticalAlign=middle;resizable=0;points=[];container=0;" parent="TSNpLak7CiFQTytvoiba-15" vertex="1" connectable="0">
          <mxGeometry x="-0.0397" y="-2" relative="1" as="geometry">
            <mxPoint as="offset" />
          </mxGeometry>
        </mxCell>
        <mxCell id="TSNpLak7CiFQTytvoiba-29" value="5 .Validar datos" style="html=1;align=left;spacingLeft=2;endArrow=block;rounded=0;edgeStyle=orthogonalEdgeStyle;curved=0;rounded=0;" parent="1" source="YZHrNilRfVziVNNJq4Ag-105" target="TSNpLak7CiFQTytvoiba-28" edge="1">
          <mxGeometry relative="1" as="geometry">
            <mxPoint x="750" y="1052" as="sourcePoint" />
            <Array as="points">
              <mxPoint x="780" y="1050" />
              <mxPoint x="780" y="1078" />
            </Array>
            <mxPoint as="offset" />
          </mxGeometry>
        </mxCell>
        <mxCell id="TSNpLak7CiFQTytvoiba-31" value="7. ValidarDatos" style="html=1;align=left;spacingLeft=2;endArrow=block;rounded=0;edgeStyle=orthogonalEdgeStyle;curved=0;rounded=0;" parent="1" source="YZHrNilRfVziVNNJq4Ag-108" target="TSNpLak7CiFQTytvoiba-30" edge="1">
          <mxGeometry relative="1" as="geometry">
            <mxPoint x="1080" y="1040" as="sourcePoint" />
            <Array as="points">
              <mxPoint x="1110" y="1080" />
              <mxPoint x="1110" y="1120" />
            </Array>
          </mxGeometry>
        </mxCell>
        <mxCell id="TSNpLak7CiFQTytvoiba-74" value="2. MostrarCampos" style="html=1;align=left;spacingLeft=2;endArrow=block;rounded=0;edgeStyle=orthogonalEdgeStyle;curved=0;rounded=0;" parent="1" source="YZHrNilRfVziVNNJq4Ag-103" target="TSNpLak7CiFQTytvoiba-73" edge="1">
          <mxGeometry relative="1" as="geometry">
            <mxPoint x="460" y="943.5" as="sourcePoint" />
            <Array as="points">
              <mxPoint x="490" y="974" />
              <mxPoint x="490" y="984" />
            </Array>
          </mxGeometry>
        </mxCell>
        <mxCell id="TSNpLak7CiFQTytvoiba-81" style="edgeStyle=none;rounded=0;orthogonalLoop=1;jettySize=auto;html=1;curved=0;" parent="1" source="TSNpLak7CiFQTytvoiba-30" target="TSNpLak7CiFQTytvoiba-79" edge="1">
          <mxGeometry relative="1" as="geometry" />
        </mxCell>
        <mxCell id="TSNpLak7CiFQTytvoiba-82" value="8. UsuarioExistente" style="edgeLabel;html=1;align=center;verticalAlign=middle;resizable=0;points=[];container=0;" parent="TSNpLak7CiFQTytvoiba-81" vertex="1" connectable="0">
          <mxGeometry x="0.0673" relative="1" as="geometry">
            <mxPoint as="offset" />
          </mxGeometry>
        </mxCell>
        <mxCell id="TSNpLak7CiFQTytvoiba-87" style="edgeStyle=none;rounded=0;orthogonalLoop=1;jettySize=auto;html=1;curved=0;" parent="1" source="TSNpLak7CiFQTytvoiba-79" target="TSNpLak7CiFQTytvoiba-86" edge="1">
          <mxGeometry relative="1" as="geometry">
            <Array as="points">
              <mxPoint x="600" y="1130" />
            </Array>
          </mxGeometry>
        </mxCell>
        <mxCell id="TSNpLak7CiFQTytvoiba-88" value="9. UsuarioExistente" style="edgeLabel;html=1;align=center;verticalAlign=middle;resizable=0;points=[];container=0;" parent="TSNpLak7CiFQTytvoiba-87" vertex="1" connectable="0">
          <mxGeometry x="0.0658" relative="1" as="geometry">
            <mxPoint as="offset" />
          </mxGeometry>
        </mxCell>
        <mxCell id="TSNpLak7CiFQTytvoiba-89" style="edgeStyle=none;rounded=0;orthogonalLoop=1;jettySize=auto;html=1;curved=0;" parent="1" source="TSNpLak7CiFQTytvoiba-86" target="TSNpLak7CiFQTytvoiba-84" edge="1">
          <mxGeometry relative="1" as="geometry" />
        </mxCell>
        <mxCell id="TSNpLak7CiFQTytvoiba-90" value="10. UsernameEnUso" style="edgeLabel;html=1;align=center;verticalAlign=middle;resizable=0;points=[];container=0;" parent="TSNpLak7CiFQTytvoiba-89" vertex="1" connectable="0">
          <mxGeometry x="0.0409" y="1" relative="1" as="geometry">
            <mxPoint as="offset" />
          </mxGeometry>
        </mxCell>
        <mxCell id="TSNpLak7CiFQTytvoiba-102" style="edgeStyle=none;rounded=0;orthogonalLoop=1;jettySize=auto;html=1;curved=0;" parent="1" target="-nNMifNJDtrjYTRmAYw2-3" edge="1">
          <mxGeometry relative="1" as="geometry">
            <mxPoint x="445" y="1210" as="sourcePoint" />
            <mxPoint x="155" y="1210" as="targetPoint" />
          </mxGeometry>
        </mxCell>
        <mxCell id="TSNpLak7CiFQTytvoiba-105" value="10. CuentaCreada exitosamente" style="edgeLabel;html=1;align=center;verticalAlign=middle;resizable=0;points=[];container=0;" parent="TSNpLak7CiFQTytvoiba-102" vertex="1" connectable="0">
          <mxGeometry x="0.0483" y="2" relative="1" as="geometry">
            <mxPoint as="offset" />
          </mxGeometry>
        </mxCell>
        <mxCell id="TSNpLak7CiFQTytvoiba-103" style="edgeStyle=none;rounded=0;orthogonalLoop=1;jettySize=auto;html=1;curved=0;" parent="1" source="TSNpLak7CiFQTytvoiba-92" target="TSNpLak7CiFQTytvoiba-97" edge="1">
          <mxGeometry relative="1" as="geometry" />
        </mxCell>
        <mxCell id="TSNpLak7CiFQTytvoiba-104" value="9. UsuarioRegistrado" style="edgeLabel;html=1;align=center;verticalAlign=middle;resizable=0;points=[];container=0;" parent="TSNpLak7CiFQTytvoiba-103" vertex="1" connectable="0">
          <mxGeometry x="-0.0357" y="-2" relative="1" as="geometry">
            <mxPoint as="offset" />
          </mxGeometry>
        </mxCell>
        <mxCell id="TSNpLak7CiFQTytvoiba-108" style="edgeStyle=none;rounded=0;orthogonalLoop=1;jettySize=auto;html=1;curved=0;dashed=1;" parent="1" edge="1">
          <mxGeometry relative="1" as="geometry">
            <mxPoint x="445" y="1240" as="sourcePoint" />
            <mxPoint x="147.5" y="1240" as="targetPoint" />
            <Array as="points">
              <mxPoint x="300" y="1240" />
            </Array>
          </mxGeometry>
        </mxCell>
        <mxCell id="TSNpLak7CiFQTytvoiba-109" value="&amp;lt;&amp;lt;http rediret: login&amp;gt;&amp;gt;" style="edgeLabel;html=1;align=center;verticalAlign=middle;resizable=0;points=[];container=0;" parent="TSNpLak7CiFQTytvoiba-108" vertex="1" connectable="0">
          <mxGeometry x="0.0426" relative="1" as="geometry">
            <mxPoint as="offset" />
          </mxGeometry>
        </mxCell>
        <mxCell id="MGvyvknxnzZaCFpuz8zz-9" value="" style="shape=umlLifeline;perimeter=lifelinePerimeter;whiteSpace=wrap;html=1;container=0;dropTarget=0;collapsible=0;recursiveResize=0;outlineConnect=0;portConstraint=eastwest;newEdgeStyle={&quot;curved&quot;:0,&quot;rounded&quot;:0};participant=umlActor;" parent="1" vertex="1">
          <mxGeometry x="130" y="877" width="25" height="423" as="geometry" />
        </mxCell>
        <mxCell id="-nNMifNJDtrjYTRmAYw2-3" value="" style="html=1;points=[[0,0,0,0,5],[0,1,0,0,-5],[1,0,0,0,5],[1,1,0,0,-5]];perimeter=orthogonalPerimeter;outlineConnect=0;targetShapes=umlLifeline;portConstraint=eastwest;newEdgeStyle={&quot;curved&quot;:0,&quot;rounded&quot;:0};container=0;" parent="MGvyvknxnzZaCFpuz8zz-9" vertex="1">
          <mxGeometry x="7.5" y="318" width="10" height="62" as="geometry" />
        </mxCell>
        <mxCell id="YZHrNilRfVziVNNJq4Ag-107" value="" style="shape=umlDestroy;whiteSpace=wrap;html=1;strokeWidth=3;targetShapes=umlLifeline;container=0;" parent="1" vertex="1">
          <mxGeometry x="1055" y="1280" width="30" height="30" as="geometry" />
        </mxCell>
        <mxCell id="TSNpLak7CiFQTytvoiba-12" value="" style="html=1;points=[[0,0,0,0,5],[0,1,0,0,-5],[1,0,0,0,5],[1,1,0,0,-5]];perimeter=orthogonalPerimeter;outlineConnect=0;targetShapes=umlLifeline;portConstraint=eastwest;newEdgeStyle={&quot;curved&quot;:0,&quot;rounded&quot;:0};container=0;" parent="1" vertex="1">
          <mxGeometry x="445" y="1020" width="10" height="57" as="geometry" />
        </mxCell>
        <mxCell id="YZHrNilRfVziVNNJq4Ag-102" value="" style="shape=umlDestroy;whiteSpace=wrap;html=1;strokeWidth=3;targetShapes=umlLifeline;container=0;" parent="1" vertex="1">
          <mxGeometry x="435" y="1270" width="30" height="30" as="geometry" />
        </mxCell>
        <mxCell id="TSNpLak7CiFQTytvoiba-86" value="" style="html=1;points=[[0,0,0,0,5],[0,1,0,0,-5],[1,0,0,0,5],[1,1,0,0,-5]];perimeter=orthogonalPerimeter;outlineConnect=0;targetShapes=umlLifeline;portConstraint=eastwest;newEdgeStyle={&quot;curved&quot;:0,&quot;rounded&quot;:0};container=0;" parent="1" vertex="1">
          <mxGeometry x="445" y="1117" width="10" height="29.5" as="geometry" />
        </mxCell>
        <mxCell id="TSNpLak7CiFQTytvoiba-97" value="" style="html=1;points=[[0,0,0,0,5],[0,1,0,0,-5],[1,0,0,0,5],[1,1,0,0,-5]];perimeter=orthogonalPerimeter;outlineConnect=0;targetShapes=umlLifeline;portConstraint=eastwest;newEdgeStyle={&quot;curved&quot;:0,&quot;rounded&quot;:0};container=0;" parent="1" vertex="1">
          <mxGeometry x="445" y="1190" width="10" height="70" as="geometry" />
        </mxCell>
        <mxCell id="TSNpLak7CiFQTytvoiba-28" value="" style="html=1;points=[[0,0,0,0,5],[0,1,0,0,-5],[1,0,0,0,5],[1,1,0,0,-5]];perimeter=orthogonalPerimeter;outlineConnect=0;targetShapes=umlLifeline;portConstraint=eastwest;newEdgeStyle={&quot;curved&quot;:0,&quot;rounded&quot;:0};container=0;" parent="1" vertex="1">
          <mxGeometry x="745" y="1067" width="10" height="24" as="geometry" />
        </mxCell>
        <mxCell id="YZHrNilRfVziVNNJq4Ag-104" value="" style="shape=umlDestroy;whiteSpace=wrap;html=1;strokeWidth=3;targetShapes=umlLifeline;container=0;" parent="1" vertex="1">
          <mxGeometry x="725" y="1270" width="30" height="30" as="geometry" />
        </mxCell>
        <mxCell id="TSNpLak7CiFQTytvoiba-79" value="" style="html=1;points=[[0,0,0,0,5],[0,1,0,0,-5],[1,0,0,0,5],[1,1,0,0,-5]];perimeter=orthogonalPerimeter;outlineConnect=0;targetShapes=umlLifeline;portConstraint=eastwest;newEdgeStyle={&quot;curved&quot;:0,&quot;rounded&quot;:0};container=0;" parent="1" vertex="1">
          <mxGeometry x="735" y="1120" width="10" height="37" as="geometry" />
        </mxCell>
        <mxCell id="TSNpLak7CiFQTytvoiba-92" value="" style="html=1;points=[[0,0,0,0,5],[0,1,0,0,-5],[1,0,0,0,5],[1,1,0,0,-5]];perimeter=orthogonalPerimeter;outlineConnect=0;targetShapes=umlLifeline;portConstraint=eastwest;newEdgeStyle={&quot;curved&quot;:0,&quot;rounded&quot;:0};container=0;" parent="1" vertex="1">
          <mxGeometry x="735" y="1190" width="10" height="37" as="geometry" />
        </mxCell>
        <mxCell id="TSNpLak7CiFQTytvoiba-73" value="" style="html=1;points=[[0,0,0,0,5],[0,1,0,0,-5],[1,0,0,0,5],[1,1,0,0,-5]];perimeter=orthogonalPerimeter;outlineConnect=0;targetShapes=umlLifeline;portConstraint=eastwest;newEdgeStyle={&quot;curved&quot;:0,&quot;rounded&quot;:0};container=0;" parent="1" vertex="1">
          <mxGeometry x="450" y="963.5" width="10" height="40" as="geometry" />
        </mxCell>
        <mxCell id="TSNpLak7CiFQTytvoiba-30" value="" style="html=1;points=[[0,0,0,0,5],[0,1,0,0,-5],[1,0,0,0,5],[1,1,0,0,-5]];perimeter=orthogonalPerimeter;outlineConnect=0;targetShapes=umlLifeline;portConstraint=eastwest;newEdgeStyle={&quot;curved&quot;:0,&quot;rounded&quot;:0};container=0;" parent="1" vertex="1">
          <mxGeometry x="1070" y="1110" width="10" height="40" as="geometry" />
        </mxCell>
        <mxCell id="MGvyvknxnzZaCFpuz8zz-10" value="" style="shape=umlDestroy;whiteSpace=wrap;html=1;strokeWidth=3;targetShapes=umlLifeline;container=0;" parent="1" vertex="1">
          <mxGeometry x="130" y="1270" width="30" height="30" as="geometry" />
        </mxCell>
        <mxCell id="TSNpLak7CiFQTytvoiba-84" value="" style="html=1;points=[[0,0,0,0,5],[0,1,0,0,-5],[1,0,0,0,5],[1,1,0,0,-5]];perimeter=orthogonalPerimeter;outlineConnect=0;targetShapes=umlLifeline;portConstraint=eastwest;newEdgeStyle={&quot;curved&quot;:0,&quot;rounded&quot;:0};container=0;" parent="1" vertex="1">
          <mxGeometry x="137.5" y="1111.5" width="10" height="35" as="geometry" />
        </mxCell>
        <mxCell id="Av6zMeAQYBFuUJQPGI3R-2" value=":Base de Datos" style="shape=umlLifeline;perimeter=lifelinePerimeter;whiteSpace=wrap;html=1;container=0;dropTarget=0;collapsible=0;recursiveResize=0;outlineConnect=0;portConstraint=eastwest;newEdgeStyle={&quot;curved&quot;:0,&quot;rounded&quot;:0};" parent="1" vertex="1">
          <mxGeometry x="1040" y="3002" width="100" height="238" as="geometry" />
        </mxCell>
        <mxCell id="1SKaoC002PcMfubds3sZ-1" value="" style="html=1;points=[[0,0,0,0,5],[0,1,0,0,-5],[1,0,0,0,5],[1,1,0,0,-5]];perimeter=orthogonalPerimeter;outlineConnect=0;targetShapes=umlLifeline;portConstraint=eastwest;newEdgeStyle={&quot;curved&quot;:0,&quot;rounded&quot;:0};container=0;" parent="Av6zMeAQYBFuUJQPGI3R-2" vertex="1">
          <mxGeometry x="55" y="96.5" width="10" height="40" as="geometry" />
        </mxCell>
        <mxCell id="Av6zMeAQYBFuUJQPGI3R-3" value=":WebApp" style="shape=umlLifeline;perimeter=lifelinePerimeter;whiteSpace=wrap;html=1;container=0;dropTarget=0;collapsible=0;recursiveResize=0;outlineConnect=0;portConstraint=eastwest;newEdgeStyle={&quot;curved&quot;:0,&quot;rounded&quot;:0};" parent="1" vertex="1">
          <mxGeometry x="420" y="3007" width="100" height="223" as="geometry" />
        </mxCell>
        <mxCell id="Av6zMeAQYBFuUJQPGI3R-4" value=":ControllPublicacion" style="shape=umlLifeline;perimeter=lifelinePerimeter;whiteSpace=wrap;html=1;container=0;dropTarget=0;collapsible=0;recursiveResize=0;outlineConnect=0;portConstraint=eastwest;newEdgeStyle={&quot;curved&quot;:0,&quot;rounded&quot;:0};" parent="1" vertex="1">
          <mxGeometry x="700" y="3007" width="120" height="223" as="geometry" />
        </mxCell>
        <mxCell id="Av6zMeAQYBFuUJQPGI3R-5" value="ValidarPublicacion: rechazar, aceptar publicacion/reporte" style="text;html=1;align=center;verticalAlign=middle;resizable=0;points=[];autosize=1;strokeColor=none;fillColor=none;container=0;" parent="1" vertex="1">
          <mxGeometry x="150" y="2960" width="330" height="30" as="geometry" />
        </mxCell>
        <mxCell id="Av6zMeAQYBFuUJQPGI3R-6" style="edgeStyle=none;rounded=0;orthogonalLoop=1;jettySize=auto;html=1;curved=0;" parent="1" source="Av6zMeAQYBFuUJQPGI3R-16" target="Av6zMeAQYBFuUJQPGI3R-17" edge="1">
          <mxGeometry relative="1" as="geometry">
            <mxPoint x="720" y="3090" as="targetPoint" />
            <Array as="points">
              <mxPoint x="620" y="3090" />
            </Array>
          </mxGeometry>
        </mxCell>
        <mxCell id="Av6zMeAQYBFuUJQPGI3R-7" value="2. Aceptar/RechazarPublicacion(id)" style="edgeLabel;html=1;align=center;verticalAlign=middle;resizable=0;points=[];container=0;" parent="Av6zMeAQYBFuUJQPGI3R-6" vertex="1" connectable="0">
          <mxGeometry x="-0.0968" y="4" relative="1" as="geometry">
            <mxPoint y="4" as="offset" />
          </mxGeometry>
        </mxCell>
        <mxCell id="Av6zMeAQYBFuUJQPGI3R-8" style="edgeStyle=none;rounded=0;orthogonalLoop=1;jettySize=auto;html=1;curved=0;" parent="1" source="Av6zMeAQYBFuUJQPGI3R-26" target="Av6zMeAQYBFuUJQPGI3R-3" edge="1">
          <mxGeometry relative="1" as="geometry">
            <Array as="points">
              <mxPoint x="330" y="3090" />
            </Array>
            <mxPoint x="190" y="3090" as="sourcePoint" />
          </mxGeometry>
        </mxCell>
        <mxCell id="Av6zMeAQYBFuUJQPGI3R-9" value="1. Aceptar/RechazarPublicacion(id)" style="edgeLabel;html=1;align=center;verticalAlign=middle;resizable=0;points=[];container=0;" parent="Av6zMeAQYBFuUJQPGI3R-8" vertex="1" connectable="0">
          <mxGeometry x="-0.11" relative="1" as="geometry">
            <mxPoint as="offset" />
          </mxGeometry>
        </mxCell>
        <mxCell id="Av6zMeAQYBFuUJQPGI3R-10" style="edgeStyle=none;rounded=0;orthogonalLoop=1;jettySize=auto;html=1;curved=0;" parent="1" source="Av6zMeAQYBFuUJQPGI3R-17" target="Av6zMeAQYBFuUJQPGI3R-13" edge="1">
          <mxGeometry relative="1" as="geometry">
            <Array as="points">
              <mxPoint x="930" y="3090" />
            </Array>
          </mxGeometry>
        </mxCell>
        <mxCell id="Av6zMeAQYBFuUJQPGI3R-11" value="3. Aceptar/RechazarPublicacion(id)" style="edgeLabel;html=1;align=center;verticalAlign=middle;resizable=0;points=[];container=0;" parent="Av6zMeAQYBFuUJQPGI3R-10" vertex="1" connectable="0">
          <mxGeometry x="-0.0312" relative="1" as="geometry">
            <mxPoint as="offset" />
          </mxGeometry>
        </mxCell>
        <mxCell id="Av6zMeAQYBFuUJQPGI3R-12" value="" style="shape=umlDestroy;whiteSpace=wrap;html=1;strokeWidth=3;targetShapes=umlLifeline;container=0;" parent="1" vertex="1">
          <mxGeometry x="745" y="3210" width="30" height="30" as="geometry" />
        </mxCell>
        <mxCell id="Av6zMeAQYBFuUJQPGI3R-13" value="" style="html=1;points=[[0,0,0,0,5],[0,1,0,0,-5],[1,0,0,0,5],[1,1,0,0,-5]];perimeter=orthogonalPerimeter;outlineConnect=0;targetShapes=umlLifeline;portConstraint=eastwest;newEdgeStyle={&quot;curved&quot;:0,&quot;rounded&quot;:0};container=0;" parent="1" vertex="1">
          <mxGeometry x="1085" y="3062" width="10" height="130" as="geometry" />
        </mxCell>
        <mxCell id="Av6zMeAQYBFuUJQPGI3R-14" value="" style="shape=umlDestroy;whiteSpace=wrap;html=1;strokeWidth=3;targetShapes=umlLifeline;container=0;" parent="1" vertex="1">
          <mxGeometry x="1075" y="3210" width="30" height="30" as="geometry" />
        </mxCell>
        <mxCell id="Av6zMeAQYBFuUJQPGI3R-15" value="" style="shape=umlDestroy;whiteSpace=wrap;html=1;strokeWidth=3;targetShapes=umlLifeline;container=0;" parent="1" vertex="1">
          <mxGeometry x="455" y="3210" width="30" height="30" as="geometry" />
        </mxCell>
        <mxCell id="Av6zMeAQYBFuUJQPGI3R-16" value="" style="html=1;points=[[0,0,0,0,5],[0,1,0,0,-5],[1,0,0,0,5],[1,1,0,0,-5]];perimeter=orthogonalPerimeter;outlineConnect=0;targetShapes=umlLifeline;portConstraint=eastwest;newEdgeStyle={&quot;curved&quot;:0,&quot;rounded&quot;:0};container=0;" parent="1" vertex="1">
          <mxGeometry x="465" y="3067" width="10" height="60" as="geometry" />
        </mxCell>
        <mxCell id="Av6zMeAQYBFuUJQPGI3R-17" value="" style="html=1;points=[[0,0,0,0,5],[0,1,0,0,-5],[1,0,0,0,5],[1,1,0,0,-5]];perimeter=orthogonalPerimeter;outlineConnect=0;targetShapes=umlLifeline;portConstraint=eastwest;newEdgeStyle={&quot;curved&quot;:0,&quot;rounded&quot;:0};container=0;" parent="1" vertex="1">
          <mxGeometry x="755" y="3067" width="10" height="60" as="geometry" />
        </mxCell>
        <mxCell id="Av6zMeAQYBFuUJQPGI3R-18" style="edgeStyle=none;rounded=0;orthogonalLoop=1;jettySize=auto;html=1;curved=0;" parent="1" source="Av6zMeAQYBFuUJQPGI3R-20" target="Av6zMeAQYBFuUJQPGI3R-28" edge="1">
          <mxGeometry relative="1" as="geometry">
            <mxPoint x="200" y="3170" as="targetPoint" />
          </mxGeometry>
        </mxCell>
        <mxCell id="Av6zMeAQYBFuUJQPGI3R-19" value="6. Se guardo los cambios" style="edgeLabel;html=1;align=center;verticalAlign=middle;resizable=0;points=[];container=0;" parent="Av6zMeAQYBFuUJQPGI3R-18" vertex="1" connectable="0">
          <mxGeometry x="0.0409" y="1" relative="1" as="geometry">
            <mxPoint as="offset" />
          </mxGeometry>
        </mxCell>
        <mxCell id="Av6zMeAQYBFuUJQPGI3R-20" value="" style="html=1;points=[[0,0,0,0,5],[0,1,0,0,-5],[1,0,0,0,5],[1,1,0,0,-5]];perimeter=orthogonalPerimeter;outlineConnect=0;targetShapes=umlLifeline;portConstraint=eastwest;newEdgeStyle={&quot;curved&quot;:0,&quot;rounded&quot;:0};container=0;" parent="1" vertex="1">
          <mxGeometry x="465" y="3150" width="10" height="29.5" as="geometry" />
        </mxCell>
        <mxCell id="Av6zMeAQYBFuUJQPGI3R-21" style="edgeStyle=none;rounded=0;orthogonalLoop=1;jettySize=auto;html=1;curved=0;" parent="1" source="Av6zMeAQYBFuUJQPGI3R-23" target="Av6zMeAQYBFuUJQPGI3R-20" edge="1">
          <mxGeometry relative="1" as="geometry">
            <Array as="points">
              <mxPoint x="620" y="3163" />
            </Array>
          </mxGeometry>
        </mxCell>
        <mxCell id="Av6zMeAQYBFuUJQPGI3R-22" value="5. AccionRealizada" style="edgeLabel;html=1;align=center;verticalAlign=middle;resizable=0;points=[];container=0;" parent="Av6zMeAQYBFuUJQPGI3R-21" vertex="1" connectable="0">
          <mxGeometry x="0.0658" relative="1" as="geometry">
            <mxPoint as="offset" />
          </mxGeometry>
        </mxCell>
        <mxCell id="Av6zMeAQYBFuUJQPGI3R-23" value="" style="html=1;points=[[0,0,0,0,5],[0,1,0,0,-5],[1,0,0,0,5],[1,1,0,0,-5]];perimeter=orthogonalPerimeter;outlineConnect=0;targetShapes=umlLifeline;portConstraint=eastwest;newEdgeStyle={&quot;curved&quot;:0,&quot;rounded&quot;:0};container=0;" parent="1" vertex="1">
          <mxGeometry x="755" y="3153" width="10" height="37" as="geometry" />
        </mxCell>
        <mxCell id="Av6zMeAQYBFuUJQPGI3R-24" style="edgeStyle=none;rounded=0;orthogonalLoop=1;jettySize=auto;html=1;curved=0;" parent="1" target="Av6zMeAQYBFuUJQPGI3R-23" edge="1">
          <mxGeometry relative="1" as="geometry">
            <mxPoint x="1085" y="3163" as="sourcePoint" />
            <Array as="points" />
          </mxGeometry>
        </mxCell>
        <mxCell id="Av6zMeAQYBFuUJQPGI3R-25" value="4. AccionRealizada" style="edgeLabel;html=1;align=center;verticalAlign=middle;resizable=0;points=[];container=0;" parent="Av6zMeAQYBFuUJQPGI3R-24" vertex="1" connectable="0">
          <mxGeometry x="0.0673" relative="1" as="geometry">
            <mxPoint as="offset" />
          </mxGeometry>
        </mxCell>
        <mxCell id="Av6zMeAQYBFuUJQPGI3R-26" value="" style="shape=umlLifeline;perimeter=lifelinePerimeter;whiteSpace=wrap;html=1;container=0;dropTarget=0;collapsible=0;recursiveResize=0;outlineConnect=0;portConstraint=eastwest;newEdgeStyle={&quot;curved&quot;:0,&quot;rounded&quot;:0};participant=umlActor;" parent="1" vertex="1">
          <mxGeometry x="160" y="3007" width="25" height="223" as="geometry" />
        </mxCell>
        <mxCell id="Av6zMeAQYBFuUJQPGI3R-29" value="Administrador" style="text;html=1;align=center;verticalAlign=middle;resizable=0;points=[];autosize=1;strokeColor=none;fillColor=none;container=0;" parent="1" vertex="1">
          <mxGeometry x="190" y="3002" width="100" height="30" as="geometry" />
        </mxCell>
        <mxCell id="1SKaoC002PcMfubds3sZ-2" value="3.1. Banear usuario (si compete)" style="html=1;align=left;spacingLeft=2;endArrow=block;rounded=0;edgeStyle=orthogonalEdgeStyle;curved=0;rounded=0;" parent="1" source="Av6zMeAQYBFuUJQPGI3R-13" target="1SKaoC002PcMfubds3sZ-1" edge="1">
          <mxGeometry relative="1" as="geometry">
            <mxPoint x="1100" y="3067" as="sourcePoint" />
            <Array as="points">
              <mxPoint x="1130" y="3090" />
              <mxPoint x="1130" y="3118" />
            </Array>
          </mxGeometry>
        </mxCell>
        <mxCell id="Av6zMeAQYBFuUJQPGI3R-27" value="" style="shape=umlDestroy;whiteSpace=wrap;html=1;strokeWidth=3;targetShapes=umlLifeline;container=0;" parent="1" vertex="1">
          <mxGeometry x="157.5" y="3200" width="30" height="30" as="geometry" />
        </mxCell>
        <mxCell id="Av6zMeAQYBFuUJQPGI3R-28" value="" style="html=1;points=[[0,0,0,0,5],[0,1,0,0,-5],[1,0,0,0,5],[1,1,0,0,-5]];perimeter=orthogonalPerimeter;outlineConnect=0;targetShapes=umlLifeline;portConstraint=eastwest;newEdgeStyle={&quot;curved&quot;:0,&quot;rounded&quot;:0};container=0;" parent="1" vertex="1">
          <mxGeometry x="167.5" y="3141.5" width="10" height="45.5" as="geometry" />
        </mxCell>
        <mxCell id="jaK9n6-YbtSBuuHZ65fI-1" value=":Base de Datos" style="shape=umlLifeline;perimeter=lifelinePerimeter;whiteSpace=wrap;html=1;container=0;dropTarget=0;collapsible=0;recursiveResize=0;outlineConnect=0;portConstraint=eastwest;newEdgeStyle={&quot;curved&quot;:0,&quot;rounded&quot;:0};" vertex="1" parent="1">
          <mxGeometry x="1042.5" y="3342" width="100" height="238" as="geometry" />
        </mxCell>
        <mxCell id="jaK9n6-YbtSBuuHZ65fI-3" value=":WebApp" style="shape=umlLifeline;perimeter=lifelinePerimeter;whiteSpace=wrap;html=1;container=0;dropTarget=0;collapsible=0;recursiveResize=0;outlineConnect=0;portConstraint=eastwest;newEdgeStyle={&quot;curved&quot;:0,&quot;rounded&quot;:0};" vertex="1" parent="1">
          <mxGeometry x="422.5" y="3347" width="100" height="223" as="geometry" />
        </mxCell>
        <mxCell id="jaK9n6-YbtSBuuHZ65fI-4" value=":ControllPublicacion" style="shape=umlLifeline;perimeter=lifelinePerimeter;whiteSpace=wrap;html=1;container=0;dropTarget=0;collapsible=0;recursiveResize=0;outlineConnect=0;portConstraint=eastwest;newEdgeStyle={&quot;curved&quot;:0,&quot;rounded&quot;:0};" vertex="1" parent="1">
          <mxGeometry x="702.5" y="3347" width="120" height="223" as="geometry" />
        </mxCell>
        <mxCell id="jaK9n6-YbtSBuuHZ65fI-5" value="Ver notificaciones" style="text;html=1;align=center;verticalAlign=middle;resizable=0;points=[];autosize=1;strokeColor=none;fillColor=none;container=0;" vertex="1" parent="1">
          <mxGeometry x="172.5" y="3300" width="120" height="30" as="geometry" />
        </mxCell>
        <mxCell id="jaK9n6-YbtSBuuHZ65fI-6" style="edgeStyle=none;rounded=0;orthogonalLoop=1;jettySize=auto;html=1;curved=0;" edge="1" parent="1" source="jaK9n6-YbtSBuuHZ65fI-16" target="jaK9n6-YbtSBuuHZ65fI-17">
          <mxGeometry relative="1" as="geometry">
            <mxPoint x="722.5" y="3430" as="targetPoint" />
            <Array as="points">
              <mxPoint x="622.5" y="3430" />
            </Array>
          </mxGeometry>
        </mxCell>
        <mxCell id="jaK9n6-YbtSBuuHZ65fI-7" value="&lt;span style=&quot;color: rgb(0, 0, 0); font-family: Helvetica; font-size: 11px; font-style: normal; font-variant-ligatures: normal; font-variant-caps: normal; font-weight: 400; letter-spacing: normal; orphans: 2; text-align: center; text-indent: 0px; text-transform: none; widows: 2; word-spacing: 0px; -webkit-text-stroke-width: 0px; white-space: nowrap; background-color: rgb(255, 255, 255); text-decoration-thickness: initial; text-decoration-style: initial; text-decoration-color: initial; display: inline !important; float: none;&quot;&gt;2. EventosProximos(username)&lt;/span&gt;" style="edgeLabel;html=1;align=center;verticalAlign=middle;resizable=0;points=[];container=0;" vertex="1" connectable="0" parent="jaK9n6-YbtSBuuHZ65fI-6">
          <mxGeometry x="-0.0968" y="4" relative="1" as="geometry">
            <mxPoint y="4" as="offset" />
          </mxGeometry>
        </mxCell>
        <mxCell id="jaK9n6-YbtSBuuHZ65fI-8" style="edgeStyle=none;rounded=0;orthogonalLoop=1;jettySize=auto;html=1;curved=0;" edge="1" parent="1" source="jaK9n6-YbtSBuuHZ65fI-26" target="jaK9n6-YbtSBuuHZ65fI-3">
          <mxGeometry relative="1" as="geometry">
            <Array as="points">
              <mxPoint x="332.5" y="3430" />
            </Array>
            <mxPoint x="192.5" y="3430" as="sourcePoint" />
          </mxGeometry>
        </mxCell>
        <mxCell id="jaK9n6-YbtSBuuHZ65fI-9" value="1. EventosProximos(username)" style="edgeLabel;html=1;align=center;verticalAlign=middle;resizable=0;points=[];container=0;" vertex="1" connectable="0" parent="jaK9n6-YbtSBuuHZ65fI-8">
          <mxGeometry x="-0.11" relative="1" as="geometry">
            <mxPoint as="offset" />
          </mxGeometry>
        </mxCell>
        <mxCell id="jaK9n6-YbtSBuuHZ65fI-10" style="edgeStyle=none;rounded=0;orthogonalLoop=1;jettySize=auto;html=1;curved=0;" edge="1" parent="1" source="jaK9n6-YbtSBuuHZ65fI-17" target="jaK9n6-YbtSBuuHZ65fI-13">
          <mxGeometry relative="1" as="geometry">
            <Array as="points">
              <mxPoint x="932.5" y="3430" />
            </Array>
          </mxGeometry>
        </mxCell>
        <mxCell id="jaK9n6-YbtSBuuHZ65fI-11" value="3. EventosProximos(username)" style="edgeLabel;html=1;align=center;verticalAlign=middle;resizable=0;points=[];container=0;" vertex="1" connectable="0" parent="jaK9n6-YbtSBuuHZ65fI-10">
          <mxGeometry x="-0.0312" relative="1" as="geometry">
            <mxPoint as="offset" />
          </mxGeometry>
        </mxCell>
        <mxCell id="jaK9n6-YbtSBuuHZ65fI-12" value="" style="shape=umlDestroy;whiteSpace=wrap;html=1;strokeWidth=3;targetShapes=umlLifeline;container=0;" vertex="1" parent="1">
          <mxGeometry x="747.5" y="3550" width="30" height="30" as="geometry" />
        </mxCell>
        <mxCell id="jaK9n6-YbtSBuuHZ65fI-13" value="" style="html=1;points=[[0,0,0,0,5],[0,1,0,0,-5],[1,0,0,0,5],[1,1,0,0,-5]];perimeter=orthogonalPerimeter;outlineConnect=0;targetShapes=umlLifeline;portConstraint=eastwest;newEdgeStyle={&quot;curved&quot;:0,&quot;rounded&quot;:0};container=0;" vertex="1" parent="1">
          <mxGeometry x="1087.5" y="3402" width="10" height="130" as="geometry" />
        </mxCell>
        <mxCell id="jaK9n6-YbtSBuuHZ65fI-14" value="" style="shape=umlDestroy;whiteSpace=wrap;html=1;strokeWidth=3;targetShapes=umlLifeline;container=0;" vertex="1" parent="1">
          <mxGeometry x="1077.5" y="3550" width="30" height="30" as="geometry" />
        </mxCell>
        <mxCell id="jaK9n6-YbtSBuuHZ65fI-15" value="" style="shape=umlDestroy;whiteSpace=wrap;html=1;strokeWidth=3;targetShapes=umlLifeline;container=0;" vertex="1" parent="1">
          <mxGeometry x="457.5" y="3550" width="30" height="30" as="geometry" />
        </mxCell>
        <mxCell id="jaK9n6-YbtSBuuHZ65fI-16" value="" style="html=1;points=[[0,0,0,0,5],[0,1,0,0,-5],[1,0,0,0,5],[1,1,0,0,-5]];perimeter=orthogonalPerimeter;outlineConnect=0;targetShapes=umlLifeline;portConstraint=eastwest;newEdgeStyle={&quot;curved&quot;:0,&quot;rounded&quot;:0};container=0;" vertex="1" parent="1">
          <mxGeometry x="467.5" y="3407" width="10" height="60" as="geometry" />
        </mxCell>
        <mxCell id="jaK9n6-YbtSBuuHZ65fI-17" value="" style="html=1;points=[[0,0,0,0,5],[0,1,0,0,-5],[1,0,0,0,5],[1,1,0,0,-5]];perimeter=orthogonalPerimeter;outlineConnect=0;targetShapes=umlLifeline;portConstraint=eastwest;newEdgeStyle={&quot;curved&quot;:0,&quot;rounded&quot;:0};container=0;" vertex="1" parent="1">
          <mxGeometry x="757.5" y="3407" width="10" height="60" as="geometry" />
        </mxCell>
        <mxCell id="jaK9n6-YbtSBuuHZ65fI-18" style="edgeStyle=none;rounded=0;orthogonalLoop=1;jettySize=auto;html=1;curved=0;" edge="1" parent="1" source="jaK9n6-YbtSBuuHZ65fI-20" target="jaK9n6-YbtSBuuHZ65fI-30">
          <mxGeometry relative="1" as="geometry">
            <mxPoint x="202.5" y="3510" as="targetPoint" />
          </mxGeometry>
        </mxCell>
        <mxCell id="jaK9n6-YbtSBuuHZ65fI-19" value="6. PublicacionesProximsos" style="edgeLabel;html=1;align=center;verticalAlign=middle;resizable=0;points=[];container=0;" vertex="1" connectable="0" parent="jaK9n6-YbtSBuuHZ65fI-18">
          <mxGeometry x="0.0409" y="1" relative="1" as="geometry">
            <mxPoint as="offset" />
          </mxGeometry>
        </mxCell>
        <mxCell id="jaK9n6-YbtSBuuHZ65fI-20" value="" style="html=1;points=[[0,0,0,0,5],[0,1,0,0,-5],[1,0,0,0,5],[1,1,0,0,-5]];perimeter=orthogonalPerimeter;outlineConnect=0;targetShapes=umlLifeline;portConstraint=eastwest;newEdgeStyle={&quot;curved&quot;:0,&quot;rounded&quot;:0};container=0;" vertex="1" parent="1">
          <mxGeometry x="467.5" y="3490" width="10" height="29.5" as="geometry" />
        </mxCell>
        <mxCell id="jaK9n6-YbtSBuuHZ65fI-21" style="edgeStyle=none;rounded=0;orthogonalLoop=1;jettySize=auto;html=1;curved=0;" edge="1" parent="1" source="jaK9n6-YbtSBuuHZ65fI-23" target="jaK9n6-YbtSBuuHZ65fI-20">
          <mxGeometry relative="1" as="geometry">
            <Array as="points">
              <mxPoint x="622.5" y="3503" />
            </Array>
          </mxGeometry>
        </mxCell>
        <mxCell id="jaK9n6-YbtSBuuHZ65fI-22" value="5. PublicacionesProximsos" style="edgeLabel;html=1;align=center;verticalAlign=middle;resizable=0;points=[];container=0;" vertex="1" connectable="0" parent="jaK9n6-YbtSBuuHZ65fI-21">
          <mxGeometry x="0.0658" relative="1" as="geometry">
            <mxPoint as="offset" />
          </mxGeometry>
        </mxCell>
        <mxCell id="jaK9n6-YbtSBuuHZ65fI-23" value="" style="html=1;points=[[0,0,0,0,5],[0,1,0,0,-5],[1,0,0,0,5],[1,1,0,0,-5]];perimeter=orthogonalPerimeter;outlineConnect=0;targetShapes=umlLifeline;portConstraint=eastwest;newEdgeStyle={&quot;curved&quot;:0,&quot;rounded&quot;:0};container=0;" vertex="1" parent="1">
          <mxGeometry x="757.5" y="3493" width="10" height="37" as="geometry" />
        </mxCell>
        <mxCell id="jaK9n6-YbtSBuuHZ65fI-24" style="edgeStyle=none;rounded=0;orthogonalLoop=1;jettySize=auto;html=1;curved=0;" edge="1" parent="1" target="jaK9n6-YbtSBuuHZ65fI-23">
          <mxGeometry relative="1" as="geometry">
            <mxPoint x="1087.5" y="3503" as="sourcePoint" />
            <Array as="points" />
          </mxGeometry>
        </mxCell>
        <mxCell id="jaK9n6-YbtSBuuHZ65fI-25" value="4. PublicacionesProximsos" style="edgeLabel;html=1;align=center;verticalAlign=middle;resizable=0;points=[];container=0;" vertex="1" connectable="0" parent="jaK9n6-YbtSBuuHZ65fI-24">
          <mxGeometry x="0.0673" relative="1" as="geometry">
            <mxPoint as="offset" />
          </mxGeometry>
        </mxCell>
        <mxCell id="jaK9n6-YbtSBuuHZ65fI-26" value="" style="shape=umlLifeline;perimeter=lifelinePerimeter;whiteSpace=wrap;html=1;container=0;dropTarget=0;collapsible=0;recursiveResize=0;outlineConnect=0;portConstraint=eastwest;newEdgeStyle={&quot;curved&quot;:0,&quot;rounded&quot;:0};participant=umlActor;" vertex="1" parent="1">
          <mxGeometry x="162.5" y="3347" width="25" height="223" as="geometry" />
        </mxCell>
        <mxCell id="jaK9n6-YbtSBuuHZ65fI-27" value="Usuario" style="text;html=1;align=center;verticalAlign=middle;resizable=0;points=[];autosize=1;strokeColor=none;fillColor=none;container=0;" vertex="1" parent="1">
          <mxGeometry x="202.5" y="3342" width="60" height="30" as="geometry" />
        </mxCell>
        <mxCell id="jaK9n6-YbtSBuuHZ65fI-29" value="" style="shape=umlDestroy;whiteSpace=wrap;html=1;strokeWidth=3;targetShapes=umlLifeline;container=0;" vertex="1" parent="1">
          <mxGeometry x="160" y="3540" width="30" height="30" as="geometry" />
        </mxCell>
        <mxCell id="jaK9n6-YbtSBuuHZ65fI-30" value="" style="html=1;points=[[0,0,0,0,5],[0,1,0,0,-5],[1,0,0,0,5],[1,1,0,0,-5]];perimeter=orthogonalPerimeter;outlineConnect=0;targetShapes=umlLifeline;portConstraint=eastwest;newEdgeStyle={&quot;curved&quot;:0,&quot;rounded&quot;:0};container=0;" vertex="1" parent="1">
          <mxGeometry x="170" y="3481.5" width="10" height="45.5" as="geometry" />
        </mxCell>
      </root>
    </mxGraphModel>
  </diagram>
  <diagram id="SaC4UFGyqwnRqRL9pTAq" name="Diagrama de paquetes">
    <mxGraphModel dx="1114" dy="615" grid="1" gridSize="10" guides="1" tooltips="1" connect="1" arrows="1" fold="1" page="1" pageScale="1" pageWidth="827" pageHeight="1169" math="0" shadow="0">
      <root>
        <mxCell id="0" />
        <mxCell id="1" parent="0" />
        <mxCell id="YM365S7donB_seoMEHWz-30" style="edgeStyle=orthogonalEdgeStyle;rounded=0;orthogonalLoop=1;jettySize=auto;html=1;dashed=1;" parent="1" source="0OcWT1r6VBaBPM6C4TIH-4" target="0OcWT1r6VBaBPM6C4TIH-2" edge="1">
          <mxGeometry relative="1" as="geometry">
            <mxPoint x="370" y="740" as="sourcePoint" />
            <mxPoint x="340" y="750" as="targetPoint" />
          </mxGeometry>
        </mxCell>
        <mxCell id="0OcWT1r6VBaBPM6C4TIH-2" value="APP" style="shape=folder;fontStyle=1;tabWidth=110;tabHeight=30;tabPosition=left;html=1;boundedLbl=1;labelInHeader=1;container=1;collapsible=0;whiteSpace=wrap;" vertex="1" parent="1">
          <mxGeometry x="222.31" y="740" width="225.38" height="130" as="geometry" />
        </mxCell>
        <mxCell id="0OcWT1r6VBaBPM6C4TIH-3" value="" style="html=1;strokeColor=none;resizeWidth=1;resizeHeight=1;fillColor=none;part=1;connectable=0;allowArrows=0;deletable=0;whiteSpace=wrap;" vertex="1" parent="0OcWT1r6VBaBPM6C4TIH-2">
          <mxGeometry width="225.38000000000002" height="91" relative="1" as="geometry">
            <mxPoint y="30" as="offset" />
          </mxGeometry>
        </mxCell>
        <mxCell id="0OcWT1r6VBaBPM6C4TIH-52" value="" style="group" vertex="1" connectable="0" parent="0OcWT1r6VBaBPM6C4TIH-2">
          <mxGeometry x="20.379999999999995" y="50" width="184.62" height="50" as="geometry" />
        </mxCell>
        <mxCell id="YM365S7donB_seoMEHWz-33" value="Models" style="shape=folder;fontStyle=1;spacingTop=10;tabWidth=40;tabHeight=14;tabPosition=left;html=1;whiteSpace=wrap;container=0;" parent="0OcWT1r6VBaBPM6C4TIH-52" vertex="1">
          <mxGeometry width="79.46" height="50" as="geometry" />
        </mxCell>
        <mxCell id="0OcWT1r6VBaBPM6C4TIH-43" value="Coneccion" style="shape=folder;fontStyle=1;spacingTop=10;tabWidth=40;tabHeight=14;tabPosition=left;html=1;whiteSpace=wrap;container=0;" vertex="1" parent="0OcWT1r6VBaBPM6C4TIH-52">
          <mxGeometry x="100" width="84.62" height="50" as="geometry" />
        </mxCell>
        <mxCell id="0OcWT1r6VBaBPM6C4TIH-4" value="LÃ³gica del sistema" style="shape=folder;fontStyle=1;tabWidth=110;tabHeight=30;tabPosition=left;html=1;boundedLbl=1;labelInHeader=1;container=1;collapsible=0;whiteSpace=wrap;" vertex="1" parent="1">
          <mxGeometry x="230" y="540" width="210" height="120" as="geometry" />
        </mxCell>
        <mxCell id="0OcWT1r6VBaBPM6C4TIH-5" value="" style="html=1;strokeColor=none;resizeWidth=1;resizeHeight=1;fillColor=none;part=1;connectable=0;allowArrows=0;deletable=0;whiteSpace=wrap;" vertex="1" parent="0OcWT1r6VBaBPM6C4TIH-4">
          <mxGeometry width="210.00000000000003" height="84" relative="1" as="geometry">
            <mxPoint y="30" as="offset" />
          </mxGeometry>
        </mxCell>
        <mxCell id="0OcWT1r6VBaBPM6C4TIH-51" value="" style="group" vertex="1" connectable="0" parent="0OcWT1r6VBaBPM6C4TIH-4">
          <mxGeometry x="16.480000000000018" y="50" width="177.04000000000008" height="50" as="geometry" />
        </mxCell>
        <mxCell id="0OcWT1r6VBaBPM6C4TIH-48" value="Routers" style="shape=folder;fontStyle=1;spacingTop=10;tabWidth=40;tabHeight=14;tabPosition=left;html=1;whiteSpace=wrap;container=0;" vertex="1" parent="0OcWT1r6VBaBPM6C4TIH-51">
          <mxGeometry width="79.46" height="50" as="geometry" />
        </mxCell>
        <mxCell id="0OcWT1r6VBaBPM6C4TIH-50" value="Controllers" style="shape=folder;fontStyle=1;spacingTop=10;tabWidth=40;tabHeight=14;tabPosition=left;html=1;whiteSpace=wrap;container=0;" vertex="1" parent="0OcWT1r6VBaBPM6C4TIH-51">
          <mxGeometry x="92.42000000000007" width="84.62" height="50" as="geometry" />
        </mxCell>
        <mxCell id="0OcWT1r6VBaBPM6C4TIH-26" style="edgeStyle=none;rounded=0;orthogonalLoop=1;jettySize=auto;html=1;dashed=1;" edge="1" parent="1" source="0OcWT1r6VBaBPM6C4TIH-9" target="0OcWT1r6VBaBPM6C4TIH-4">
          <mxGeometry relative="1" as="geometry" />
        </mxCell>
        <mxCell id="0OcWT1r6VBaBPM6C4TIH-9" value="Capa de presentaciÃ³n" style="shape=folder;fontStyle=1;tabWidth=156;tabHeight=30;tabPosition=left;html=1;boundedLbl=1;labelInHeader=1;container=1;collapsible=0;whiteSpace=wrap;" vertex="1" parent="1">
          <mxGeometry x="150" y="310" width="380" height="120" as="geometry" />
        </mxCell>
        <mxCell id="0OcWT1r6VBaBPM6C4TIH-10" value="" style="html=1;strokeColor=none;resizeWidth=1;resizeHeight=1;fillColor=none;part=1;connectable=0;allowArrows=0;deletable=0;whiteSpace=wrap;" vertex="1" parent="0OcWT1r6VBaBPM6C4TIH-9">
          <mxGeometry width="380" height="84" relative="1" as="geometry">
            <mxPoint y="30" as="offset" />
          </mxGeometry>
        </mxCell>
        <mxCell id="0OcWT1r6VBaBPM6C4TIH-20" value="Interfaz Publicador" style="shape=folder;fontStyle=1;spacingTop=10;tabWidth=40;tabHeight=14;tabPosition=left;html=1;whiteSpace=wrap;" vertex="1" parent="0OcWT1r6VBaBPM6C4TIH-9">
          <mxGeometry x="18.1" y="40" width="111.9" height="61.5" as="geometry" />
        </mxCell>
        <mxCell id="0OcWT1r6VBaBPM6C4TIH-24" value="Interfaz General" style="shape=folder;fontStyle=1;spacingTop=10;tabWidth=40;tabHeight=14;tabPosition=left;html=1;whiteSpace=wrap;" vertex="1" parent="0OcWT1r6VBaBPM6C4TIH-9">
          <mxGeometry x="150" y="40" width="100" height="61.5" as="geometry" />
        </mxCell>
        <mxCell id="0OcWT1r6VBaBPM6C4TIH-25" value="Interfaz Administrador" style="shape=folder;fontStyle=1;spacingTop=10;tabWidth=40;tabHeight=14;tabPosition=left;html=1;whiteSpace=wrap;" vertex="1" parent="0OcWT1r6VBaBPM6C4TIH-9">
          <mxGeometry x="270" y="40" width="97.7" height="61.5" as="geometry" />
        </mxCell>
      </root>
    </mxGraphModel>
  </diagram>
  <diagram id="_aI4T7xAyCjSoPee96Xd" name="Diagrama de despliegue">
    <mxGraphModel dx="1354" dy="615" grid="1" gridSize="10" guides="1" tooltips="1" connect="1" arrows="1" fold="1" page="1" pageScale="1" pageWidth="827" pageHeight="1169" math="0" shadow="0">
      <root>
        <mxCell id="0" />
        <mxCell id="1" parent="0" />
        <mxCell id="Ec9VttPGb9vaH7HjuK4D-6" style="edgeStyle=orthogonalEdgeStyle;rounded=0;orthogonalLoop=1;jettySize=auto;html=1;endArrow=none;endFill=0;" parent="1" source="MqtX2bsidFjWwxD4z_CP-2" target="Ec9VttPGb9vaH7HjuK4D-5" edge="1">
          <mxGeometry relative="1" as="geometry" />
        </mxCell>
        <mxCell id="Ec9VttPGb9vaH7HjuK4D-18" value="&lt;div&gt;&amp;lt;&amp;lt;protocolo&amp;gt;&amp;gt;&lt;/div&gt;TPC/IP" style="edgeLabel;html=1;align=center;verticalAlign=middle;resizable=0;points=[];" parent="Ec9VttPGb9vaH7HjuK4D-6" vertex="1" connectable="0">
          <mxGeometry x="0.0617" y="-1" relative="1" as="geometry">
            <mxPoint x="-10" y="-18" as="offset" />
          </mxGeometry>
        </mxCell>
        <mxCell id="Ec9VttPGb9vaH7HjuK4D-20" value="" style="group" parent="1" vertex="1" connectable="0">
          <mxGeometry x="100" y="272.5" width="180" height="250" as="geometry" />
        </mxCell>
        <mxCell id="MqtX2bsidFjWwxD4z_CP-1" value="Web App" style="verticalAlign=top;align=left;spacingTop=8;spacingLeft=2;spacingRight=12;shape=cube;size=10;direction=south;fontStyle=4;html=1;whiteSpace=wrap;" parent="Ec9VttPGb9vaH7HjuK4D-20" vertex="1">
          <mxGeometry width="180" height="250" as="geometry" />
        </mxCell>
        <mxCell id="Ec9VttPGb9vaH7HjuK4D-1" value="Usuarios" style="shape=module;align=left;spacingLeft=20;align=center;verticalAlign=top;whiteSpace=wrap;html=1;" parent="Ec9VttPGb9vaH7HjuK4D-20" vertex="1">
          <mxGeometry x="20" y="35" width="130" height="55" as="geometry" />
        </mxCell>
        <mxCell id="Ec9VttPGb9vaH7HjuK4D-2" value="Publicador" style="shape=module;align=left;spacingLeft=20;align=center;verticalAlign=top;whiteSpace=wrap;html=1;" parent="Ec9VttPGb9vaH7HjuK4D-20" vertex="1">
          <mxGeometry x="20" y="110" width="130" height="55" as="geometry" />
        </mxCell>
        <mxCell id="Ec9VttPGb9vaH7HjuK4D-3" value="Administrador" style="shape=module;align=left;spacingLeft=20;align=center;verticalAlign=top;whiteSpace=wrap;html=1;" parent="Ec9VttPGb9vaH7HjuK4D-20" vertex="1">
          <mxGeometry x="20" y="180" width="130" height="55" as="geometry" />
        </mxCell>
        <mxCell id="Ec9VttPGb9vaH7HjuK4D-21" style="edgeStyle=orthogonalEdgeStyle;rounded=0;orthogonalLoop=1;jettySize=auto;html=1;endArrow=none;endFill=0;" parent="1" source="MqtX2bsidFjWwxD4z_CP-1" target="MqtX2bsidFjWwxD4z_CP-2" edge="1">
          <mxGeometry relative="1" as="geometry" />
        </mxCell>
        <mxCell id="Ec9VttPGb9vaH7HjuK4D-38" value="&lt;div&gt;&lt;br&gt;&lt;/div&gt;&lt;div&gt;&amp;lt;&amp;lt;protocolo&amp;gt;&amp;gt;&lt;/div&gt;&lt;div&gt;HTTP&lt;/div&gt;" style="edgeLabel;html=1;align=center;verticalAlign=middle;resizable=0;points=[];" parent="Ec9VttPGb9vaH7HjuK4D-21" vertex="1" connectable="0">
          <mxGeometry x="-0.112" y="-1" relative="1" as="geometry">
            <mxPoint x="6" y="-28" as="offset" />
          </mxGeometry>
        </mxCell>
        <mxCell id="Ec9VttPGb9vaH7HjuK4D-37" value="" style="group" parent="1" vertex="1" connectable="0">
          <mxGeometry x="850" y="210" width="340" height="375" as="geometry" />
        </mxCell>
        <mxCell id="Ec9VttPGb9vaH7HjuK4D-5" value="Data base Server (mysql)" style="verticalAlign=top;align=left;spacingTop=8;spacingLeft=2;spacingRight=12;shape=cube;size=10;direction=south;fontStyle=4;html=1;whiteSpace=wrap;container=0;" parent="Ec9VttPGb9vaH7HjuK4D-37" vertex="1">
          <mxGeometry width="340" height="375" as="geometry" />
        </mxCell>
        <mxCell id="Ec9VttPGb9vaH7HjuK4D-7" value="Data Base: publicaciones" style="verticalAlign=top;align=left;spacingTop=8;spacingLeft=2;spacingRight=12;shape=cube;size=10;direction=south;fontStyle=4;html=1;whiteSpace=wrap;container=0;" parent="Ec9VttPGb9vaH7HjuK4D-37" vertex="1">
          <mxGeometry x="20.799999999999955" y="32.5" width="289.2" height="327.5" as="geometry" />
        </mxCell>
        <mxCell id="Ec9VttPGb9vaH7HjuK4D-23" value="Â«tablaÂ»&lt;br&gt;&lt;b&gt;usrers&lt;/b&gt;" style="html=1;dropTarget=0;whiteSpace=wrap;" parent="Ec9VttPGb9vaH7HjuK4D-37" vertex="1">
          <mxGeometry x="40" y="70" width="110" height="50" as="geometry" />
        </mxCell>
        <mxCell id="Ec9VttPGb9vaH7HjuK4D-24" value="" style="shape=module;jettyWidth=8;jettyHeight=4;" parent="Ec9VttPGb9vaH7HjuK4D-23" vertex="1">
          <mxGeometry x="1" width="20" height="20" relative="1" as="geometry">
            <mxPoint x="-27" y="7" as="offset" />
          </mxGeometry>
        </mxCell>
        <mxCell id="Ec9VttPGb9vaH7HjuK4D-25" value="Â«tablaÂ»&lt;br&gt;&lt;b&gt;publicacion&lt;/b&gt;" style="html=1;dropTarget=0;whiteSpace=wrap;" parent="Ec9VttPGb9vaH7HjuK4D-37" vertex="1">
          <mxGeometry x="160" y="70" width="110" height="50" as="geometry" />
        </mxCell>
        <mxCell id="Ec9VttPGb9vaH7HjuK4D-26" value="" style="shape=module;jettyWidth=8;jettyHeight=4;" parent="Ec9VttPGb9vaH7HjuK4D-25" vertex="1">
          <mxGeometry x="1" width="20" height="20" relative="1" as="geometry">
            <mxPoint x="-27" y="7" as="offset" />
          </mxGeometry>
        </mxCell>
        <mxCell id="Ec9VttPGb9vaH7HjuK4D-27" value="Â«tablaÂ»&lt;br&gt;&lt;b&gt;tipo publico&lt;/b&gt;" style="html=1;dropTarget=0;whiteSpace=wrap;" parent="Ec9VttPGb9vaH7HjuK4D-37" vertex="1">
          <mxGeometry x="40" y="140" width="110" height="50" as="geometry" />
        </mxCell>
        <mxCell id="Ec9VttPGb9vaH7HjuK4D-28" value="" style="shape=module;jettyWidth=8;jettyHeight=4;" parent="Ec9VttPGb9vaH7HjuK4D-27" vertex="1">
          <mxGeometry x="1" width="20" height="20" relative="1" as="geometry">
            <mxPoint x="-27" y="7" as="offset" />
          </mxGeometry>
        </mxCell>
        <mxCell id="Ec9VttPGb9vaH7HjuK4D-29" value="Â«tablaÂ»&lt;br&gt;&lt;b&gt;publico&lt;/b&gt;" style="html=1;dropTarget=0;whiteSpace=wrap;" parent="Ec9VttPGb9vaH7HjuK4D-37" vertex="1">
          <mxGeometry x="160" y="140" width="110" height="50" as="geometry" />
        </mxCell>
        <mxCell id="Ec9VttPGb9vaH7HjuK4D-30" value="" style="shape=module;jettyWidth=8;jettyHeight=4;" parent="Ec9VttPGb9vaH7HjuK4D-29" vertex="1">
          <mxGeometry x="1" width="20" height="20" relative="1" as="geometry">
            <mxPoint x="-27" y="7" as="offset" />
          </mxGeometry>
        </mxCell>
        <mxCell id="Ec9VttPGb9vaH7HjuK4D-31" value="Â«tablaÂ»&lt;br&gt;&lt;b&gt;asistencia&lt;/b&gt;" style="html=1;dropTarget=0;whiteSpace=wrap;" parent="Ec9VttPGb9vaH7HjuK4D-37" vertex="1">
          <mxGeometry x="40" y="220" width="110" height="50" as="geometry" />
        </mxCell>
        <mxCell id="Ec9VttPGb9vaH7HjuK4D-32" value="" style="shape=module;jettyWidth=8;jettyHeight=4;" parent="Ec9VttPGb9vaH7HjuK4D-31" vertex="1">
          <mxGeometry x="1" width="20" height="20" relative="1" as="geometry">
            <mxPoint x="-27" y="7" as="offset" />
          </mxGeometry>
        </mxCell>
        <mxCell id="Ec9VttPGb9vaH7HjuK4D-33" value="Â«tablaÂ»&lt;br&gt;&lt;b&gt;reporte&lt;/b&gt;" style="html=1;dropTarget=0;whiteSpace=wrap;" parent="Ec9VttPGb9vaH7HjuK4D-37" vertex="1">
          <mxGeometry x="160" y="220" width="110" height="50" as="geometry" />
        </mxCell>
        <mxCell id="Ec9VttPGb9vaH7HjuK4D-34" value="" style="shape=module;jettyWidth=8;jettyHeight=4;" parent="Ec9VttPGb9vaH7HjuK4D-33" vertex="1">
          <mxGeometry x="1" width="20" height="20" relative="1" as="geometry">
            <mxPoint x="-27" y="7" as="offset" />
          </mxGeometry>
        </mxCell>
        <mxCell id="Ec9VttPGb9vaH7HjuK4D-35" value="Â«tablaÂ»&lt;br&gt;&lt;b&gt;motivo&lt;/b&gt;" style="html=1;dropTarget=0;whiteSpace=wrap;" parent="Ec9VttPGb9vaH7HjuK4D-37" vertex="1">
          <mxGeometry x="40" y="290" width="110" height="50" as="geometry" />
        </mxCell>
        <mxCell id="Ec9VttPGb9vaH7HjuK4D-36" value="" style="shape=module;jettyWidth=8;jettyHeight=4;" parent="Ec9VttPGb9vaH7HjuK4D-35" vertex="1">
          <mxGeometry x="1" width="20" height="20" relative="1" as="geometry">
            <mxPoint x="-27" y="7" as="offset" />
          </mxGeometry>
        </mxCell>
        <mxCell id="LdiBDDYYcIZCdr6sX86--1" value="" style="group" vertex="1" connectable="0" parent="1">
          <mxGeometry x="460" y="112.5" width="230" height="570" as="geometry" />
        </mxCell>
        <mxCell id="MqtX2bsidFjWwxD4z_CP-2" value="app server" style="verticalAlign=top;align=left;spacingTop=8;spacingLeft=2;spacingRight=12;shape=cube;size=10;direction=south;fontStyle=4;html=1;whiteSpace=wrap;container=0;" parent="LdiBDDYYcIZCdr6sX86--1" vertex="1">
          <mxGeometry width="230" height="570" as="geometry" />
        </mxCell>
        <mxCell id="Ec9VttPGb9vaH7HjuK4D-40" value="Â«ContollerÂ»&lt;br&gt;&lt;b&gt;Usuarios&lt;/b&gt;" style="html=1;dropTarget=0;whiteSpace=wrap;container=0;" parent="LdiBDDYYcIZCdr6sX86--1" vertex="1">
          <mxGeometry x="20" y="58.856707317073166" width="170" height="60.36585365853659" as="geometry" />
        </mxCell>
        <mxCell id="Ec9VttPGb9vaH7HjuK4D-42" value="Â«ControllerÂ»&lt;br&gt;&lt;b&gt;Publicaciones&lt;/b&gt;" style="html=1;dropTarget=0;whiteSpace=wrap;container=0;" parent="LdiBDDYYcIZCdr6sX86--1" vertex="1">
          <mxGeometry x="20" y="146.3871951219512" width="170" height="60.36585365853659" as="geometry" />
        </mxCell>
        <mxCell id="Ec9VttPGb9vaH7HjuK4D-41" value="" style="shape=module;jettyWidth=8;jettyHeight=4;container=0;" parent="LdiBDDYYcIZCdr6sX86--1" vertex="1">
          <mxGeometry x="163" y="67.3079268292683" width="20" height="24.146341463414632" as="geometry">
            <mxPoint x="-27" y="7" as="offset" />
          </mxGeometry>
        </mxCell>
        <mxCell id="Ec9VttPGb9vaH7HjuK4D-43" value="" style="shape=module;jettyWidth=8;jettyHeight=4;container=0;" parent="LdiBDDYYcIZCdr6sX86--1" vertex="1">
          <mxGeometry x="163" y="154.83841463414635" width="20" height="24.146341463414632" as="geometry">
            <mxPoint x="-27" y="7" as="offset" />
          </mxGeometry>
        </mxCell>
        <mxCell id="LdiBDDYYcIZCdr6sX86--8" value="Â«ContollerÂ»&lt;br&gt;&lt;b&gt;Asistencia&lt;/b&gt;" style="html=1;dropTarget=0;whiteSpace=wrap;container=0;" vertex="1" parent="LdiBDDYYcIZCdr6sX86--1">
          <mxGeometry x="20" y="226.3719512195122" width="170" height="60.36585365853659" as="geometry" />
        </mxCell>
        <mxCell id="LdiBDDYYcIZCdr6sX86--9" value="Â«ControllerÂ»&lt;br&gt;&lt;b&gt;Categoria&lt;/b&gt;" style="html=1;dropTarget=0;whiteSpace=wrap;container=0;" vertex="1" parent="LdiBDDYYcIZCdr6sX86--1">
          <mxGeometry x="20" y="313.9024390243902" width="170" height="60.36585365853659" as="geometry" />
        </mxCell>
        <mxCell id="LdiBDDYYcIZCdr6sX86--10" value="Â«ControllerÂ»&lt;br&gt;&lt;b&gt;Reporte&lt;/b&gt;" style="html=1;dropTarget=0;whiteSpace=wrap;container=0;" vertex="1" parent="LdiBDDYYcIZCdr6sX86--1">
          <mxGeometry x="20" y="395.3963414634146" width="170" height="60.36585365853659" as="geometry" />
        </mxCell>
        <mxCell id="LdiBDDYYcIZCdr6sX86--11" value="Â«ControllerÂ»&lt;br&gt;&lt;b&gt;NotificaciÃ³n&lt;/b&gt;" style="html=1;dropTarget=0;whiteSpace=wrap;container=0;" vertex="1" parent="LdiBDDYYcIZCdr6sX86--1">
          <mxGeometry x="20" y="474.99634146341464" width="170" height="60.36585365853659" as="geometry" />
        </mxCell>
        <mxCell id="LdiBDDYYcIZCdr6sX86--12" value="" style="shape=module;jettyWidth=8;jettyHeight=4;container=0;" vertex="1" parent="LdiBDDYYcIZCdr6sX86--1">
          <mxGeometry x="163" y="234.99841463414634" width="20" height="24.146341463414632" as="geometry">
            <mxPoint x="-27" y="7" as="offset" />
          </mxGeometry>
        </mxCell>
        <mxCell id="LdiBDDYYcIZCdr6sX86--13" value="" style="shape=module;jettyWidth=8;jettyHeight=4;container=0;" vertex="1" parent="LdiBDDYYcIZCdr6sX86--1">
          <mxGeometry x="163" y="324.99841463414634" width="20" height="24.146341463414632" as="geometry">
            <mxPoint x="-27" y="7" as="offset" />
          </mxGeometry>
        </mxCell>
        <mxCell id="LdiBDDYYcIZCdr6sX86--14" value="" style="shape=module;jettyWidth=8;jettyHeight=4;container=0;" vertex="1" parent="LdiBDDYYcIZCdr6sX86--1">
          <mxGeometry x="163" y="404.99841463414634" width="20" height="24.146341463414632" as="geometry">
            <mxPoint x="-27" y="7" as="offset" />
          </mxGeometry>
        </mxCell>
        <mxCell id="LdiBDDYYcIZCdr6sX86--15" value="" style="shape=module;jettyWidth=8;jettyHeight=4;container=0;" vertex="1" parent="LdiBDDYYcIZCdr6sX86--1">
          <mxGeometry x="163" y="484.99841463414634" width="20" height="24.146341463414632" as="geometry">
            <mxPoint x="-27" y="7" as="offset" />
          </mxGeometry>
        </mxCell>
      </root>
    </mxGraphModel>
  </diagram>
</mxfile>
